<?xml version="1.0" encoding="UTF-8" standalone="no"?>
<!DOCTYPE svg PUBLIC "-//W3C//DTD SVG 1.1//EN" "http://www.w3.org/Graphics/SVG/1.1/DTD/svg11.dtd">
<svg width="100%" height="100%" viewBox="0 0 515 133" version="1.1" xmlns="http://www.w3.org/2000/svg" xmlns:xlink="http://www.w3.org/1999/xlink" xml:space="preserve" xmlns:serif="http://www.serif.com/" style="fill-rule:evenodd;clip-rule:evenodd;stroke-linejoin:round;stroke-miterlimit:2;">
    <g transform="matrix(1,0,0,1,-27.8615,-44.4607)">
        <g transform="matrix(1.74609,0,0,1.74609,84.6095,110.812)">
            <g transform="matrix(1,0,0,1,-32.5,-38)">
                <path d="M60.357,38C60.357,39.583 61.131,42.75 62.679,47.5C64.226,52.25 65,55.417 65,57C65,60.216 64.528,63.259 63.585,66.129C62.642,68.999 61.264,71.361 59.45,73.217C57.637,75.072 55.618,76 53.393,76L20.893,76C20.264,76 19.72,75.765 19.261,75.295C18.801,74.825 18.571,74.268 18.571,73.625C18.571,72.982 18.801,72.425 19.261,71.955C19.72,71.485 20.264,71.25 20.893,71.25C21.57,71.25 22.126,71.027 22.561,70.582C22.997,70.137 23.214,69.568 23.214,68.875C23.214,67.589 22.731,66.092 21.763,64.385C20.796,62.678 19.635,60.921 18.281,59.115C16.927,57.309 15.573,55.441 14.219,53.512C12.865,51.582 11.704,49.454 10.737,47.129C9.769,44.803 9.286,42.552 9.286,40.375C9.286,36.664 10.737,33.596 13.638,31.172C13.058,29.391 11.607,28.5 9.286,28.5C7.883,28.5 6.42,27.993 4.897,26.979C3.373,25.964 2.176,24.9 1.306,23.787C0.435,22.674 0,21.87 0,21.375C0,20.732 0.23,20.175 0.689,19.705C1.149,19.235 1.693,19 2.321,19C2.708,19 3.119,18.654 3.555,17.961C3.99,17.268 4.486,16.402 5.042,15.363C5.598,14.324 6.239,13.273 6.964,12.209C7.69,11.145 8.657,10.156 9.866,9.24C11.075,8.325 12.429,7.694 13.929,7.348L13.929,0C15.041,0 16.347,0.878 17.846,2.635C19.345,4.391 20.313,6.21 20.748,8.09C23.069,9.079 24.834,10.799 26.044,13.248C27.253,15.697 27.857,18.406 27.857,21.375C27.857,22.81 28.159,24.171 28.764,25.457C29.369,26.744 30.227,27.894 31.339,28.908C32.452,29.923 33.358,30.69 34.06,31.209C34.761,31.729 35.644,32.31 36.708,32.953C36.901,33.102 37.046,33.201 37.143,33.25C39.948,34.883 42.269,36.466 44.107,38C47.444,40.82 50.213,44.358 52.414,48.613C54.614,52.868 55.714,56.456 55.714,59.375C55.714,59.573 55.739,59.796 55.787,60.043C55.835,60.29 56.053,60.637 56.44,61.082C56.827,61.527 57.359,61.75 58.036,61.75C58.713,61.75 59.269,61.367 59.704,60.6C60.14,59.833 60.357,58.633 60.357,57C60.357,55.268 60.043,53.536 59.414,51.805C58.785,50.073 58.012,48.428 57.093,46.869C56.174,45.311 55.255,43.69 54.336,42.008C53.417,40.326 52.643,38.309 52.015,35.959C51.386,33.609 51.071,31.122 51.071,28.5C51.071,26.125 52.039,23.948 53.973,21.969C55.908,19.99 58.036,19 60.357,19C61.663,19 62.763,19.458 63.658,20.373C64.553,21.288 65,22.414 65,23.75C65,24.542 64.855,25.247 64.565,25.865C64.275,26.484 63.9,27.053 63.44,27.572C62.981,28.092 62.727,28.401 62.679,28.5C61.131,31.122 60.357,34.289 60.357,38Z" style="fill-rule:nonzero;"/>
            </g>
        </g>
        <g>
            <path d="M184.612,97.859C181.634,97.859 178.973,97.125 176.629,95.657C174.286,94.188 172.432,92.178 171.068,89.627C169.704,87.075 169.021,84.164 169.021,80.894C169.021,77.602 169.709,74.68 171.085,72.128C172.461,69.577 174.315,67.567 176.648,66.099C178.982,64.631 181.606,63.897 184.521,63.897C186.168,63.897 187.746,64.151 189.256,64.661C190.766,65.171 192.126,65.874 193.334,66.77C194.542,67.665 195.539,68.682 196.323,69.82C197.108,70.958 197.597,72.155 197.791,73.411L196.336,72.922L196.336,50.984L201.06,50.984L201.06,97.234L196.401,97.234L196.271,89.099L197.489,88.647C197.295,89.84 196.811,90.986 196.037,92.084C195.262,93.182 194.296,94.169 193.138,95.045C191.98,95.921 190.666,96.609 189.196,97.109C187.726,97.609 186.198,97.859 184.612,97.859ZM185.261,93.558C187.434,93.558 189.374,93.009 191.079,91.912C192.783,90.815 194.127,89.316 195.111,87.414C196.094,85.512 196.586,83.328 196.586,80.861C196.586,78.416 196.1,76.243 195.127,74.341C194.154,72.439 192.815,70.94 191.111,69.843C189.406,68.747 187.456,68.198 185.261,68.198C183.044,68.198 181.083,68.747 179.378,69.843C177.674,70.94 176.335,72.439 175.362,74.341C174.39,76.243 173.903,78.416 173.903,80.861C173.903,83.285 174.384,85.453 175.346,87.366C176.308,89.278 177.641,90.788 179.346,91.896C181.051,93.004 183.022,93.558 185.261,93.558Z" style="fill-rule:nonzero;"/>
            <path d="M225.345,97.859C222.099,97.859 219.218,97.146 216.7,95.719C214.182,94.293 212.21,92.318 210.785,89.797C209.359,87.275 208.646,84.357 208.646,81.043C208.646,78.524 209.047,76.224 209.848,74.142C210.649,72.06 211.762,70.248 213.187,68.708C214.613,67.167 216.324,65.975 218.322,65.131C220.32,64.288 222.495,63.866 224.847,63.866C227.037,63.866 229.043,64.256 230.866,65.036C232.688,65.816 234.25,66.909 235.55,68.315C236.85,69.721 237.838,71.382 238.513,73.298C239.189,75.214 239.495,77.318 239.432,79.609L239.369,81.81L212.136,81.81L211.442,77.849L235.81,77.849L234.646,78.943L234.646,77.443C234.586,75.917 234.154,74.462 233.352,73.077C232.55,71.692 231.426,70.557 229.98,69.674C228.535,68.79 226.813,68.349 224.814,68.349C222.5,68.349 220.491,68.824 218.788,69.775C217.085,70.727 215.767,72.117 214.835,73.946C213.903,75.775 213.437,78.038 213.437,80.734C213.437,83.306 213.938,85.543 214.94,87.446C215.941,89.349 217.377,90.818 219.245,91.854C221.114,92.889 223.344,93.406 225.937,93.406C227.519,93.406 229.068,93.146 230.582,92.627C232.096,92.107 233.774,91.074 235.614,89.527L238.023,92.926C237.067,93.861 235.919,94.699 234.578,95.438C233.238,96.177 231.781,96.766 230.209,97.203C228.637,97.641 227.016,97.859 225.345,97.859Z" style="fill-rule:nonzero;"/>
            <path d="M258.306,97.859C255.513,97.859 253.012,97.343 250.804,96.309C248.595,95.275 246.837,93.896 245.53,92.172L248.871,89.295C250.056,90.775 251.469,91.881 253.11,92.613C254.751,93.345 256.606,93.711 258.675,93.711C259.683,93.711 260.613,93.596 261.463,93.365C262.314,93.134 263.043,92.799 263.652,92.359C264.26,91.92 264.732,91.386 265.069,90.757C265.405,90.129 265.573,89.426 265.573,88.65C265.573,87.287 264.983,86.153 263.804,85.249C263.237,84.85 262.457,84.457 261.464,84.071C260.471,83.684 259.255,83.293 257.817,82.897C255.508,82.249 253.583,81.584 252.041,80.9C250.499,80.216 249.29,79.407 248.414,78.472C247.767,77.723 247.288,76.912 246.975,76.04C246.661,75.167 246.505,74.211 246.505,73.172C246.505,71.818 246.791,70.579 247.362,69.455C247.934,68.331 248.735,67.347 249.765,66.503C250.795,65.66 252.002,65.015 253.386,64.567C254.769,64.12 256.273,63.897 257.898,63.897C259.44,63.897 260.966,64.11 262.476,64.538C263.986,64.965 265.387,65.575 266.679,66.366C267.97,67.158 269.075,68.085 269.993,69.147L267.114,72.304C266.301,71.447 265.415,70.69 264.456,70.032C263.497,69.374 262.484,68.862 261.418,68.497C260.352,68.131 259.262,67.948 258.146,67.948C257.142,67.948 256.216,68.064 255.368,68.295C254.519,68.526 253.796,68.868 253.198,69.319C252.6,69.771 252.139,70.306 251.813,70.925C251.488,71.543 251.325,72.23 251.325,72.984C251.345,73.591 251.475,74.144 251.715,74.645C251.955,75.146 252.316,75.595 252.798,75.993C253.385,76.455 254.207,76.885 255.264,77.282C256.321,77.679 257.644,78.087 259.232,78.506C261.057,78.983 262.609,79.485 263.888,80.013C265.167,80.54 266.224,81.156 267.058,81.859C268.15,82.673 268.944,83.622 269.438,84.707C269.933,85.792 270.181,87.023 270.181,88.4C270.181,90.232 269.666,91.861 268.636,93.286C267.606,94.711 266.195,95.83 264.403,96.642C262.612,97.454 260.579,97.859 258.306,97.859Z" style="fill-rule:nonzero;"/>
            <path d="M278.757,97.234L278.757,64.584L283.48,64.584L283.48,97.234L278.757,97.234ZM281.073,57.56C279.935,57.56 279.056,57.259 278.435,56.659C277.815,56.058 277.505,55.22 277.505,54.144C277.505,53.129 277.82,52.306 278.451,51.675C279.081,51.043 279.955,50.728 281.073,50.728C282.211,50.728 283.091,51.028 283.711,51.628C284.332,52.229 284.642,53.067 284.642,54.144C284.642,55.158 284.327,55.981 283.696,56.612C283.065,57.244 282.191,57.56 281.073,57.56Z" style="fill-rule:nonzero;"/>
            <path d="M308.948,111.609C306.529,111.609 304.244,111.234 302.093,110.483C299.942,109.733 298.147,108.796 296.709,107.672L298.6,103.738C299.433,104.407 300.401,105.002 301.504,105.524C302.607,106.047 303.8,106.459 305.083,106.762C306.365,107.065 307.686,107.217 309.045,107.217C311.445,107.217 313.491,106.772 315.183,105.882C316.875,104.992 318.166,103.672 319.055,101.923C319.943,100.174 320.388,98 320.388,95.402L320.388,89.187L321.173,88.978C320.792,90.571 319.98,92.043 318.737,93.392C317.494,94.741 315.97,95.822 314.165,96.637C312.36,97.452 310.453,97.859 308.446,97.859C305.407,97.859 302.696,97.125 300.312,95.657C297.929,94.188 296.045,92.178 294.661,89.627C293.276,87.075 292.584,84.164 292.584,80.894C292.584,77.602 293.282,74.68 294.678,72.128C296.073,69.577 297.963,67.567 300.347,66.099C302.731,64.631 305.4,63.897 308.355,63.897C309.648,63.897 310.894,64.058 312.094,64.381C313.293,64.705 314.409,65.153 315.441,65.726C316.473,66.299 317.406,66.962 318.241,67.715C319.076,68.468 319.77,69.284 320.324,70.164C320.878,71.043 321.272,71.934 321.505,72.838L320.226,72.659L320.388,64.584L325.112,64.584L325.112,95.234C325.112,97.859 324.732,100.182 323.972,102.203C323.212,104.224 322.119,105.932 320.693,107.328C319.267,108.724 317.56,109.787 315.574,110.516C313.588,111.245 311.379,111.609 308.948,111.609ZM309.005,93.377C311.218,93.377 313.198,92.838 314.943,91.761C316.688,90.684 318.057,89.21 319.051,87.339C320.044,85.468 320.541,83.309 320.541,80.861C320.541,78.436 320.045,76.283 319.052,74.401C318.059,72.52 316.695,71.041 314.96,69.964C313.225,68.887 311.24,68.349 309.005,68.349C306.767,68.349 304.781,68.892 303.046,69.979C301.312,71.066 299.948,72.55 298.955,74.432C297.962,76.313 297.466,78.456 297.466,80.861C297.466,83.245 297.957,85.383 298.939,87.275C299.921,89.167 301.279,90.657 303.014,91.745C304.749,92.833 306.746,93.377 309.005,93.377Z" style="fill-rule:nonzero;"/>
            <path d="M335.437,97.234L335.437,64.584L340.098,64.584L340.259,71.398L339.521,71.76C339.96,70.345 340.783,69.045 341.991,67.858C343.199,66.672 344.642,65.715 346.32,64.988C347.997,64.26 349.743,63.897 351.558,63.897C353.95,63.897 355.964,64.381 357.598,65.349C359.232,66.317 360.461,67.801 361.284,69.801C362.106,71.801 362.517,74.333 362.517,77.397L362.517,97.234L357.793,97.234L357.793,77.672C357.793,75.517 357.505,73.739 356.93,72.337C356.355,70.935 355.492,69.899 354.343,69.229C353.193,68.559 351.761,68.244 350.048,68.284C348.604,68.284 347.285,68.525 346.093,69.007C344.9,69.489 343.859,70.149 342.97,70.987C342.08,71.824 341.39,72.787 340.899,73.876C340.408,74.964 340.162,76.125 340.162,77.359L340.162,97.234L335.437,97.234Z" style="fill-rule:nonzero;"/>
            <path d="M387.032,97.859C383.787,97.859 380.905,97.146 378.387,95.719C375.869,94.293 373.898,92.318 372.472,89.797C371.047,87.275 370.334,84.357 370.334,81.043C370.334,78.524 370.734,76.224 371.536,74.142C372.337,72.06 373.45,70.248 374.875,68.708C376.3,67.167 378.012,65.975 380.01,65.131C382.008,64.288 384.183,63.866 386.534,63.866C388.724,63.866 390.731,64.256 392.553,65.036C394.376,65.816 395.937,66.909 397.237,68.315C398.537,69.721 399.525,71.382 400.201,73.298C400.876,75.214 401.182,77.318 401.119,79.609L401.057,81.81L373.823,81.81L373.13,77.849L397.498,77.849L396.334,78.943L396.334,77.443C396.273,75.917 395.842,74.462 395.039,73.077C394.237,71.692 393.113,70.557 391.668,69.674C390.223,68.79 388.501,68.349 386.502,68.349C384.187,68.349 382.179,68.824 380.475,69.775C378.772,70.727 377.455,72.117 376.523,73.946C375.591,75.775 375.125,78.038 375.125,80.734C375.125,83.306 375.626,85.543 376.627,87.446C377.629,89.349 379.064,90.818 380.933,91.854C382.801,92.889 385.032,93.406 387.625,93.406C389.207,93.406 390.755,93.146 392.269,92.627C393.784,92.107 395.461,91.074 397.302,89.527L399.711,92.926C398.754,93.861 397.606,94.699 396.266,95.438C394.925,96.177 393.469,96.766 391.897,97.203C390.325,97.641 388.703,97.859 387.032,97.859Z" style="fill-rule:nonzero;"/>
            <path d="M422.55,97.859C419.571,97.859 416.91,97.125 414.567,95.657C412.223,94.188 410.37,92.178 409.005,89.627C407.641,87.075 406.959,84.164 406.959,80.894C406.959,77.602 407.647,74.68 409.022,72.128C410.398,69.577 412.253,67.567 414.586,66.099C416.919,64.631 419.544,63.897 422.459,63.897C424.105,63.897 425.684,64.151 427.194,64.661C428.704,65.171 430.063,65.874 431.271,66.77C432.48,67.665 433.476,68.682 434.261,69.82C435.045,70.958 435.534,72.155 435.728,73.411L434.273,72.922L434.273,50.984L438.998,50.984L438.998,97.234L434.339,97.234L434.209,89.099L435.427,88.647C435.233,89.84 434.748,90.986 433.974,92.084C433.2,93.182 432.233,94.169 431.076,95.045C429.918,95.921 428.604,96.609 427.134,97.109C425.664,97.609 424.136,97.859 422.55,97.859ZM423.198,93.558C425.372,93.558 427.311,93.009 429.016,91.912C430.721,90.815 432.065,89.316 433.048,87.414C434.032,85.512 434.523,83.328 434.523,80.861C434.523,78.416 434.037,76.243 433.064,74.341C432.092,72.439 430.753,70.94 429.048,69.843C427.343,68.747 425.393,68.198 423.198,68.198C420.981,68.198 419.021,68.747 417.316,69.843C415.611,70.94 414.272,72.439 413.3,74.341C412.327,76.243 411.841,78.416 411.841,80.861C411.841,83.285 412.322,85.453 413.284,87.366C414.246,89.278 415.579,90.788 417.284,91.896C418.988,93.004 420.96,93.558 423.198,93.558Z" style="fill-rule:nonzero;"/>
            <path d="M482.946,97.859C481.4,97.859 479.907,97.62 478.469,97.14C477.03,96.66 475.716,96.002 474.527,95.167C473.338,94.331 472.337,93.374 471.523,92.297C470.709,91.219 470.144,90.094 469.83,88.92L471.196,89.015L471.035,97.144L466.375,97.144L466.375,50.984L471.1,50.984L471.1,72.407L470.132,72.685C470.426,71.511 470.965,70.395 471.749,69.338C472.533,68.281 473.509,67.344 474.678,66.529C475.847,65.713 477.126,65.071 478.514,64.601C479.902,64.131 481.35,63.897 482.855,63.897C485.771,63.897 488.385,64.626 490.698,66.084C493.011,67.542 494.851,69.547 496.217,72.099C497.583,74.65 498.266,77.572 498.266,80.863C498.266,84.134 497.598,87.05 496.264,89.611C494.93,92.173 493.106,94.188 490.793,95.657C488.48,97.125 485.864,97.859 482.946,97.859ZM482.207,93.406C484.425,93.406 486.386,92.857 488.091,91.76C489.796,90.662 491.134,89.167 492.106,87.275C493.078,85.383 493.564,83.235 493.564,80.831C493.564,78.426 493.078,76.283 492.105,74.401C491.133,72.52 489.794,71.041 488.089,69.964C486.385,68.887 484.424,68.349 482.207,68.349C479.99,68.349 478.029,68.887 476.325,69.964C474.62,71.041 473.276,72.52 472.293,74.401C471.311,76.283 470.819,78.426 470.819,80.831C470.819,83.278 471.316,85.443 472.309,87.324C473.303,89.205 474.652,90.689 476.357,91.776C478.062,92.863 480.012,93.406 482.207,93.406Z" style="fill-rule:nonzero;"/>
            <path d="M510.032,111.609L516.366,96.232L516.752,100.647L500.377,64.584L505.712,64.584L516.898,89.613C517.236,90.289 517.567,91.07 517.891,91.957C518.215,92.843 518.535,93.735 518.851,94.633L517.097,94.426C517.387,93.702 517.667,92.972 517.936,92.237C518.206,91.502 518.476,90.773 518.746,90.049L528.505,64.584L533.899,64.584L520.689,97.234L515.062,111.609L510.032,111.609Z" style="fill-rule:nonzero;"/>
            <path d="M186.12,174.109C183.651,174.109 181.197,173.734 178.757,172.984C176.317,172.234 174.342,171.258 172.832,170.058L175.602,164.345C176.453,164.961 177.427,165.503 178.527,165.969C179.626,166.436 180.786,166.798 182.006,167.056C183.227,167.314 184.445,167.442 185.662,167.442C187.886,167.442 189.735,167.091 191.208,166.388C192.682,165.685 193.791,164.638 194.537,163.247C195.282,161.856 195.654,160.12 195.654,158.039L195.654,151.994L196.774,152.393C196.541,153.71 195.853,154.952 194.711,156.118C193.57,157.284 192.149,158.23 190.449,158.954C188.749,159.679 186.995,160.041 185.186,160.041C182.095,160.041 179.348,159.316 176.944,157.867C174.541,156.417 172.641,154.428 171.246,151.9C169.851,149.372 169.153,146.466 169.153,143.183C169.153,139.874 169.84,136.939 171.215,134.376C172.589,131.814 174.474,129.795 176.869,128.32C179.264,126.845 181.966,126.107 184.974,126.107C186.224,126.107 187.428,126.257 188.586,126.557C189.744,126.857 190.819,127.275 191.81,127.812C192.802,128.349 193.689,128.946 194.473,129.605C195.256,130.263 195.895,130.967 196.391,131.717C196.887,132.467 197.201,133.196 197.335,133.905L195.718,134.418L195.857,126.795L203.377,126.795L203.377,157.48C203.377,160.138 202.983,162.495 202.195,164.55C201.407,166.605 200.267,168.343 198.775,169.765C197.283,171.186 195.472,172.265 193.342,173.003C191.212,173.741 188.805,174.109 186.12,174.109ZM186.383,153.467C188.272,153.467 189.938,153.03 191.382,152.157C192.825,151.283 193.942,150.079 194.732,148.544C195.522,147.009 195.917,145.23 195.917,143.208C195.917,141.185 195.514,139.396 194.707,137.84C193.9,136.284 192.784,135.069 191.357,134.196C189.93,133.322 188.272,132.886 186.383,132.886C184.527,132.886 182.888,133.331 181.466,134.221C180.043,135.111 178.929,136.334 178.122,137.89C177.315,139.446 176.912,141.218 176.912,143.208C176.912,145.197 177.315,146.967 178.122,148.519C178.929,150.071 180.043,151.283 181.466,152.157C182.888,153.03 184.527,153.467 186.383,153.467Z" style="fill-rule:nonzero;"/>
            <rect x="211.917" y="113.484" width="7.71" height="46.25" style="fill-rule:nonzero;"/>
            <path d="M241.948,160.359C238.655,160.359 235.716,159.618 233.131,158.134C230.547,156.651 228.509,154.624 227.017,152.053C225.524,149.482 224.778,146.542 224.778,143.233C224.778,139.925 225.524,136.985 227.017,134.414C228.509,131.843 230.547,129.816 233.131,128.333C235.716,126.849 238.655,126.107 241.948,126.107C245.208,126.107 248.128,126.849 250.708,128.333C253.289,129.816 255.323,131.843 256.811,134.414C258.299,136.985 259.043,139.925 259.043,143.233C259.043,146.542 258.299,149.482 256.811,152.053C255.323,154.624 253.289,156.651 250.708,158.134C248.128,159.618 245.208,160.359 241.948,160.359ZM241.948,153.517C243.737,153.517 245.336,153.067 246.746,152.169C248.156,151.271 249.26,150.045 250.059,148.494C250.857,146.942 251.24,145.189 251.207,143.233C251.24,141.237 250.857,139.462 250.059,137.911C249.26,136.359 248.156,135.142 246.746,134.26C245.336,133.378 243.737,132.937 241.948,132.937C240.151,132.937 238.539,133.386 237.112,134.285C235.686,135.183 234.571,136.409 233.768,137.96C232.965,139.511 232.58,141.269 232.613,143.233C232.58,145.189 232.965,146.942 233.768,148.494C234.571,150.045 235.686,151.271 237.112,152.169C238.539,153.067 240.151,153.517 241.948,153.517Z" style="fill-rule:nonzero;"/>
            <path d="M271.85,159.734L260.751,126.795L268.677,126.745L276.028,150.238L274.629,150.088L282.667,131.753L287.255,131.753L295.47,150.138L293.872,150.275L301.26,126.795L309.185,126.795L298.046,159.734L292.553,159.734L284.114,139.954L285.31,140.104L277.294,159.734L271.85,159.734Z" style="fill-rule:nonzero;"/>
            <path d="M314.951,159.734L314.951,126.795L322.662,126.795L322.662,159.734L314.951,159.734ZM318.738,119.786C317.185,119.786 315.981,119.398 315.125,118.622C314.269,117.846 313.841,116.748 313.841,115.329C313.841,114.011 314.279,112.938 315.156,112.112C316.033,111.285 317.227,110.872 318.738,110.872C320.292,110.872 321.496,111.26 322.352,112.037C323.209,112.813 323.637,113.911 323.637,115.329C323.637,116.648 323.198,117.721 322.321,118.547C321.444,119.373 320.25,119.786 318.738,119.786Z" style="fill-rule:nonzero;"/>
            <path d="M331.442,159.734L331.442,126.795L338.962,126.795L339.089,133.545L337.645,134.295C338.071,132.811 338.885,131.455 340.089,130.226C341.293,128.996 342.729,128.003 344.395,127.245C346.062,126.487 347.783,126.107 349.558,126.107C352.058,126.107 354.15,126.603 355.834,127.595C357.518,128.587 358.783,130.085 359.629,132.089C360.475,134.094 360.898,136.6 360.898,139.607L360.898,159.734L353.187,159.734L353.187,140.172C353.187,138.492 352.959,137.099 352.501,135.993C352.044,134.887 351.341,134.076 350.392,133.56C349.444,133.044 348.275,132.819 346.887,132.886C345.764,132.886 344.735,133.063 343.799,133.416C342.863,133.77 342.05,134.266 341.36,134.907C340.67,135.547 340.13,136.287 339.739,137.127C339.348,137.967 339.152,138.878 339.152,139.859L339.152,159.734L331.442,159.734Z" style="fill-rule:nonzero;"/>
            <path d="M383.495,174.109C381.026,174.109 378.572,173.734 376.132,172.984C373.692,172.234 371.717,171.258 370.207,170.058L372.977,164.345C373.828,164.961 374.802,165.503 375.902,165.969C377.001,166.436 378.161,166.798 379.381,167.056C380.602,167.314 381.82,167.442 383.037,167.442C385.261,167.442 387.11,167.091 388.583,166.388C390.057,165.685 391.166,164.638 391.912,163.247C392.657,161.856 393.029,160.12 393.029,158.039L393.029,151.994L394.149,152.393C393.916,153.71 393.228,154.952 392.086,156.118C390.945,157.284 389.524,158.23 387.824,158.954C386.124,159.679 384.37,160.041 382.561,160.041C379.47,160.041 376.723,159.316 374.319,157.867C371.916,156.417 370.016,154.428 368.621,151.9C367.226,149.372 366.528,146.466 366.528,143.183C366.528,139.874 367.215,136.939 368.59,134.376C369.964,131.814 371.849,129.795 374.244,128.32C376.639,126.845 379.341,126.107 382.349,126.107C383.599,126.107 384.803,126.257 385.961,126.557C387.119,126.857 388.194,127.275 389.185,127.812C390.177,128.349 391.064,128.946 391.848,129.605C392.631,130.263 393.27,130.967 393.766,131.717C394.262,132.467 394.576,133.196 394.71,133.905L393.093,134.418L393.232,126.795L400.752,126.795L400.752,157.48C400.752,160.138 400.358,162.495 399.57,164.55C398.782,166.605 397.642,168.343 396.15,169.765C394.658,171.186 392.847,172.265 390.717,173.003C388.587,173.741 386.18,174.109 383.495,174.109ZM383.758,153.467C385.647,153.467 387.313,153.03 388.757,152.157C390.2,151.283 391.317,150.079 392.107,148.544C392.897,147.009 393.292,145.23 393.292,143.208C393.292,141.185 392.889,139.396 392.082,137.84C391.275,136.284 390.159,135.069 388.732,134.196C387.305,133.322 385.647,132.886 383.758,132.886C381.902,132.886 380.263,133.331 378.841,134.221C377.418,135.111 376.304,136.334 375.497,137.89C374.69,139.446 374.287,141.218 374.287,143.208C374.287,145.197 374.69,146.967 375.497,148.519C376.304,150.071 377.418,151.283 378.841,152.157C380.263,153.03 381.902,153.467 383.758,153.467Z" style="fill-rule:nonzero;"/>
            <path d="M416.404,149.662L414.882,142.484L430.518,126.795L440.798,126.795L416.404,149.662ZM409.192,159.734L409.192,113.484L416.902,113.484L416.902,159.734L409.192,159.734ZM431.444,159.734L419.324,145.042L424.765,140.409L440.968,159.734L431.444,159.734Z" style="fill-rule:nonzero;"/>
            <path d="M445.576,159.734L445.576,126.795L453.287,126.795L453.287,159.734L445.576,159.734ZM449.363,119.786C447.81,119.786 446.606,119.398 445.75,118.622C444.894,117.846 444.466,116.748 444.466,115.329C444.466,114.011 444.904,112.938 445.781,112.112C446.658,111.285 447.852,110.872 449.363,110.872C450.917,110.872 452.121,111.26 452.977,112.037C453.834,112.813 454.262,113.911 454.262,115.329C454.262,116.648 453.823,117.721 452.946,118.547C452.069,119.373 450.875,119.786 449.363,119.786Z" style="fill-rule:nonzero;"/>
            <path d="M465.659,159.734L465.659,118.407L473.369,118.407L473.369,159.734L465.659,159.734ZM459.178,133.936L459.178,126.795L480.561,126.795L480.561,133.936L459.178,133.936Z" style="fill-rule:nonzero;"/>
            <path d="M489.659,159.734L489.659,118.407L497.369,118.407L497.369,159.734L489.659,159.734ZM483.178,133.936L483.178,126.795L504.561,126.795L504.561,133.936L483.178,133.936Z" style="fill-rule:nonzero;"/>
            <path d="M515.097,174.109L522.065,157.919L522.141,163.044L505.905,126.795L514.755,126.795L523.859,148.272C524.127,148.841 524.413,149.572 524.717,150.464C525.022,151.357 525.274,152.228 525.474,153.078L523.925,153.606C524.224,152.816 524.532,151.973 524.849,151.077C525.166,150.181 525.483,149.253 525.8,148.293L533.51,126.795L542.458,126.795L528.742,159.734L523.116,174.109L515.097,174.109Z" style="fill-rule:nonzero;"/>
        </g>
    </g>
</svg>
