<?xml version="1.0" encoding="UTF-8" standalone="no"?>
<!DOCTYPE svg PUBLIC "-//W3C//DTD SVG 1.1//EN" "http://www.w3.org/Graphics/SVG/1.1/DTD/svg11.dtd">
<svg width="100%" height="100%" viewBox="0 0 446 233" version="1.1" xmlns="http://www.w3.org/2000/svg" xmlns:xlink="http://www.w3.org/1999/xlink" xml:space="preserve" xmlns:serif="http://www.serif.com/" style="fill-rule:evenodd;clip-rule:evenodd;stroke-linecap:round;stroke-linejoin:round;stroke-miterlimit:1.5;">
    <g transform="matrix(1,0,0,1,-249.723,-356.22)">
        <g transform="matrix(0.765927,0,0,0.765927,112.09,129.665)">
            <g transform="matrix(1,0,0,1,36.5513,-14.3112)">
                <path d="M404.811,414.569C404.811,414.569 395.842,324.109 334.953,313.309C257.677,299.603 247.378,346.956 209.553,329.866C205.626,328.092 217.514,350.775 230.027,371.625C252.011,408.255 290.824,447.677 383.124,410.199C383.124,410.199 395.908,405.288 404.811,414.569ZM353.834,336.137C366.225,347.496 377.862,365.618 387.661,393.093L387.002,393.456C373.289,400.966 360.7,406.115 349.17,409.366C358.457,399.389 364.24,385.375 364.24,369.867C364.24,357.152 360.353,345.441 353.834,336.137ZM286.94,324.914C274.241,334.835 265.932,351.277 265.932,369.867C265.932,381.97 269.454,393.163 275.418,402.24C273.71,401.21 272.07,400.135 270.494,399.025C247.121,382.563 237.833,358.33 237.833,358.33L237.905,358.253C239.274,356.802 260.029,335.113 286.94,324.914ZM307.334,333.63C318.801,333.63 328.111,343.195 328.111,354.977C328.111,366.758 318.801,376.323 307.334,376.323C295.867,376.323 286.558,366.758 286.558,354.977C286.558,343.195 295.867,333.63 307.334,333.63Z" style="stroke:black;stroke-width:1.36px;"/>
            </g>
            <g transform="matrix(1,0,0,1,1.05725,-36.5781)">
                <path d="M381.007,545.672C381.007,545.672 262.009,598.084 190.859,597.813C186.355,597.796 182.685,601.438 182.668,605.942C182.651,610.445 186.293,614.116 190.797,614.133C264.38,614.413 387.562,560.618 387.562,560.618C391.686,558.809 393.566,553.992 391.757,549.868C389.949,545.743 385.131,543.863 381.007,545.672Z"/>
            </g>
            <g transform="matrix(1,0,0,1,1.05725,-36.5781)">
                <path d="M386.467,497.692C386.467,497.692 302.067,476.014 242.994,455.996C218.862,447.819 199.043,440.215 192.012,434.372C188.548,431.494 183.399,431.969 180.521,435.433C177.643,438.896 178.118,444.045 181.582,446.924C189.364,453.391 211.045,462.402 237.756,471.453C297.315,491.635 382.407,513.499 382.407,513.499C386.769,514.619 391.22,511.988 392.34,507.626C393.461,503.263 390.829,498.812 386.467,497.692Z"/>
            </g>
            <g transform="matrix(1,0,0,1,1.05725,-36.5781)">
                <path d="M198.933,523.888C195.555,521.256 190.662,521.684 187.798,524.943C184.825,528.326 185.157,533.486 188.54,536.459C190.01,537.751 192.421,539.106 195.856,540.089C200.752,541.489 208.689,542.476 218.669,543.013C271.491,545.852 385.81,537.388 385.81,537.388C390.301,537.054 393.677,533.137 393.343,528.646C393.01,524.155 389.093,520.779 384.601,521.113C384.601,521.113 271.709,529.52 219.545,526.716C209.888,526.197 199.749,524.062 198.933,523.888Z"/>
            </g>
            <g transform="matrix(-1,0,0,1,904.403,-14.3104)">
                <path d="M404.811,414.569C404.811,414.569 395.842,324.109 334.953,313.309C257.677,299.603 247.378,346.956 209.553,329.866C205.626,328.092 217.514,350.775 230.027,371.625C252.011,408.255 290.824,447.677 383.124,410.199C383.124,410.199 395.908,405.288 404.811,414.569ZM353.834,336.137C366.225,347.496 377.862,365.618 387.661,393.093L387.002,393.456C373.289,400.966 360.7,406.115 349.17,409.366C358.457,399.389 364.24,385.375 364.24,369.867C364.24,357.152 360.353,345.441 353.834,336.137ZM286.94,324.914C274.241,334.835 265.932,351.277 265.932,369.867C265.932,381.97 269.454,393.163 275.418,402.24C273.71,401.21 272.07,400.135 270.494,399.025C247.121,382.563 237.833,358.33 237.833,358.33L237.905,358.253C239.274,356.802 260.029,335.113 286.94,324.914ZM307.334,333.63C318.801,333.63 328.111,343.195 328.111,354.977C328.111,366.758 318.801,376.323 307.334,376.323C295.867,376.323 286.558,366.758 286.558,354.977C286.558,343.195 295.867,333.63 307.334,333.63Z" style="stroke:black;stroke-width:1.36px;"/>
            </g>
            <g transform="matrix(1.30561,0,0,1.30561,-146.346,-169.291)">
                <path d="M465.274,553.774C455.762,546.043 440.138,530.994 439.54,515.16C439,500.875 450.642,499.398 453.047,499.283C455.449,499.168 466.027,498.411 472.441,505.276C478.855,498.412 489.433,499.169 491.835,499.284C494.24,499.399 505.881,500.875 505.342,515.16C504.744,530.995 489.12,546.044 479.608,553.775L480.34,553.228C482.318,558.751 532.532,596.631 569.463,559.672C571.488,557.645 542.931,625.093 472.48,559.137L472.48,559.174L472.441,559.148L472.402,559.174L472.402,559.137C401.951,625.092 373.394,557.645 375.419,559.672C412.35,596.631 462.563,558.75 464.542,553.228L465.274,553.774Z" style="stroke:black;stroke-width:0.63px;"/>
            </g>
            <g transform="matrix(-1,0,0,1,939.897,-36.5773)">
                <path d="M387.562,560.618C387.562,560.618 264.38,614.413 190.797,614.133C186.293,614.116 182.651,610.445 182.668,605.942C182.685,601.438 186.355,597.796 190.859,597.813C262.009,598.084 381.007,545.672 381.007,545.672C385.131,543.863 389.949,545.743 391.757,549.868C393.566,553.992 391.686,558.809 387.562,560.618Z"/>
            </g>
            <g transform="matrix(-1,0,0,1,939.897,-36.5773)">
                <path d="M382.407,513.499C382.407,513.499 297.315,491.635 237.756,471.453C211.045,462.402 189.364,453.391 181.582,446.924C178.118,444.045 177.643,438.896 180.521,435.433C183.399,431.969 188.548,431.494 192.012,434.372C199.043,440.215 218.862,447.819 242.994,455.996C302.067,476.014 386.467,497.692 386.467,497.692C390.829,498.812 393.461,503.263 392.34,507.626C391.22,511.988 386.769,514.619 382.407,513.499Z"/>
            </g>
            <g transform="matrix(-1,0,0,1,939.897,-36.5773)">
                <path d="M198.933,523.888C199.749,524.062 209.888,526.197 219.545,526.716C271.709,529.52 384.601,521.113 384.601,521.113C389.093,520.779 393.01,524.155 393.343,528.646C393.677,533.137 390.301,537.054 385.81,537.388C385.81,537.388 271.491,545.852 218.669,543.013C208.689,542.476 200.752,541.489 195.856,540.089C192.421,539.106 190.01,537.751 188.54,536.459C185.157,533.486 184.825,528.326 187.798,524.943C190.662,521.684 195.555,521.256 198.933,523.888Z"/>
            </g>
        </g>
    </g>
</svg>
