<svg width="1080" height="2243" viewBox="0 0 1080 2243" fill="none" xmlns="http://www.w3.org/2000/svg">
<path d="M539.775 2242.29V-0.000335179" stroke="#0000FF" stroke-width="0.113386" stroke-miterlimit="10"/>
<path d="M539.775 2242.29V-0.000335179" stroke="#0000FF" stroke-width="0.113386" stroke-miterlimit="10"/>
<path d="M539.726 27.0098L530.085 27.3215L521.23 27.6901L512.204 28.1721L503.108 28.8524L493.909 29.788L484.637 31.0635L474.707 32.9061L451.271 39.5958L428.939 49.5738L408.422 62.273L389.688 77.3248L372.612 94.3611L357.013 113.042L342.692 133.168L329.471 154.484L317.163 176.821L305.612 200.009L294.676 223.82L284.208 248.112L274.099 272.717L264.223 297.407L254.458 322.04L244.721 346.362L234.888 370.229L224.873 393.417L214.6 415.725L203.97 436.957L192.935 456.856L181.432 475.281L169.43 492.006L156.906 506.859L143.847 519.729L130.212 530.5L115.912 539.174L100.755 545.779L83.812 550.428L77.8394 551.448L70.8548 552.327L63.4706 553.008L55.766 553.49L47.7496 553.83L39.4924 554.085L0 554.963" stroke="#5A5A5A" stroke-width="0.113386" stroke-miterlimit="10"/>
<path d="M1079.46 554.963L1039.97 554.085L1031.69 553.83L1023.7 553.49L1015.99 553.008L1008.59 552.327L1001.62 551.448L995.638 550.428L978.715 545.779L963.549 539.174L949.234 530.5L935.608 519.729L922.549 506.859L910.026 492.006L898.024 475.281L886.52 456.856L875.485 436.957L864.855 415.725L854.583 393.417L844.568 370.229L834.734 346.362L824.997 322.04L815.232 297.407L805.356 272.717L795.248 248.112L784.779 223.82L773.843 200.009L762.292 176.821L749.984 154.484L736.763 133.168L722.442 113.042L706.843 94.3611L689.768 77.3248L671.033 62.3014L650.516 49.5738L628.188 39.5958L604.748 32.9061L594.818 31.0635L585.546 29.788L576.347 28.8524L567.251 28.1721L558.225 27.6901L549.37 27.3215L539.727 27.0098" stroke="#5A5A5A" stroke-width="0.113386" stroke-miterlimit="10"/>
<path d="M434 2202H649" stroke="#5A5A5A" stroke-width="0.113386" stroke-miterlimit="10"/>
<path d="M539.73 55.3896C519.615 56.0133 499.532 56.6652 481.191 60.5345C380.108 81.8315 332.976 200.82 285.9 319.666C249.293 412.083 212.72 504.414 150.838 550.657C237.427 642.33 296.482 798.597 325.22 954.694C354.011 1111.07 352.404 1267.43 317.467 1358.68C298.504 1408.21 292.876 1475.75 296.453 1551.27C300.029 1626.78 312.805 1710.22 330.614 1791.52C365.656 1951.48 420.162 2103.04 462.337 2169.5H620.164C662.339 2103.04 716.845 1951.48 751.887 1791.52C769.695 1710.22 782.471 1626.78 786.048 1551.27C789.625 1475.75 783.997 1408.21 765.034 1358.68C730.097 1267.43 728.49 1111.07 757.281 954.694C785.881 799.349 844.505 643.836 930.413 551.987C867.441 506.203 830.517 412.982 793.558 319.673C746.483 200.824 699.351 81.8319 598.265 60.5345C579.925 56.6652 559.842 56.0133 539.73 55.3896Z" fill="white" stroke="white" stroke-width="0.255119" stroke-miterlimit="10"/>
</svg>
