<svg width="1081" height="2243" viewBox="0 0 1081 2243" fill="none" xmlns="http://www.w3.org/2000/svg">
<path fill-rule="evenodd" clip-rule="evenodd" d="M540.729 55.3906C520.615 56.0142 500.531 56.6662 482.191 60.5355C279.703 103.197 293.706 537.862 90.9837 578.143C72.6945 581.771 52.6706 582.168 32.6211 582.622L207 2169.5H871L1048.82 582.622C1028.78 582.168 1008.77 581.771 990.458 578.143C787.749 537.862 801.752 103.197 599.265 60.5355C580.925 56.6662 560.841 56.0142 540.729 55.3906Z" fill="white" stroke="black" stroke-width="0.255119" stroke-miterlimit="10"/>
<path d="M540.775 2242.29V-0.000335179" stroke="#0000FF" stroke-width="0.113386" stroke-miterlimit="10"/>
<path d="M540.775 2242.29V-0.000335179" stroke="#0000FF" stroke-width="0.113386" stroke-miterlimit="10"/>
<path d="M540.726 27.0098L531.085 27.3215L522.23 27.6901L513.204 28.1721L504.108 28.8524L494.909 29.788L485.637 31.0635L475.707 32.9061L452.271 39.5958L429.939 49.5738L409.422 62.273L390.688 77.3248L373.612 94.3611L358.013 113.042L343.692 133.168L330.471 154.484L318.163 176.821L306.612 200.009L295.676 223.82L285.208 248.112L275.099 272.717L265.223 297.407L255.458 322.04L245.721 346.362L235.888 370.229L225.873 393.417L215.6 415.725L204.97 436.957L193.935 456.856L182.432 475.281L170.43 492.006L157.906 506.859L144.847 519.729L131.212 530.5L116.912 539.174L101.755 545.779L84.812 550.428L78.8394 551.448L71.8548 552.327L64.4706 553.008L56.766 553.49L48.7496 553.83L40.4924 554.085L1 554.963" stroke="#5A5A5A" stroke-width="0.113386" stroke-miterlimit="10"/>
<path d="M1080.46 554.963L1040.97 554.085L1032.69 553.83L1024.7 553.49L1016.99 553.008L1009.59 552.327L1002.62 551.448L996.638 550.428L979.715 545.779L964.549 539.174L950.234 530.5L936.608 519.729L923.549 506.859L911.026 492.006L899.024 475.281L887.52 456.856L876.485 436.957L865.855 415.725L855.583 393.417L845.568 370.229L835.734 346.362L825.997 322.04L816.232 297.407L806.356 272.717L796.248 248.112L785.779 223.82L774.843 200.009L763.292 176.821L750.984 154.484L737.763 133.168L723.442 113.042L707.843 94.3611L690.768 77.3248L672.033 62.3014L651.516 49.5738L629.188 39.5958L605.748 32.9061L595.818 31.0635L586.546 29.788L577.347 28.8524L568.251 28.1721L559.225 27.6901L550.37 27.3215L540.727 27.0098" stroke="#5A5A5A" stroke-width="0.113386" stroke-miterlimit="10"/>
<path d="M1.00839 554.971L181.001 2200.5" stroke="#5A5A5A" stroke-width="0.113386" stroke-miterlimit="10"/>
<path d="M894 2204.5L1080.46 554.954" stroke="#5A5A5A" stroke-width="0.113386" stroke-miterlimit="10"/>
<path d="M146 2202H541.162" stroke="#5A5A5A" stroke-width="0.113386" stroke-miterlimit="10"/>
<path d="M498 2202H893.159" stroke="#5A5A5A" stroke-width="0.113386" stroke-miterlimit="10"/>
</svg>
