<svg width="1905" height="3035" viewBox="0 0 1905 3035" fill="none" xmlns="http://www.w3.org/2000/svg">
<path fill-rule="evenodd" clip-rule="evenodd" d="M639.392 2992.86C655.096 2955.7 696.095 2834.63 719.424 2802.91C740.854 2773.75 768.69 2749.2 796.186 2724.68C833.263 2691.6 869.631 2658.72 908.891 2629.06C921.76 2619.37 934.913 2610.04 948.066 2600.72C961.275 2609.99 974.457 2619.26 987.354 2628.89C1026.76 2658.38 1063.24 2691.12 1100.46 2724.03C1128.07 2748.4 1156.01 2772.87 1177.59 2801.92C1201.06 2833.56 1247.1 2955.78 1263 2992.86L1870.27 2846.39C1854.11 2774.9 1807.78 2618.35 1791.17 2546.97C1788.99 2537.53 1786.78 2528.09 1784.57 2518.66C1782.36 2509.22 1780.12 2499.78 1777.88 2490.31C1775.64 2480.87 1773.4 2471.43 1771.13 2461.99C1768.87 2452.58 1766.6 2443.17 1764.3 2433.76C1762.01 2424.32 1759.71 2414.88 1757.38 2405.44C1751.57 2381.91 1745.68 2358.44 1739.7 2335C1733.69 2311.53 1727.59 2288.11 1721.36 2264.7C1718.86 2255.34 1716.37 2245.99 1713.84 2236.64C1711.32 2227.25 1708.77 2217.9 1706.22 2208.52C1703.67 2199.16 1701.09 2189.84 1698.51 2180.51C1695.93 2171.16 1693.35 2161.83 1690.74 2152.5C1688.11 2143.15 1685.5 2133.79 1682.86 2124.44C1679.55 2112.71 1676.23 2101.03 1672.88 2089.32C1669.54 2077.61 1666.19 2065.93 1662.82 2054.23C1659.45 2042.52 1656.07 2030.84 1652.67 2019.13C1649.3 2007.4 1645.9 1995.72 1642.47 1984.01C1639.07 1972.28 1635.64 1960.57 1632.24 1948.86C1628.81 1937.13 1625.38 1925.39 1621.95 1913.66C1610.78 1875.36 1599.75 1837.04 1590.45 1798.26C1581.18 1759.48 1573.64 1720.33 1567.27 1680.93C1560.92 1641.53 1555.73 1601.99 1552.24 1562.27C1548.76 1522.53 1546.97 1482.7 1545.44 1442.85C1542.72 1372.41 1540.76 1302.05 1539.2 1231.61C1537.67 1161.25 1536.51 1090.98 1535.35 1020.62C1534.21 950.323 1533.11 880.137 1531.63 809.866C1531.24 790.732 1530.81 771.598 1530.39 752.436C1387.38 762.669 1359.37 552.168 1457.22 119.033C1420.6 97.4047 1384.06 75.7765 1344.86 60.8662C1309.43 47.3733 1271.92 39.3795 1234.36 31.3574C1227.14 36.7999 1219.94 42.2425 1212.51 47.3165C1156.78 85.3292 1087.84 103.273 1020.15 110.274C994.186 112.967 968.475 114.016 942.737 115.065C916.97 114.129 891.231 113.194 865.294 110.614C797.546 103.896 728.523 86.2364 672.652 48.4788C665.197 43.4331 657.969 38.0189 650.74 32.6047C613.21 40.7968 575.735 48.9323 540.359 62.5953C501.241 77.6757 464.759 99.4458 428.249 121.244C527.972 553.954 500.873 764.568 357.808 754.959C357.468 774.121 357.128 793.255 356.816 812.389C355.654 882.688 354.832 952.874 353.981 1023.14C353.159 1093.53 352.281 1163.81 351.033 1234.16C349.786 1304.6 348.142 1374.96 345.733 1445.43C344.344 1485.28 342.756 1525.11 339.439 1564.88C336.123 1604.62 331.106 1644.17 324.898 1683.6C318.69 1723.03 311.348 1762.2 302.221 1801.04C293.093 1839.84 282.236 1878.22 271.238 1916.55C267.865 1928.31 264.492 1940.05 261.119 1951.81C257.717 1963.55 254.372 1975.25 250.999 1986.99C247.654 1998.72 244.28 2010.43 240.936 2022.14C237.591 2033.87 234.274 2045.58 230.958 2057.32C227.641 2069.02 224.325 2080.73 221.037 2092.44C217.749 2104.14 214.488 2115.88 211.229 2127.59C208.621 2136.97 206.041 2146.32 203.462 2155.68C200.911 2165.03 198.359 2174.36 195.808 2183.71C193.257 2193.1 190.734 2202.42 188.24 2211.8C185.717 2221.16 183.222 2230.54 180.728 2239.92C178.233 2249.28 175.767 2258.66 173.329 2268.04C167.207 2291.46 161.197 2314.9 155.301 2338.4C149.405 2361.87 143.622 2385.37 137.925 2408.9C135.629 2418.37 133.361 2427.8 131.093 2437.27C128.854 2446.68 126.643 2456.09 124.403 2465.51C122.192 2474.97 119.981 2484.41 117.77 2493.88C115.588 2503.35 113.405 2512.79 111.223 2522.26C109.04 2531.69 106.885 2541.13 104.731 2550.6C88.4319 2622.03 47.3183 2777.45 31.501 2849L639.392 2992.86Z" fill="white" stroke="black" stroke-width="0.255119" stroke-miterlimit="10"/>
<path d="M345.677 1446.58C344.77 1477.45 343.862 1508.27 341.566 1539.05C340.971 1547.02 340.262 1554.95 339.582 1562.92" stroke="#0000FF" stroke-width="0.113386" stroke-miterlimit="10"/>
<path d="M339.58 1562.87L332.184 1632.92" stroke="#0000FF" stroke-width="0.113386" stroke-miterlimit="10"/>
<path d="M296.026 1826.32L271.565 1915.46" stroke="#0000FF" stroke-width="0.113386" stroke-miterlimit="10"/>
<path d="M271.559 1915.47L271.103 1917.11" stroke="#0000FF" stroke-width="0.113386" stroke-miterlimit="10"/>
<path d="M271.212 1916.67L218.491 2101.6" stroke="#0000FF" stroke-width="0.113386" stroke-miterlimit="10"/>
<path d="M218.48 2101.61L211.995 2124.91" stroke="#0000FF" stroke-width="0.113386" stroke-miterlimit="10"/>
<path d="M211.994 2124.93L210.47 2130.39" stroke="#0000FF" stroke-width="0.113386" stroke-miterlimit="10"/>
<path d="M210.492 2130.32C195.979 2183.23 181.465 2236.07 167.774 2289.2C160.829 2316.2 154.111 2343.22 147.393 2370.28" stroke="#0000FF" stroke-width="0.113386" stroke-miterlimit="10"/>
<path d="M147.432 2370.17L144.733 2381.03" stroke="#0000FF" stroke-width="0.113386" stroke-miterlimit="10"/>
<path d="M144.784 2380.88L142.636 2389.58" stroke="#0000FF" stroke-width="0.113386" stroke-miterlimit="10"/>
<path d="M142.697 2389.33L108.364 2534.75" stroke="#0000FF" stroke-width="0.113386" stroke-miterlimit="10"/>
<path d="M108.495 2534.15L106.6 2542.41" stroke="#0000FF" stroke-width="0.113386" stroke-miterlimit="10"/>
<path d="M107.026 2540.6L104.586 2551.26" stroke="#0000FF" stroke-width="0.113386" stroke-miterlimit="10"/>
<path d="M104.759 2550.54L56.7939 2765.04" stroke="#0000FF" stroke-width="0.113386" stroke-miterlimit="10"/>
<path d="M942.747 267.113L948.076 2598.22" stroke="#0000FF" stroke-width="0.113386" stroke-miterlimit="10"/>
<path d="M948.072 2598.23V2600.72" stroke="#0000FF" stroke-width="0.113386" stroke-miterlimit="10"/>
<path d="M942.737 115.059L948.066 2600.7" stroke="#0000FF" stroke-width="0.113386" stroke-miterlimit="10"/>
<path d="M943.388 267.082L948.065 2598.25" stroke="#0000FF" stroke-width="0.113386" stroke-miterlimit="10"/>
<path d="M948.072 2598.23V2600.72" stroke="#0000FF" stroke-width="0.113386" stroke-miterlimit="10"/>
<path d="M664.659 2908.9L56.7774 2765.04" stroke="#0000FF" stroke-width="0.113386" stroke-miterlimit="10"/>
<path d="M357.808 754.949L356.815 813.93" stroke="#0000FF" stroke-width="0.113386" stroke-miterlimit="10"/>
<path d="M356.817 812.502L345.734 1444.8L345.677 1446.67" stroke="#0000FF" stroke-width="0.113386" stroke-miterlimit="10"/>
<path d="M1545.47 1444C1546.52 1474.87 1547.57 1505.69 1550.01 1536.47C1550.63 1544.44 1551.37 1552.37 1552.08 1560.31" stroke="#0000FF" stroke-width="0.113386" stroke-miterlimit="10"/>
<path d="M1552.09 1560.25L1559.8 1630.3" stroke="#0000FF" stroke-width="0.113386" stroke-miterlimit="10"/>
<path d="M1596.79 1823.53L1621.64 1912.56" stroke="#0000FF" stroke-width="0.113386" stroke-miterlimit="10"/>
<path d="M1621.62 1912.57L1622.08 1914.21" stroke="#0000FF" stroke-width="0.113386" stroke-miterlimit="10"/>
<path d="M1621.97 1913.74L1675.47 2098.49" stroke="#0000FF" stroke-width="0.113386" stroke-miterlimit="10"/>
<path d="M1675.46 2098.46L1682.07 2121.75" stroke="#0000FF" stroke-width="0.113386" stroke-miterlimit="10"/>
<path d="M1682.07 2121.77L1683.63 2127.25" stroke="#0000FF" stroke-width="0.113386" stroke-miterlimit="10"/>
<path d="M1683.6 2127.15C1698.37 2180 1713.08 2232.78 1727 2285.86C1734.06 2312.82 1740.89 2339.81 1747.75 2366.84" stroke="#0000FF" stroke-width="0.113386" stroke-miterlimit="10"/>
<path d="M1747.73 2366.74L1750.45 2377.57" stroke="#0000FF" stroke-width="0.113386" stroke-miterlimit="10"/>
<path d="M1750.39 2377.42L1752.57 2386.14" stroke="#0000FF" stroke-width="0.113386" stroke-miterlimit="10"/>
<path d="M1752.51 2385.87L1787.47 2531.14" stroke="#0000FF" stroke-width="0.113386" stroke-miterlimit="10"/>
<path d="M1787.35 2530.54L1789.28 2538.82" stroke="#0000FF" stroke-width="0.113386" stroke-miterlimit="10"/>
<path d="M1788.86 2537.01L1791.32 2547.64" stroke="#0000FF" stroke-width="0.113386" stroke-miterlimit="10"/>
<path d="M1791.15 2546.95L1840.05 2761.21" stroke="#0000FF" stroke-width="0.113386" stroke-miterlimit="10"/>
<path d="M943.388 267.082L948.065 2598.25" stroke="#0000FF" stroke-width="0.113386" stroke-miterlimit="10"/>
<path d="M948.072 2598.23V2600.72" stroke="#0000FF" stroke-width="0.113386" stroke-miterlimit="10"/>
<path d="M942.737 115.059L948.066 2600.7" stroke="#0000FF" stroke-width="0.113386" stroke-miterlimit="10"/>
<path d="M942.747 267.113L948.076 2598.22" stroke="#0000FF" stroke-width="0.113386" stroke-miterlimit="10"/>
<path d="M948.072 2598.23V2600.72" stroke="#0000FF" stroke-width="0.113386" stroke-miterlimit="10"/>
<path d="M1232.78 2907.68L1840.04 2761.21" stroke="#0000FF" stroke-width="0.113386" stroke-miterlimit="10"/>
<path d="M1530.4 752.443L1531.64 811.391" stroke="#0000FF" stroke-width="0.113386" stroke-miterlimit="10"/>
<path d="M1531.61 809.979L1545.41 1442.22L1545.5 1444.09" stroke="#0000FF" stroke-width="0.113386" stroke-miterlimit="10"/>
<path d="M946.169 1719.7H854.411V1734.33H946.197" stroke="black" stroke-width="0.113386" stroke-miterlimit="10"/>
<path d="M946.169 1719.7L1037.93 1719.31L1037.98 1733.93L946.197 1734.33" stroke="black" stroke-width="0.113386" stroke-miterlimit="10"/>
<path d="M681.44 2942L693.403 2913.78L696.011 2907.63L698.59 2901.61L701.226 2895.51L703.834 2889.56L706.499 2883.67L709.163 2877.83L711.885 2872.07L714.634 2866.39L717.412 2860.8L720.275 2855.31L723.195 2849.9L726.171 2844.59L729.204 2839.39L732.351 2834.29L735.554 2829.33L738.842 2824.45L742.244 2819.7L745.9 2814.87L749.699 2810.1L753.639 2805.38L757.749 2800.69L761.973 2796.04L766.338 2791.42L770.817 2786.83L775.381 2782.28L780.115 2777.69L784.877 2773.16L789.781 2768.61L794.713 2764.09L799.73 2759.54L804.804 2754.99L809.907 2750.41L815.066 2745.82L823.598 2738.19L832.131 2730.59L840.606 2723.04L849.11 2715.52L857.557 2708.08L866.004 2700.72L874.452 2693.43L882.956 2686.21L891.46 2679.1L899.992 2672.08L908.581 2665.18L917.255 2658.38L925.929 2651.75L944.978 2637.73L948.153 2635.48" stroke="#5A5A5A" stroke-width="0.113386" stroke-miterlimit="10"/>
<path d="M1873.89 2782.21L1818.82 2540.61L1812.18 2512.21L1805.46 2483.77L1798.69 2455.37L1791.86 2427.11L1784.91 2398.65L1776.1 2363.24L1767.14 2327.95L1758.04 2292.69L1748.74 2257.4L1741.23 2229.25L1733.58 2201.07L1725.84 2172.95L1718.04 2144.86L1710.14 2116.74L1700.13 2081.51L1690.07 2046.39L1679.92 2011.24L1669.71 1976.09L1659.45 1940.91L1649.16 1905.7L1645 1891.39L1640.89 1877.13L1636.8 1862.84L1632.81 1848.56L1628.95 1834.36L1625.15 1820.1L1621.52 1805.9L1618.04 1791.64L1615.37 1780.24L1612.77 1768.79L1610.3 1757.37L1607.92 1745.89L1605.59 1734.32L1603.38 1722.81L1601.23 1711.22L1599.16 1699.62L1597.2 1688.06L1595.28 1676.38L1593.4 1664.73L1591.65 1653.05L1589.95 1641.43L1588.33 1629.78L1586.8 1618.07L1585.35 1606.48L1583.99 1594.77L1582.72 1583.16L1581.56 1571.45L1580.48 1559.8L1579.26 1545.17L1578.21 1530.49L1577.25 1515.81L1576.43 1501.12L1575.66 1486.24L1574.98 1471.5L1574.36 1456.65L1573.76 1441.74L1572.88 1418.35L1572.06 1394.91L1571.29 1371.52L1570.56 1348.11L1569.25 1301.28L1568.66 1277.84L1568.09 1254.42L1567.55 1230.98L1563.7 1020.11L1559.98 809.241L1558.11 723.578" stroke="#5A5A5A" stroke-width="0.113386" stroke-miterlimit="10"/>
<path d="M1558.11 723.576L1517.1 724.341L1506.95 723.378L1497.85 721.309L1489.6 718.219L1482.03 714.108L1474.92 708.808L1468.17 702.203L1461.71 694.068L1455.58 684.288L1449.89 672.779L1444.7 659.428L1440.11 644.291L1436.17 627.34L1432.96 608.631L1430.5 588.136L1428.82 565.913L1427.97 541.96L1427.95 516.306L1428.77 489.009L1430.44 460.01L1432.96 429.34L1436.36 397.053L1440.64 363.094L1445.8 327.519L1451.84 290.3L1458.76 251.494L1466.58 211.043L1475.28 168.949L1489.32 105.084" stroke="#5A5A5A" stroke-width="0.113386" stroke-miterlimit="10"/>
<path d="M1489.32 105.09L1464.77 90.5768L1457.85 86.4951L1450.91 82.4414L1443.9 78.3597L1436.85 74.3343L1429.76 70.3374L1422.62 66.3691L1415.39 62.4289L1408.1 58.6022L1400.76 54.8319L1393.33 51.1471L1385.85 47.547L1378.25 44.0605L1370.57 40.6871L1362.81 37.4555L1354.93 34.3658L1346.76 31.3609L1338.54 28.5263L1330.32 25.8619L1322.07 23.339L1313.85 20.958L1305.6 18.7185L1297.35 16.5925L1289.13 14.5517L1280.94 12.5956L1272.78 10.725L1264.61 8.88236L1256.45 7.09652L1248.34 5.36742L1227.88 1.00195" stroke="#5A5A5A" stroke-width="0.113386" stroke-miterlimit="10"/>
<path d="M1227.88 1L1196.3 24.0457L1191.28 27.3624L1185.95 30.7355L1180.54 33.967L1175.01 37.1134L1169.43 40.1183L1163.73 43.0381L1157.97 45.816L1152.14 48.4804L1146.18 51.06L1140.23 53.5261L1134.14 55.9072L1128.01 58.1466L1121.83 60.301L1115.57 62.3702L1109.28 64.3263L1102.93 66.1686L1096.52 67.926L1090.06 69.5987L1083.59 71.1576L1077.05 72.6317L1070.5 74.0206L1063.89 75.3244L1057.29 76.5435L1050.65 77.649L1043.96 78.6979L1037.3 79.6615L1030.61 80.5404L1023.92 81.3623L1017.29 82.0709L1004.82 83.2616L992.317 84.1969L979.731 84.9907L967.089 85.6426L954.361 86.2097L942.654 86.7198" stroke="#5A5A5A" stroke-width="0.113386" stroke-miterlimit="10"/>
<path d="M948.153 2635.48L951.271 2637.7L970.434 2651.66L979.136 2658.25L987.81 2665L996.427 2671.87L1005.02 2678.86L1013.58 2685.94L1022.05 2693.1L1030.56 2700.36L1039.06 2707.72L1047.54 2715.11L1056.04 2722.57L1064.57 2730.09L1073.1 2737.66L1081.69 2745.25L1086.85 2749.82L1092.01 2754.37L1097.06 2758.86L1102.13 2763.44L1107.09 2767.94L1111.97 2772.46L1116.79 2776.98L1121.49 2781.51L1126.11 2786.07L1130.62 2790.65L1134.98 2795.24L1139.24 2799.87L1143.35 2804.54L1147.32 2809.25L1151.14 2814L1154.8 2818.81L1158.23 2823.56L1161.55 2828.4L1164.78 2833.37L1167.92 2838.45L1171.01 2843.63L1174.02 2848.94L1176.94 2854.31L1179.83 2859.82L1182.64 2865.39L1185.41 2871.04L1188.16 2876.83L1190.86 2882.62L1193.52 2888.53L1196.16 2894.45L1198.82 2900.53L1201.43 2906.56L1204.07 2912.68L1216.14 2940.85" stroke="#5A5A5A" stroke-width="0.113386" stroke-miterlimit="10"/>
<path d="M329.972 726.215L328.469 811.963L325.635 1022.78L322.687 1233.67L322.205 1260.01L321.666 1286.4L321.099 1312.73L320.476 1339.09L319.796 1365.43L319.058 1391.76L318.265 1418.1L317.386 1444.46L316.876 1459.31L316.309 1474.14L315.685 1488.99L315.005 1503.79L314.211 1518.53L313.332 1533.21L312.34 1547.89L311.178 1562.55L310.158 1574.17L309.024 1585.85L307.805 1597.56L306.501 1609.21L305.112 1620.88L303.638 1632.53L302.079 1644.19L300.407 1655.86L298.706 1667.51L296.892 1679.16L295.021 1690.84L293.093 1702.44L291.081 1714.06L288.983 1725.65L286.829 1737.13L284.561 1748.73L282.208 1760.21L279.77 1771.69L277.247 1783.11L274.639 1794.53L271.21 1808.76L267.61 1823.05L263.896 1837.31L260.098 1851.51L256.158 1865.8L252.161 1880.11L248.107 1894.37L243.997 1908.74L233.849 1943.98L223.758 1979.18L213.694 2014.39L203.688 2049.57L193.767 2084.77L183.902 2120.04L176.135 2148.19L168.454 2176.28L160.857 2204.45L153.317 2232.69L145.89 2260.86L136.79 2296.15L127.805 2331.53L119.017 2366.79L110.372 2402.23L103.54 2430.69L96.8219 2459.01L90.1605 2487.47L83.5843 2515.9L77.0928 2544.3L23.0078 2786.18" stroke="#5A5A5A" stroke-width="0.113386" stroke-miterlimit="10"/>
<path d="M396.105 107.408L410.42 171.245L419.293 213.282L427.286 253.704L434.373 292.511L440.581 329.673L445.882 365.219L450.304 399.179L453.847 431.465L456.511 462.108L458.297 491.078L459.233 518.404L459.318 544.057L458.552 568.01L456.993 590.234L454.612 610.728L451.494 629.465L447.639 646.417L443.104 661.582L437.973 674.933L432.332 686.499L426.238 696.307L419.831 704.442L413.085 711.104L405.998 716.404L398.43 720.571L390.237 723.689L381.138 725.787L370.99 726.808L329.973 726.212" stroke="#5A5A5A" stroke-width="0.113386" stroke-miterlimit="10"/>
<path d="M657.063 2.2168L636.625 6.66705L628.547 8.45289L620.383 10.2671L612.276 12.1097L604.084 14.0371L595.892 16.0215L587.671 18.0908L579.45 20.2735L571.202 22.5694L562.981 24.9788L554.761 27.5017L546.54 30.2232L538.348 33.0862L530.184 36.1475L522.332 39.2655L514.565 42.5254L506.912 45.9269L499.315 49.4418L491.831 53.0703L484.433 56.7838L477.12 60.5821L469.834 64.494L462.635 68.4342L455.491 72.4028L448.405 76.4561L441.403 80.5098L434.458 84.5915L427.485 88.73L420.597 92.8121L396.105 107.411" stroke="#5A5A5A" stroke-width="0.113386" stroke-miterlimit="10"/>
<path d="M942.653 86.7218L930.946 86.2681L918.276 85.7578L905.576 85.1342L893.019 84.4256L880.518 83.5186L868.017 82.4131L861.384 81.7044L854.694 80.939L848.004 80.0885L841.315 79.1531L834.682 78.1327L827.992 77.0272L821.415 75.8365L814.782 74.561L808.206 73.2005L801.686 71.7548L795.195 70.2239L788.732 68.58L782.326 66.8509L775.948 65.0366L769.655 63.1089L763.39 61.0681L757.183 58.9421L751.031 56.7026L744.993 54.3783L738.984 51.9406L733.031 49.3893L727.192 46.7533L721.409 43.975L715.712 41.084L710.099 38.1075L704.571 35.0178L699.129 31.7863L693.771 28.4412L688.754 25.1249L657.062 2.2207" stroke="#5A5A5A" stroke-width="0.113386" stroke-miterlimit="10"/>
<path d="M1247 3034.65L1904.77 2876" stroke="#5A5A5A" stroke-width="0.113386" stroke-miterlimit="10"/>
<path d="M1 2864L659.445 3019.82" stroke="#5A5A5A" stroke-width="0.113386" stroke-miterlimit="10"/>
</svg>
