<svg width="2259" height="4298" viewBox="0 0 2259 4298" fill="none" xmlns="http://www.w3.org/2000/svg">
<path fill-rule="evenodd" clip-rule="evenodd" d="M1126.04 2600.72C1112.89 2610.07 1099.73 2619.4 1086.89 2629.09C1047.6 2658.72 1011.26 2691.63 974.187 2724.68C946.691 2749.2 918.855 2773.75 897.397 2802.91C874.067 2834.66 858.392 2871.77 842.659 2908.9L412.473 4263.58L32.7432 4173.72L234.769 2765.04C250.614 2693.5 266.404 2622.06 282.703 2550.6C284.857 2541.16 287.04 2531.72 289.194 2522.28C291.377 2512.82 293.559 2503.35 295.77 2493.91C297.953 2484.44 300.164 2475 302.403 2465.53C304.614 2456.12 306.854 2446.71 309.093 2437.3C311.333 2427.83 313.6 2418.37 315.896 2408.93C321.594 2385.38 327.377 2361.9 333.301 2338.4C339.197 2314.91 345.207 2291.48 351.301 2268.05C353.767 2258.67 356.233 2249.3 358.7 2239.93C361.194 2230.55 363.689 2221.18 366.211 2211.81C368.734 2202.44 371.257 2193.09 373.808 2183.74C376.331 2174.39 378.882 2165.05 381.462 2155.7C384.041 2146.33 386.621 2136.98 389.229 2127.61C392.489 2115.88 395.748 2104.17 399.037 2092.45C402.325 2080.73 405.613 2069.04 408.929 2057.33C412.274 2045.6 415.591 2033.89 418.936 2022.16C422.281 2010.44 425.626 1998.73 428.999 1987.01C432.344 1975.26 435.717 1963.55 439.09 1951.81C442.463 1940.06 445.865 1928.33 449.238 1916.57C460.237 1878.22 471.093 1839.87 480.193 1801.03C489.32 1762.2 496.69 1723.02 502.898 1683.59C509.078 1644.16 514.095 1604.62 517.412 1564.88C520.728 1525.14 522.344 1485.31 523.705 1445.43C526.143 1374.96 527.758 1304.63 529.034 1234.16C530.281 1163.8 531.131 1093.53 531.982 1023.18C532.804 952.878 533.626 882.692 534.788 812.392C535.128 793.258 535.468 774.125 535.808 754.991C678.845 764.6 705.944 553.957 606.221 121.276C642.76 99.478 679.213 77.7079 718.36 62.5992C753.736 48.9645 791.211 40.8007 828.713 32.6369C835.941 38.0227 843.17 43.4369 850.653 48.4826C906.524 86.2401 975.548 103.928 1043.27 110.618C1069.23 113.198 1094.94 114.133 1120.71 115.097C1146.48 114.02 1172.19 112.971 1198.12 110.306C1265.84 103.305 1334.78 85.3331 1390.48 47.3204C1397.94 42.2464 1405.14 36.8039 1412.34 31.3613C1449.9 39.3834 1487.4 47.3771 1522.83 60.87C1562.04 75.8086 1598.6 97.4087 1635.23 119.065C1537.35 552.172 1565.35 762.673 1708.36 752.468C1708.79 771.602 1709.21 790.736 1709.61 809.87C1711.08 880.169 1712.22 950.355 1713.35 1020.63C1714.48 1091.01 1715.65 1161.25 1717.21 1231.61C1718.76 1302.08 1720.69 1372.41 1723.41 1442.85C1724.97 1482.73 1726.73 1522.53 1730.22 1562.27C1733.7 1602.01 1738.89 1641.53 1745.27 1680.93C1751.65 1720.33 1759.16 1759.48 1768.46 1798.26C1777.75 1837.06 1788.75 1875.36 1799.92 1913.67C1803.35 1925.41 1806.78 1937.13 1810.21 1948.87C1813.64 1960.59 1817.04 1972.29 1820.47 1984.02C1823.87 1995.73 1827.28 2007.42 1830.68 2019.13C1834.08 2030.84 1837.45 2042.54 1840.82 2054.25C1844.2 2065.95 1847.54 2077.63 1850.89 2089.33C1854.2 2101.04 1857.55 2112.73 1860.84 2124.45C1863.47 2133.81 1866.11 2143.15 1868.72 2152.51C1871.33 2161.84 1873.93 2171.17 1876.51 2180.51C1879.09 2189.86 1881.64 2199.19 1884.22 2208.55C1886.77 2217.91 1889.3 2227.27 1891.85 2236.64C1894.37 2246 1896.87 2255.35 1899.36 2264.72C1905.57 2288.13 1911.66 2311.54 1917.67 2335C1923.68 2358.47 1929.58 2381.93 1935.36 2405.44C1937.68 2414.88 1940.01 2424.32 1942.31 2433.79C1944.6 2443.2 1946.87 2452.58 1949.11 2461.99C1951.38 2471.46 1953.64 2480.87 1955.88 2490.34C1958.12 2499.78 1960.33 2509.22 1962.54 2518.68C1964.78 2528.12 1966.97 2537.53 1969.18 2547C1985.79 2618.35 2001.89 2689.76 2018.02 2761.22L2226.11 4169.02L1846.75 4260.49L1410.75 2907.68C1394.88 2870.61 1379.03 2833.59 1355.56 2801.92C1333.99 2772.87 1306.07 2748.43 1278.46 2724.03C1241.24 2691.12 1204.76 2658.38 1165.33 2628.92C1152.43 2619.29 1139.25 2610.02 1126.04 2600.72Z" fill="white" stroke="black" stroke-width="0.255119" stroke-miterlimit="10"/>
<path d="M535.808 754.988L534.816 812.531L523.732 1444.8L523.676 1446.67" stroke="#0000FF" stroke-width="0.113386" stroke-miterlimit="10"/>
<path d="M523.677 1446.59C522.77 1477.46 521.834 1508.3 519.538 1539.08C518.942 1547.02 518.262 1554.93 517.582 1562.86" stroke="#0000FF" stroke-width="0.113386" stroke-miterlimit="10"/>
<path d="M517.562 1562.87L510.138 1632.94" stroke="#0000FF" stroke-width="0.113386" stroke-miterlimit="10"/>
<path d="M474 1826.32L449.541 1915.47" stroke="#0000FF" stroke-width="0.113386" stroke-miterlimit="10"/>
<path d="M449.559 1915.46L449.07 1917.12" stroke="#0000FF" stroke-width="0.113386" stroke-miterlimit="10"/>
<path d="M449.203 1916.67L396.483 2101.61" stroke="#0000FF" stroke-width="0.113386" stroke-miterlimit="10"/>
<path d="M396.48 2101.63L389.995 2124.92" stroke="#0000FF" stroke-width="0.113386" stroke-miterlimit="10"/>
<path d="M389.988 2124.94L388.464 2130.4" stroke="#0000FF" stroke-width="0.113386" stroke-miterlimit="10"/>
<path d="M388.491 2130.34C373.949 2183.25 359.436 2236.09 345.773 2289.22C338.828 2316.22 332.11 2343.24 325.363 2370.3" stroke="#0000FF" stroke-width="0.113386" stroke-miterlimit="10"/>
<path d="M325.398 2370.18L322.733 2381.03" stroke="#0000FF" stroke-width="0.113386" stroke-miterlimit="10"/>
<path d="M322.758 2380.88L320.63 2389.61" stroke="#0000FF" stroke-width="0.113386" stroke-miterlimit="10"/>
<path d="M320.633 2389.6L286.478 2534.19" stroke="#0000FF" stroke-width="0.113386" stroke-miterlimit="10"/>
<path d="M286.473 2534.16L284.577 2542.42" stroke="#0000FF" stroke-width="0.113386" stroke-miterlimit="10"/>
<path d="M284.781 2541.58L282.593 2551.29" stroke="#0000FF" stroke-width="0.113386" stroke-miterlimit="10"/>
<path d="M282.732 2550.56L234.767 2765.06" stroke="#0000FF" stroke-width="0.113386" stroke-miterlimit="10"/>
<path d="M1120.7 267.113L1126.03 2598.26" stroke="#0000FF" stroke-width="0.113386" stroke-miterlimit="10"/>
<path d="M1126.05 2598.24V2600.74" stroke="#0000FF" stroke-width="0.113386" stroke-miterlimit="10"/>
<path d="M1120.7 115.09L1126.03 2600.72" stroke="#0000FF" stroke-width="0.113386" stroke-miterlimit="10"/>
<path d="M1121.34 267.111L1126.02 2598.24" stroke="#0000FF" stroke-width="0.113386" stroke-miterlimit="10"/>
<path d="M1126.05 2598.24V2600.74" stroke="#0000FF" stroke-width="0.113386" stroke-miterlimit="10"/>
<path d="M1708.36 752.465L1709.61 810.008L1723.42 1442.25L1723.47 1444.09" stroke="#0000FF" stroke-width="0.113386" stroke-miterlimit="10"/>
<path d="M1723.47 1444.01C1724.52 1474.88 1725.57 1505.72 1728.01 1536.47C1728.63 1544.41 1729.34 1552.32 1730.08 1560.25" stroke="#0000FF" stroke-width="0.113386" stroke-miterlimit="10"/>
<path d="M1730.07 1560.23L1737.78 1630.34" stroke="#0000FF" stroke-width="0.113386" stroke-miterlimit="10"/>
<path d="M1774.75 1823.49L1799.61 1912.58" stroke="#0000FF" stroke-width="0.113386" stroke-miterlimit="10"/>
<path d="M1799.61 1912.59L1800.09 1914.19" stroke="#0000FF" stroke-width="0.113386" stroke-miterlimit="10"/>
<path d="M1799.96 1913.78L1853.47 2098.48" stroke="#0000FF" stroke-width="0.113386" stroke-miterlimit="10"/>
<path d="M1853.46 2098.47L1860.07 2121.79" stroke="#0000FF" stroke-width="0.113386" stroke-miterlimit="10"/>
<path d="M1860.08 2121.79L1861.61 2127.25" stroke="#0000FF" stroke-width="0.113386" stroke-miterlimit="10"/>
<path d="M1861.6 2127.16C1876.34 2180.02 1891.08 2232.79 1904.97 2285.87C1912.06 2312.84 1918.89 2339.83 1925.72 2366.85" stroke="#0000FF" stroke-width="0.113386" stroke-miterlimit="10"/>
<path d="M1925.7 2366.74L1928.45 2377.59" stroke="#0000FF" stroke-width="0.113386" stroke-miterlimit="10"/>
<path d="M1928.39 2377.43L1930.57 2386.15" stroke="#0000FF" stroke-width="0.113386" stroke-miterlimit="10"/>
<path d="M1930.58 2386.16L1965.36 2530.59" stroke="#0000FF" stroke-width="0.113386" stroke-miterlimit="10"/>
<path d="M1965.33 2530.55L1967.26 2538.83" stroke="#0000FF" stroke-width="0.113386" stroke-miterlimit="10"/>
<path d="M1967.06 2537.98L1969.3 2547.67" stroke="#0000FF" stroke-width="0.113386" stroke-miterlimit="10"/>
<path d="M1969.15 2546.94L2018.03 2761.24" stroke="#0000FF" stroke-width="0.113386" stroke-miterlimit="10"/>
<path d="M1121.34 267.111L1126.02 2598.24" stroke="#0000FF" stroke-width="0.113386" stroke-miterlimit="10"/>
<path d="M1126.05 2598.24V2600.74" stroke="#0000FF" stroke-width="0.113386" stroke-miterlimit="10"/>
<path d="M1120.7 115.09L1126.03 2600.72" stroke="#0000FF" stroke-width="0.113386" stroke-miterlimit="10"/>
<path d="M1120.7 267.113L1126.03 2598.26" stroke="#0000FF" stroke-width="0.113386" stroke-miterlimit="10"/>
<path d="M1126.05 2598.24V2600.74" stroke="#0000FF" stroke-width="0.113386" stroke-miterlimit="10"/>
<path d="M842.629 2908.91L234.747 2765.05" stroke="#0000FF" stroke-width="0.113386" stroke-miterlimit="10"/>
<path d="M1410.75 2907.7L2018.01 2761.23" stroke="#0000FF" stroke-width="0.113386" stroke-miterlimit="10"/>
<path d="M1124.17 1719.71H1032.41V1734.36H1124.2" stroke="#8C3333" stroke-width="0.113386" stroke-miterlimit="10"/>
<path d="M1124.17 1719.71L1215.93 1719.31L1215.98 1733.96L1124.2 1734.36" stroke="#8C3333" stroke-width="0.113386" stroke-miterlimit="10"/>
<path d="M1126.12 2635.49L1122.98 2637.73L1103.9 2651.76L1095.23 2658.39L1086.58 2665.19L1077.99 2672.09L1069.46 2679.1L1060.93 2686.23L1052.45 2693.44L1043.98 2700.73L1035.53 2708.11L1027.05 2715.55L1018.58 2723.05L1010.1 2730.6L1001.6 2738.2L993.038 2745.83L987.907 2750.43L982.777 2755L977.703 2759.54L972.685 2764.1L967.753 2768.63L962.878 2773.17L958.087 2777.71L953.382 2782.28L948.818 2786.84L944.339 2791.43L939.974 2796.05L935.75 2800.7L931.64 2805.39L927.699 2810.12L923.901 2814.88L920.244 2819.71L916.843 2824.47L913.555 2829.33L910.323 2834.3L907.205 2839.4L904.144 2844.6L901.167 2849.9L898.248 2855.32L895.413 2860.8L892.606 2866.42L889.857 2872.08L887.164 2877.83L884.471 2883.68L881.835 2889.59L879.227 2895.53L876.563 2901.62L873.983 2907.66L871.375 2913.79L869.277 2918.75" stroke="#5A5A5A" stroke-width="0.113386" stroke-miterlimit="10"/>
<path d="M574.076 107.441L598.568 92.814L605.456 88.7323L619.402 80.5118L626.376 76.4868L633.491 72.4331L640.634 68.4361L647.834 64.4675L655.062 60.6125L662.432 56.7858L669.831 53.0725L677.314 49.4441L684.883 45.9292L692.536 42.5558L700.332 39.2678L708.155 36.1494L716.319 33.0881L724.54 30.2251L732.76 27.5323L740.98 24.9811L749.173 22.5717L757.421 20.2755L765.67 18.1211L773.834 16.0519L782.026 14.0677L790.275 12.14L798.354 10.2974L806.517 8.45519L814.597 6.69772L835.063 2.21875" stroke="#5A5A5A" stroke-width="0.113386" stroke-miterlimit="10"/>
<path d="M835.062 2.2207L866.754 25.1529L871.771 28.4412L877.129 31.7859L882.543 35.0175L888.099 38.1355L893.711 41.112L899.409 43.975L905.163 46.7529L911.059 49.4173L916.956 51.9402L922.965 54.4064L929.06 56.731L935.182 58.9705L941.39 61.0964L947.626 63.1089L953.948 65.0363L960.326 66.8789L966.732 68.608L973.195 70.2239L979.686 71.7828L986.206 73.2285L992.782 74.5891L999.387 75.8649L1005.99 77.0272L1012.65 78.1324L1019.31 79.1531L1025.98 80.0885L1032.69 80.939L1039.36 81.7041L1046.02 82.4127L1058.52 83.5183L1070.99 84.4256L1083.55 85.1626L1096.22 85.7578L1108.95 86.2962L1120.65 86.7214" stroke="#5A5A5A" stroke-width="0.113386" stroke-miterlimit="10"/>
<path d="M206.877 2759.94L255.066 2544.31L261.585 2515.94L268.162 2487.5L274.795 2459.04L281.513 2430.73L288.345 2402.27L296.99 2366.86L305.806 2331.46L314.764 2296.16L323.891 2260.9L331.318 2232.64L338.83 2204.49L346.455 2176.29L354.137 2148.2L361.904 2119.99L371.74 2084.79L381.661 2049.58L391.668 2014.4L401.731 1979.19L411.85 1943.99L421.97 1908.75L426.08 1894.41L430.134 1880.12L434.159 1865.84L438.071 1851.55L441.898 1837.29L445.611 1823.03L449.183 1808.8L452.613 1794.55L455.249 1783.15L457.772 1771.7L460.21 1760.22L462.534 1748.74L464.802 1737.2L466.984 1725.64L469.054 1714.1L471.095 1702.45L473.022 1690.88L474.893 1679.2L476.679 1667.52L478.408 1655.87L480.052 1644.2L481.611 1632.57L483.113 1620.89L484.502 1609.22L485.807 1597.57L487.025 1585.85L488.159 1574.17L489.18 1562.55L490.314 1547.9L491.334 1533.21L492.213 1518.53L492.978 1503.79L493.687 1489.02L494.311 1474.14L494.849 1459.37L495.387 1444.46L496.153 1421.02L496.89 1397.63L497.542 1374.22L498.166 1350.8L498.761 1327.39L499.299 1303.98L499.781 1280.53L500.235 1257.09L500.688 1233.7L503.636 1022.78L506.443 811.965L507.945 726.217" stroke="#5A5A5A" stroke-width="0.113386" stroke-miterlimit="10"/>
<path d="M1384.19 2917.65L1382.07 2912.68L1379.43 2906.58L1376.82 2900.53L1374.16 2894.49L1371.49 2888.52L1368.86 2882.65L1366.13 2876.81L1363.41 2871.07L1360.64 2865.41L1357.8 2859.81L1354.94 2854.34L1351.99 2848.94L1348.99 2843.65L1345.92 2838.46L1342.78 2833.38L1339.55 2828.41L1336.23 2823.57L1332.8 2818.83L1329.11 2814.01L1325.32 2809.27L1321.35 2804.56L1317.21 2799.88L1312.99 2795.25L1308.59 2790.66L1304.11 2786.08L1299.49 2781.52L1294.79 2776.99L1289.97 2772.47L1285.09 2767.96L1280.08 2763.42L1275.09 2758.93L1269.98 2754.38L1264.85 2749.83L1259.67 2745.26L1251.1 2737.67L1242.54 2730.1L1234.04 2722.59L1225.51 2715.09L1217.03 2707.72L1208.56 2700.38L1200.05 2693.12L1191.55 2685.95L1182.99 2678.86L1174.43 2671.89L1165.78 2665.02L1157.11 2658.26L1148.43 2651.67L1129.27 2637.72L1126.12 2635.49" stroke="#5A5A5A" stroke-width="0.113386" stroke-miterlimit="10"/>
<path d="M1405.88 1.00195L1426.31 5.36708L1434.45 7.12455L1442.56 8.88202L1450.78 10.7246L1458.94 12.5956L1467.13 14.5513L1475.35 16.5925L1483.6 18.7185L1491.85 20.986L1500.07 23.3387L1508.29 25.8615L1516.51 28.5263L1524.73 31.3609L1532.92 34.3655L1540.78 37.4555L1548.57 40.7151L1556.22 44.0601L1563.82 47.5467L1571.33 51.1467L1578.76 54.8319L1586.07 58.6019L1593.39 62.457L1600.62 66.3688L1607.73 70.3374L1614.85 74.3343L1621.93 78.4161L1628.85 82.413L1635.85 86.5231L1642.74 90.5768L1667.31 105.09" stroke="#5A5A5A" stroke-width="0.113386" stroke-miterlimit="10"/>
<path d="M1120.65 86.7198L1132.36 86.2378L1145.06 85.671L1157.73 84.9907L1170.32 84.2253L1182.76 83.2616L1195.29 82.0993L1201.92 81.3623L1208.61 80.5685L1215.3 79.6899L1221.93 78.7259L1228.62 77.6771L1235.26 76.5431L1241.89 75.3244L1248.47 74.0206L1255.04 72.6317L1261.56 71.1576L1268.03 69.5984L1274.49 67.926L1280.92 66.1686L1287.24 64.326L1293.57 62.3699L1299.8 60.329L1306.01 58.1747L1312.1 55.9072L1318.2 53.5542L1324.18 51.088L1330.1 48.5088L1335.97 45.8156L1341.7 43.0377L1347.42 40.118L1353.01 37.1134L1358.51 33.9954L1363.95 30.7355L1369.28 27.3904L1374.3 24.0457L1405.87 1" stroke="#5A5A5A" stroke-width="0.113386" stroke-miterlimit="10"/>
<path d="M1736.09 723.58L1737.96 809.271L1741.7 1020.11L1745.55 1230.98L1746.63 1277.87L1747.88 1324.7L1748.56 1348.11L1749.3 1371.52L1750.06 1394.94L1750.88 1418.35L1751.76 1441.77L1752.33 1456.65L1752.95 1471.5L1753.63 1486.27L1754.4 1501.12L1755.25 1515.81L1756.18 1530.49L1757.26 1545.17L1758.48 1559.8L1759.56 1571.48L1760.72 1583.16L1761.99 1594.81L1763.36 1606.49L1764.77 1618.11L1766.33 1629.82L1767.95 1641.44L1769.62 1653.06L1771.41 1664.74L1773.25 1676.42L1775.18 1688.07L1777.16 1699.64L1779.23 1711.26L1781.36 1722.79L1783.59 1734.39L1785.89 1745.87L1788.3 1757.38L1790.77 1768.83L1793.35 1780.25L1796.01 1791.65L1799.5 1805.88L1803.15 1820.14L1806.92 1834.34L1810.81 1848.62L1814.8 1862.85L1818.86 1877.14L1823 1891.43L1827.13 1905.74L1837.42 1940.92L1847.69 1976.1L1857.89 2011.25L1868.07 2046.43L1878.13 2081.52L1888.14 2116.75L1896.02 2144.87L1903.84 2172.96L1911.55 2201.08L1919.2 2229.23L1926.74 2257.44L1936.04 2292.7L1945.14 2327.96L1954.1 2363.31L1962.89 2398.66L1969.86 2427.12L1976.69 2455.41L1983.44 2483.78L1990.16 2512.22L1996.79 2540.62L2045.91 2756" stroke="#5A5A5A" stroke-width="0.113386" stroke-miterlimit="10"/>
<path d="M507.945 726.213L548.963 726.809L559.111 725.788L568.21 723.69L576.431 720.572L583.97 716.434L591.057 711.104L597.804 704.471L604.238 696.308L610.304 686.5L615.974 674.963L621.105 661.583L625.612 646.446L629.467 629.467L632.613 610.73L634.966 590.235L636.553 568.011L637.29 544.059L637.205 518.405L636.27 491.079L634.484 462.109L631.819 431.467L628.276 399.18L623.854 365.249L618.553 329.703L612.374 292.512L605.287 253.705L597.294 213.283L588.393 171.274L574.078 107.438" stroke="#5A5A5A" stroke-width="0.113386" stroke-miterlimit="10"/>
<path d="M1667.32 105.084L1653.26 168.977L1644.55 211.043L1636.73 251.522L1629.81 290.3L1623.78 327.547L1618.64 363.122L1614.36 397.053L1610.96 429.368L1608.44 460.011L1606.77 489.009L1605.95 516.335L1605.97 541.989L1606.82 565.913L1608.5 588.137L1610.93 608.631L1614.17 627.368L1618.08 644.291L1622.67 659.428L1627.86 672.779L1633.55 684.316L1639.68 694.096L1646.14 702.203L1652.92 708.836L1660.03 714.108L1667.6 718.247L1675.82 721.309L1684.92 723.378L1695.07 724.342L1736.08 723.576" stroke="#5A5A5A" stroke-width="0.113386" stroke-miterlimit="10"/>
<path d="M431.578 4297.22L1.02871 4195.34" stroke="#5A5A5A" stroke-width="0.113386" stroke-miterlimit="10"/>
<path d="M2257.97 4190.49L1827.9 4294.22" stroke="#5A5A5A" stroke-width="0.113386" stroke-miterlimit="10"/>
<path d="M869.277 2918.75L431.552 4297.21" stroke="#5A5A5A" stroke-width="0.113386" stroke-miterlimit="10"/>
<path d="M1827.85 4294.23L1384.19 2917.64" stroke="#5A5A5A" stroke-width="0.113386" stroke-miterlimit="10"/>
<path d="M1 4195.33L206.87 2759.95" stroke="#5A5A5A" stroke-width="0.113386" stroke-miterlimit="10"/>
<path d="M2045.91 2755.98L2257.95 4190.49" stroke="#5A5A5A" stroke-width="0.113386" stroke-miterlimit="10"/>
</svg>
