<svg width="1229" height="938" viewBox="0 0 1229 938" fill="none" xmlns="http://www.w3.org/2000/svg">
<path d="M118.241 714.448C176.282 634.466 171.036 436.973 98.2754 121.276L98.5726 121.099C135.012 99.3599 171.374 77.6669 210.414 62.5992C245.79 48.9645 283.265 40.8007 320.767 32.6369L321.812 33.4159C328.693 38.5439 335.584 43.6801 342.707 48.4826C398.578 86.2401 467.602 103.928 535.322 110.618C560.877 113.157 586.185 114.103 611.543 115.051L612.764 115.097L613.996 115.045C639.351 113.986 664.655 112.928 690.179 110.306C757.898 103.305 826.837 85.3331 882.538 47.3204C889.993 42.2464 897.193 36.8039 904.393 31.3613L904.7 31.4269C942.157 39.427 979.551 47.4139 1014.89 60.87C1054.09 75.8086 1090.66 97.4087 1127.28 119.065C1055.66 435.976 1051.44 633.702 1110.36 712.988C1092.23 705.727 1065.56 699.296 1037.14 700.693C1004.84 702.281 970.273 713.983 943.472 746.092C910.114 786.056 867.474 832.874 822.616 870.072C777.738 907.286 730.729 934.796 688.626 936.288C654.804 937.487 636.985 937.612 627.435 937.437C622.66 937.35 619.956 937.188 618.355 937.049C617.556 936.979 617.03 936.915 616.654 936.868L616.569 936.858L616.568 936.857C616.475 936.846 616.389 936.835 616.308 936.826V936.788C616.279 936.788 616.251 936.788 616.221 936.789C616.168 936.791 616.112 936.795 616.054 936.799C615.963 936.792 615.879 936.788 615.798 936.788V936.826C615.717 936.835 615.63 936.846 615.537 936.858L615.452 936.868C615.077 936.915 614.55 936.979 613.751 937.049C612.15 937.188 609.446 937.35 604.671 937.437C595.121 937.612 577.302 937.487 543.481 936.288C501.377 934.796 454.368 907.286 409.49 870.072C364.633 832.874 321.992 786.057 288.635 746.093C261.833 713.983 227.262 702.281 194.965 700.693C164.655 699.203 136.328 706.619 118.241 714.448Z" fill="white" stroke="white" stroke-width="0.255119" stroke-miterlimit="10"/>
<path d="M66.1309 107.441L90.6223 92.814L97.5106 88.7323L111.457 80.5118L118.43 76.4868L125.545 72.4331L132.689 68.4361L139.889 64.4675L147.117 60.6125L154.487 56.7858L161.885 53.0725L169.369 49.4441L176.938 45.9292L184.591 42.5558L192.386 39.2678L200.21 36.1494L208.374 33.0881L216.594 30.2251L224.815 27.5323L233.035 24.9811L241.227 22.5717L249.476 20.2755L257.725 18.1211L265.889 16.0519L274.081 14.0677L282.33 12.14L290.408 10.2974L298.572 8.45519L306.651 6.69772L327.117 2.21875" stroke="#5A5A5A" stroke-width="0.113386" stroke-miterlimit="10"/>
<path d="M327.117 2.2207L358.808 25.1529L363.826 28.4412L369.183 31.7859L374.598 35.0175L380.153 38.1355L385.766 41.112L391.464 43.975L397.218 46.7529L403.114 49.4173L409.01 51.9402L415.02 54.4064L421.114 56.731L427.237 58.9705L433.445 61.0964L439.681 63.1089L446.002 65.0363L452.38 66.8789L458.787 68.608L465.25 70.2239L471.741 71.7828L478.261 73.2285L484.837 74.5891L491.442 75.8649L498.046 77.0272L504.708 78.1324L511.369 79.1531L518.031 80.0885L524.749 80.939L531.41 81.7041L538.072 82.4127L550.573 83.5183L563.045 84.4256L575.603 85.1626L588.273 85.7578L601.001 86.2962L612.708 86.7214" stroke="#5A5A5A" stroke-width="0.113386" stroke-miterlimit="10"/>
<path d="M897.93 1.00195L918.367 5.36708L926.503 7.12455L934.61 8.88202L942.83 10.7246L950.994 12.5956L959.186 14.5513L967.407 16.5925L975.656 18.7185L983.904 20.986L992.125 23.3387L1000.35 25.8615L1008.57 28.5263L1016.79 31.3609L1024.98 34.3655L1032.83 37.4555L1040.63 40.7151L1048.28 44.0601L1055.88 47.5467L1063.39 51.1467L1070.81 54.8319L1078.13 58.6019L1085.44 62.457L1092.67 66.3688L1099.79 70.3374L1106.9 74.3343L1113.99 78.4161L1120.9 82.413L1127.9 86.5231L1134.79 90.5768L1159.37 105.09" stroke="#5A5A5A" stroke-width="0.113386" stroke-miterlimit="10"/>
<path d="M612.707 86.7198L624.414 86.2378L637.113 85.671L649.784 84.9907L662.37 84.2253L674.814 83.2616L687.343 82.0993L693.976 81.3623L700.666 80.5685L707.356 79.6899L713.989 78.7259L720.679 77.6771L727.312 76.5431L733.945 75.3244L740.521 74.0206L747.098 72.6317L753.617 71.1576L760.08 69.5984L766.544 67.926L772.978 66.1686L779.299 64.326L785.621 62.3699L791.857 60.329L798.065 58.1747L804.159 55.9072L810.254 53.5542L816.235 51.088L822.159 48.5088L828.027 45.8156L833.753 43.0377L839.479 40.118L845.063 37.1134L850.563 33.9954L856.005 30.7355L861.334 27.3904L866.351 24.0457L897.93 1" stroke="#5A5A5A" stroke-width="0.113386" stroke-miterlimit="10"/>
<path d="M0 726.213L41.0173 726.809L51.1656 725.788L60.2647 723.69L68.4852 720.572L76.0252 716.434L83.1118 711.104L89.8583 704.471L96.293 696.308L102.359 686.5L108.028 674.963L113.159 661.583L117.666 646.446L121.521 629.467L124.668 610.73L127.021 590.235L128.608 568.011L129.345 544.059L129.26 518.405L128.325 491.079L126.539 462.109L123.874 431.467L120.331 399.18L115.909 365.249L110.608 329.703L104.428 292.512L97.3418 253.705L89.3482 213.283L80.4474 171.274L66.1323 107.438" stroke="#5A5A5A" stroke-width="0.113386" stroke-miterlimit="10"/>
<path d="M1159.37 105.084L1145.31 168.977L1136.61 211.043L1128.78 251.522L1121.87 290.3L1115.83 327.547L1110.7 363.122L1106.42 397.053L1103.02 429.368L1100.49 460.011L1098.82 489.009L1098 516.335L1098.03 541.989L1098.88 565.913L1100.55 588.137L1102.99 608.631L1106.22 627.368L1110.13 644.291L1114.72 659.428L1119.91 672.779L1125.61 684.316L1131.73 694.096L1138.2 702.203L1144.97 708.836L1152.09 714.108L1159.65 718.247L1167.87 721.309L1176.97 723.378L1187.12 724.342L1228.14 723.576" stroke="#5A5A5A" stroke-width="0.113386" stroke-miterlimit="10"/>
</svg>
