<svg width="655" height="371" viewBox="0 0 655 371" fill="none" xmlns="http://www.w3.org/2000/svg">
<path fill-rule="evenodd" clip-rule="evenodd" d="M197.217 209.164L194.043 229.999C184.377 305.032 217.372 342.562 293.057 342.562H420.333C495.961 342.562 533.747 304.748 533.691 229.12L533.605 63.4912L197.217 209.164Z" fill="white" stroke="black" stroke-width="0.255119" stroke-miterlimit="10"/>
<path d="M533.596 63.4785L197.232 209.141" stroke="#0000FF" stroke-width="0.113386" stroke-miterlimit="10"/>
<path d="M197.229 209.179L533.592 63.5161" stroke="#8C3333" stroke-width="0.113386" stroke-miterlimit="10"/>
<path d="M533.599 74.8896L516.459 37.6577C406.16 82.7499 296.031 127.817 185.577 172.573C177.12 175.99 168.663 179.406 160.206 182.823L202.708 209.853" stroke="#8C3333" stroke-width="0.113386" stroke-miterlimit="10"/>
<path d="M555.696 70.5856L522.007 0.31656C405.256 46.0674 288.714 91.8198 171.778 137.309C143.38 148.386 114.973 159.382 86.5577 170.423L199.367 239.26" stroke="#8C3333" stroke-width="0.113386" stroke-miterlimit="10"/>
<path d="M171.568 189.381L165.928 226.284" stroke="#5A5A5A" stroke-width="0.113386" stroke-miterlimit="10"/>
<path d="M165.922 226.286L164.959 235.017L164.335 243.464L164.052 251.741L164.137 259.848L164.59 267.757L165.412 275.552L166.659 283.121L168.304 290.576L170.401 297.776L172.952 304.834L175.957 311.637L179.444 318.157L183.413 324.422L187.863 330.318L192.739 335.874L198.039 341.033L203.737 345.767L209.774 350.047L216.124 353.902L222.786 357.332L229.674 360.337L236.846 362.916L244.216 365.127L251.812 366.941L259.636 368.387L267.658 369.521L275.907 370.286L284.354 370.74L292.802 370.91" stroke="#5A5A5A" stroke-width="0.113386" stroke-miterlimit="10"/>
<path d="M292.802 370.91H420.559" stroke="#5A5A5A" stroke-width="0.113386" stroke-miterlimit="10"/>
<path d="M420.56 370.91L429.035 370.74L437.539 370.286L445.845 369.493L453.952 368.387L461.861 366.942L469.571 365.128L477.083 362.973L484.396 360.422L491.454 357.474L498.286 354.157L504.862 350.415L511.155 346.305L517.108 341.77L522.777 336.838L528.05 331.537L532.982 325.896L537.489 319.915L541.627 313.622L545.341 307.046L548.686 300.242L551.605 293.156L554.157 285.842L556.311 278.359L558.097 270.62L559.571 262.712L560.676 254.605L561.442 246.299L561.895 237.795L562.037 229.319" stroke="#5A5A5A" stroke-width="0.113386" stroke-miterlimit="10"/>
<path d="M562.037 229.324L561.924 20.354" stroke="#5A5A5A" stroke-width="0.113386" stroke-miterlimit="10"/>
<path d="M561.922 20.3604L171.552 189.395" stroke="#5A5A5A" stroke-width="0.113386" stroke-miterlimit="10"/>
</svg>
