<svg width="586" height="395" viewBox="0 0 586 395" fill="none" xmlns="http://www.w3.org/2000/svg">
<path fill-rule="evenodd" clip-rule="evenodd" d="M452.274 58.4062L120.421 203.342L112.739 253.288C103.073 328.237 136.04 365.682 211.584 365.682L339.001 365.711C414.658 365.711 452.444 327.868 452.415 252.211L452.274 58.4062Z" fill="white" stroke="black" stroke-width="0.255119" stroke-miterlimit="10"/>
<path d="M115.903 232.34L452.293 86.666" stroke="#8C3333" stroke-width="0.113386" stroke-miterlimit="10"/>
<path d="M481.896 1.00488L482.123 394.341H70.7019L70.6738 194.271" stroke="#8C3333" stroke-width="0.113386" stroke-miterlimit="10"/>
<path d="M515.262 1L70.6713 194.268" stroke="#8C3333" stroke-width="0.113386" stroke-miterlimit="10"/>
<path d="M480.604 15.1025L94.802 183.625" stroke="#5A5A5A" stroke-width="0.113386" stroke-miterlimit="10"/>
<path d="M339.257 394.028L347.704 393.887L356.236 393.433L364.542 392.639L372.649 391.534L380.558 390.088L388.268 388.274L395.78 386.091L403.093 383.568L410.151 380.62L416.983 377.304L423.559 373.562L429.852 369.424L435.805 364.888L441.474 359.984L446.747 354.683L451.679 349.042L456.214 343.061L460.325 336.768L464.066 330.192L467.383 323.36L470.303 316.274L472.854 308.989L475.008 301.477L476.822 293.767L478.268 285.83L479.373 277.723L480.167 269.417L480.621 260.913L480.762 252.438" stroke="#5A5A5A" stroke-width="0.113386" stroke-miterlimit="10"/>
<path d="M480.78 252.428L480.61 15.0827" stroke="#5A5A5A" stroke-width="0.113386" stroke-miterlimit="10"/>
<path d="M94.8154 183.605L84.637 249.581" stroke="#5A5A5A" stroke-width="0.113386" stroke-miterlimit="10"/>
<path d="M84.62 249.574L83.6563 258.305L83.0328 266.752L82.749 275.001L82.8341 283.108L83.2878 291.017L84.1099 298.784L85.357 306.381L87.001 313.779L89.099 321.007L91.6215 328.037L94.6548 334.812L98.1413 341.36L102.11 347.596L106.532 353.521L111.408 359.048L116.68 364.207L122.378 368.913L128.416 373.222L134.765 377.077L141.398 380.507L148.314 383.483L155.458 386.091L162.828 388.274L170.397 390.088L178.22 391.533L186.214 392.667L194.463 393.433L202.91 393.886L211.329 394.028" stroke="#5A5A5A" stroke-width="0.113386" stroke-miterlimit="10"/>
<path d="M211.329 394.029H339.257" stroke="#5A5A5A" stroke-width="0.113386" stroke-miterlimit="10"/>
</svg>
