<svg width="686" height="726" viewBox="0 0 686 726" fill="none" xmlns="http://www.w3.org/2000/svg">
<path fill-rule="evenodd" clip-rule="evenodd" d="M198.456 217.438C197.322 257.718 196.217 297.97 195.735 338.25C195.225 378.562 195.366 418.786 195.536 459.094L197.549 584.131C200.667 659.533 239.983 697.148 315.442 696.978L452.44 696.666C527.899 696.496 565.6 658.682 565.543 583.195L565.203 63.9697L198.456 217.438Z" fill="white" stroke="black" stroke-width="0.255119" stroke-miterlimit="10"/>
<path d="M198.451 217.452L565.221 63.9742" stroke="#8C3333" stroke-width="0.113386" stroke-miterlimit="10"/>
<path d="M565.21 63.9521L198.44 217.43" stroke="#8C3333" stroke-width="0.113386" stroke-miterlimit="10"/>
<path d="M565.194 75.9209L548.322 37.9707C428.185 86.0931 308.203 134.154 187.17 180.263C178.494 183.55 169.844 186.827 161.167 190.113L204.042 218.214" stroke="#8C3333" stroke-width="0.113386" stroke-miterlimit="10"/>
<path d="M587.368 72.3733L554.175 0.999609C427.653 49.3012 301.274 97.5908 173.939 144.144C144.799 154.778 115.676 165.323 86.5281 175.876L200.828 247.497" stroke="#8C3333" stroke-width="0.113386" stroke-miterlimit="10"/>
<path d="M170.62 198.359L169.287 246.889L168.522 277.168L167.842 307.584L167.388 337.943L167.105 368.274L167.048 398.633L167.076 428.936L167.19 459.38" stroke="#5A5A5A" stroke-width="0.113386" stroke-miterlimit="10"/>
<path d="M167.191 459.372L169.204 585.187" stroke="#5A5A5A" stroke-width="0.113386" stroke-miterlimit="10"/>
<path d="M169.202 585.185L169.741 593.981L170.534 602.456L171.669 610.733L173.114 618.781L174.871 626.656L176.997 634.303L179.464 641.742L182.27 648.964L185.473 655.946L189.045 662.681L192.985 669.153L197.322 675.335L201.999 681.197L207.073 686.744L212.516 691.935L218.27 696.756L224.336 701.196L230.714 705.252L237.319 708.909L244.207 712.183L251.322 715.063L258.664 717.568L266.204 719.7L273.942 721.475L281.879 722.903L290.015 723.992L298.321 724.751L306.825 725.194L315.272 725.324" stroke="#5A5A5A" stroke-width="0.113386" stroke-miterlimit="10"/>
<path d="M315.28 725.324L452.76 725.007" stroke="#5A5A5A" stroke-width="0.113386" stroke-miterlimit="10"/>
<path d="M452.752 725.005L461.199 724.838L469.675 724.356L477.952 723.554L486.059 722.426L493.968 720.957L501.65 719.138L509.133 716.955L516.418 714.398L523.476 711.456L530.308 708.119L536.856 704.386L543.121 700.248L549.073 695.715L554.714 690.797L559.987 685.502L564.891 679.855L569.398 673.88L573.536 667.598L577.25 661.036L580.566 654.21L583.486 647.146L586.009 639.861L588.163 632.358L589.977 624.653L591.423 616.753L592.528 608.663L593.294 600.369L593.747 591.882L593.889 583.432" stroke="#5A5A5A" stroke-width="0.113386" stroke-miterlimit="10"/>
<path d="M593.899 583.424L593.531 21.3981" stroke="#5A5A5A" stroke-width="0.113386" stroke-miterlimit="10"/>
<path d="M593.524 21.4092L170.612 198.381" stroke="#5A5A5A" stroke-width="0.113386" stroke-miterlimit="10"/>
</svg>
