<svg width="429" height="1883" viewBox="0 0 429 1883" fill="none" xmlns="http://www.w3.org/2000/svg">
<path fill-rule="evenodd" clip-rule="evenodd" d="M399.762 1849.04C372.478 1844.89 345.22 1840.76 318.767 1832.9C223.529 1804.62 139.135 1728.47 93.6139 1638.68C65.4431 1583.11 52.2308 1522.42 44.2824 1461.4C37.2383 1407.33 34.3923 1353.1 32.5895 1298.78C30.781 1244.4 30.078 1190.04 29.3467 1135.61C29.5423 977.927 29.7095 820.468 48.0695 664.469C54.7791 607.467 63.9038 550.771 73.037 493.993C78.1961 459.773 83.3296 425.593 89.8975 391.722C96.4314 358.021 104.334 324.699 114.599 291.602C132.979 232.338 158.794 173.967 200.829 128.335C237.234 88.8139 285.718 58.9367 337.348 45.0668C357.452 39.6668 378.006 36.7159 398.58 33.748L399.762 1849.04Z" fill="white" stroke="black" stroke-width="0.255119" stroke-miterlimit="10"/>
<path d="M398.583 33.7656L399.765 1849.05" stroke="#0000FF" stroke-width="0.113386" stroke-miterlimit="10"/>
<path d="M399.765 1849.04L398.583 33.7547" stroke="#0000FF" stroke-width="0.113386" stroke-miterlimit="10"/>
<path d="M428.128 1882.06L386.348 1875.67L377.118 1874.23L367.812 1872.72L358.435 1871.09L348.987 1869.32L339.48 1867.37L329.921 1865.2L320.32 1862.79L310.668 1860.08L299.979 1856.7L289.372 1852.97L278.881 1848.88L268.523 1844.46L258.293 1839.71L248.207 1834.66L238.26 1829.29L228.466 1823.62L218.831 1817.68L209.358 1811.44L200.055 1804.95L190.922 1798.19L181.972 1791.18L173.208 1783.93L164.639 1776.44L156.265 1768.73L148.093 1760.8L140.136 1752.66L132.394 1744.31L124.877 1735.78L117.586 1727.05L110.531 1718.15L103.722 1709.08L97.1625 1699.85L90.8527 1690.46L84.812 1680.92L79.0378 1671.25L73.5415 1661.44L68.3626 1651.57L65.253 1645.3L62.2964 1639.08L59.4391 1632.8L56.7092 1626.53L54.076 1620.21L51.5503 1613.87L49.1295 1607.51L46.8051 1601.14L44.5827 1594.74L42.451 1588.33L40.4072 1581.89L38.4598 1575.46L36.5947 1569.01L34.8116 1562.54L33.108 1556.06L31.4837 1549.57L29.9332 1543.09L28.4563 1536.59L27.0447 1530.08L25.7039 1523.57L24.4283 1517.09L23.2123 1510.58L22.05 1504.05L20.9474 1497.54L19.8929 1491.02L18.8979 1484.54L17.9454 1478.04L17.0356 1471.55L16.171 1465.05L14.87 1454.68L13.6596 1444.26L12.5455 1433.88L11.5194 1423.52L10.5725 1413.12L9.70793 1402.8L8.91432 1392.43L8.18853 1382.09L7.52537 1371.76L6.92155 1361.43L6.37154 1351.13L5.86981 1340.83L5.41063 1330.51L4.99401 1320.26L4.61131 1309.98L4.25698 1299.72L3.5426 1276.26L2.9445 1252.87L2.44276 1229.41L2.01749 1206.02L1.64915 1182.68L1.31748 1159.33L1 1135.79" stroke="#5A5A5A" stroke-width="0.113386" stroke-miterlimit="10"/>
<path d="M1 1135.79L1.02266 1119.27L1.04533 1102.95L1.07924 1086.62L1.12751 1070.29L1.19274 1053.94L1.28063 1037.61L1.39395 1021.26L1.53859 1004.91L1.71991 988.563L1.94102 972.221L2.20746 955.854L2.52494 939.464L2.8964 923.1L3.32443 906.755L3.81475 890.388L4.37601 873.992L5.0082 857.616L5.71686 841.286L6.51047 824.859L7.38644 808.509L8.35307 792.136L9.41606 775.766L10.5782 759.379L11.8481 742.992L13.2229 726.641L14.7139 710.263L16.3241 693.887L18.056 677.537L19.9155 661.164L21.8318 645.406L23.8473 629.728L25.9703 614.015L28.17 598.374L30.4463 582.755L32.7877 567.156L35.1829 551.568L37.6152 536.031L40.0756 520.52L42.5587 504.992L45.0305 489.625" stroke="#5A5A5A" stroke-width="0.113386" stroke-miterlimit="10"/>
<path d="M45.0303 489.628L47.5985 472.632L50.2292 455.471L52.9588 438.196L55.8076 420.945L58.8322 403.645L62.0581 386.388L63.9318 376.92L65.8621 367.56L67.8833 358.149L69.9866 348.775L72.1778 339.415L74.4739 330.018L76.8606 320.658L79.3551 311.301L81.9658 301.921L84.6785 292.583L87.5189 283.229L89.5258 276.854L91.5866 270.499L93.7041 264.16L95.901 257.797L98.1602 251.444L100.487 245.117L102.894 238.787L105.369 232.494L107.931 226.199L110.57 219.937L113.303 213.681L116.109 207.476L119.018 201.285L122.011 195.134L125.101 189.022L128.29 182.95L131.581 176.918L134.979 170.926L138.48 164.99L142.094 159.103L145.813 153.28L149.652 147.517L153.612 141.808L157.685 136.176L161.894 130.6L166.212 125.124L170.679 119.698L175.254 114.383L179.968 109.148L184.166 104.68L188.449 100.295L192.82 95.9947L197.268 91.7853L201.809 87.6496L206.416 83.613L211.112 79.6531L215.88 75.7866L220.725 72.0079L225.64 68.32L230.621 64.7314L235.678 61.2306L240.794 57.8262L245.976 54.521L251.217 51.315L256.521 48.211L261.884 45.2035L267.298 42.3036L272.766 39.5086L278.294 36.8186L283.861 34.2391L289.482 31.7673L295.149 29.406L300.852 27.1638L306.612 25.0321L312.4 23.0166L318.228 21.1232L324.093 19.3515L330.111 17.6678L341.056 14.9464L352.034 12.6021L362.883 10.5839L373.583 8.81501L384.137 7.21066L426.906 1" stroke="#5A5A5A" stroke-width="0.113386" stroke-miterlimit="10"/>
<path d="M426.911 1.00195L428.133 1882.05" stroke="#5A5A5A" stroke-width="0.113386" stroke-miterlimit="10"/>
</svg>
