<svg width="549" height="734" viewBox="0 0 549 734" fill="none" xmlns="http://www.w3.org/2000/svg">
<path fill-rule="evenodd" clip-rule="evenodd" d="M457.015 43.6387L91.0617 197.211C89.8144 242.197 88.5389 287.098 87.9152 332.084C87.32 377.07 87.3197 421.999 87.3481 466.985L89.3609 591.993C92.479 667.423 131.796 705.039 207.254 704.869L344.252 704.557C419.711 704.387 457.412 666.545 457.383 591.086L457.015 43.6387Z" fill="white" stroke="black" stroke-width="0.255119" stroke-miterlimit="10"/>
<path d="M90.2646 225.357L457.065 71.8782" stroke="#8C3333" stroke-width="0.113386" stroke-miterlimit="10"/>
<path d="M63.2259 178.171L61.9785 223.44L61.2414 250.454L60.5895 277.468L60.0227 304.596L59.5975 331.695L59.2857 358.795L59.1154 385.922L59.0303 412.965L59.002 439.979V467.22" stroke="#5A5A5A" stroke-width="0.113386" stroke-miterlimit="10"/>
<path d="M485.325 1L63.2291 178.161" stroke="#5A5A5A" stroke-width="0.113386" stroke-miterlimit="10"/>
<path d="M59.0049 467.221L61.0456 593.063" stroke="#5A5A5A" stroke-width="0.113386" stroke-miterlimit="10"/>
<path d="M61.043 593.078L61.553 601.866L62.3752 610.341L63.4807 618.618L64.9264 626.674L66.7123 634.535L68.8099 642.194L71.276 649.629L74.1107 656.852L77.2855 663.837L80.8571 670.572L84.7973 677.04L89.1341 683.217L93.8397 689.091L98.9139 694.632L104.328 699.82L110.082 704.639L116.148 709.089L122.526 713.143L129.159 716.799L136.048 720.059L143.163 722.951L150.504 725.445L158.016 727.599L165.783 729.357L173.692 730.802L181.827 731.88L190.133 732.645L198.637 733.07L207.084 733.212" stroke="#5A5A5A" stroke-width="0.113386" stroke-miterlimit="10"/>
<path d="M207.094 733.212L344.573 732.894" stroke="#5A5A5A" stroke-width="0.113386" stroke-miterlimit="10"/>
<path d="M344.564 732.894L353.012 732.724L361.487 732.242L369.793 731.448L377.872 730.315L385.78 728.841L393.462 727.026L400.974 724.844L408.259 722.293L415.289 719.344L422.12 716L428.668 712.286L434.933 708.148L440.886 703.612L446.527 698.68L451.799 693.39L456.703 687.744L461.238 681.768L465.349 675.487L469.062 668.922L472.379 662.096L475.298 655.035L477.821 647.744L480.004 640.252L481.79 632.542L483.235 624.627L484.341 616.549L485.106 608.272L485.588 599.768L485.73 591.32" stroke="#5A5A5A" stroke-width="0.113386" stroke-miterlimit="10"/>
<path d="M485.747 591.337L485.35 1.02147" stroke="#5A5A5A" stroke-width="0.113386" stroke-miterlimit="10"/>
</svg>
