<svg width="323" height="379" viewBox="0 0 323 379" fill="none" xmlns="http://www.w3.org/2000/svg">
<path fill-rule="evenodd" clip-rule="evenodd" d="M33.1699 349.849H289.955C279.498 267.361 269.143 184.901 232.545 112.107C222.255 91.6124 209.927 71.9403 195.148 54.3938C189.799 48.0442 184.143 41.9779 177.499 36.8472C174.324 34.4094 170.931 32.1701 167.178 30.9512C165.361 30.356 163.462 30.0159 161.563 29.6758C159.663 30.0159 157.764 30.356 155.947 30.9512C152.194 32.1701 148.801 34.4094 145.626 36.8472C138.979 41.9779 133.327 48.0442 127.978 54.3938C113.198 71.9403 100.87 91.6124 90.5801 112.107C53.9819 184.901 43.6269 267.361 33.1699 349.849Z" fill="white" stroke="black" stroke-width="0.255119" stroke-miterlimit="10"/>
<path d="M226.505 378.199H322.126" stroke="#5A5A5A" stroke-width="0.113386" stroke-miterlimit="10"/>
<path d="M322.126 378.203L316.992 337.753L315.901 329.192L314.792 320.603L313.658 311.986L312.51 303.453L311.311 294.78L310.078 286.162L308.794 277.545L307.453 268.899L306.056 260.282L304.585 251.664L303.034 243.019L301.407 234.401L299.681 225.784L297.864 217.195L295.933 208.578L293.892 200.017L291.735 191.456L289.445 182.924L287.024 174.42L284.459 165.916L281.738 157.469L278.863 149.05L275.824 140.659L272.61 132.297L269.214 123.992L265.631 115.743L261.855 107.523L257.884 99.3871L254.471 92.7538L250.925 86.2059L247.234 79.6861L243.379 73.2233L239.385 66.8454L235.21 60.4954L230.87 54.2593L226.371 48.108L221.68 42.0422L216.767 36.0608L210.406 28.8326L203.152 21.491L194.81 14.376L186.661 8.73504L176.365 3.97268L161.562 0.599609" stroke="#5A5A5A" stroke-width="0.113386" stroke-miterlimit="10"/>
<path d="M1 378.199H96.6213" stroke="#5A5A5A" stroke-width="0.113386" stroke-miterlimit="10"/>
<path d="M161.563 0.599609L146.758 3.97268L136.468 8.73504L128.318 14.3476L119.973 21.491L112.716 28.8326L106.358 36.0608L101.437 42.0702L96.7601 48.108L92.2531 54.2593L87.9132 60.4954L83.7492 66.817L79.738 73.2233L75.8914 79.6861L72.2007 86.2059L68.6546 92.7538L65.236 99.4155L61.2732 107.523L57.4918 115.743L53.9087 123.992L50.5157 132.297L47.3011 140.659L44.2596 149.05L41.3881 157.469L38.6669 165.916L36.1015 174.42L33.6807 182.924L31.3903 191.456L29.2302 200.017L27.1894 208.578L25.2618 217.195L23.4448 225.784L21.7185 234.401L20.0886 243.019L18.5408 251.636L17.0696 260.282L15.6665 268.899L14.3314 277.516L13.0416 286.191L11.8142 294.751L10.6123 303.453L9.4671 311.986L8.3304 320.603L7.22485 329.192L6.13071 337.753L1 378.203" stroke="#5A5A5A" stroke-width="0.113386" stroke-miterlimit="10"/>
<path d="M96.6211 378.199H226.505" stroke="#5A5A5A" stroke-width="0.113386" stroke-miterlimit="10"/>
</svg>
