<svg width="554" height="680" viewBox="0 0 554 680" fill="none" xmlns="http://www.w3.org/2000/svg">
<path fill-rule="evenodd" clip-rule="evenodd" d="M412.338 33.7705C391.764 36.7469 371.21 39.6949 351.107 45.0807C299.476 58.9422 250.993 88.8194 214.587 128.363C172.549 173.972 146.734 232.366 128.357 291.61C118.093 324.719 110.19 358.026 103.656 391.73C97.0882 425.604 91.9546 459.79 86.7955 494.004L80.7067 532.045L63.0526 632.392L114.748 609.97L454.549 461.547L412.568 387.081L412.338 33.7705Z" fill="white" stroke="black" stroke-width="0.255119" stroke-miterlimit="10"/>
<path d="M412.333 33.7705L412.563 387.084" stroke="#0000FF" stroke-width="0.113386" stroke-miterlimit="10"/>
<path d="M412.568 387.081L412.339 33.7679" stroke="#0000FF" stroke-width="0.113386" stroke-miterlimit="10"/>
<path d="M412.333 33.7705L412.563 387.084" stroke="#0000FF" stroke-width="0.113386" stroke-miterlimit="10"/>
<path d="M412.568 387.081L412.339 33.7679" stroke="#0000FF" stroke-width="0.113386" stroke-miterlimit="10"/>
<path d="M80.6875 532.03L454.538 368.723" stroke="#0000FF" stroke-width="0.113386" stroke-miterlimit="10"/>
<path d="M454.564 368.749L80.7136 532.056" stroke="#8C3333" stroke-width="0.113386" stroke-miterlimit="10"/>
<path d="M471.571 407.729L71.8533 582.315" stroke="#8C3333" stroke-width="0.113386" stroke-miterlimit="10"/>
<path d="M412.338 33.7646L412.548 433.649L412.573 479.882" stroke="#8C3333" stroke-width="0.113386" stroke-miterlimit="10"/>
<path d="M440.659 1.00391L397.839 7.24L387.345 8.82757L376.658 10.585L365.79 12.6259L354.815 14.9502L343.856 17.6717L337.855 19.3724L331.987 21.1299L326.153 23.0292L320.376 25.0417L314.616 27.1677L308.902 29.4072L303.23 31.7882L297.634 34.2543L292.044 36.8339L286.534 39.5267L281.054 42.3046L275.629 45.2244L270.294 48.2006L264.967 51.3189L259.729 54.5221L254.553 57.8384L249.439 61.2402L244.377 64.7552L239.396 68.3268L234.486 72.0117L229.634 75.8104L224.88 79.6654L220.174 83.6337L215.562 87.659L211.027 91.7975L206.574 96.0214L202.208 100.301L197.928 104.695L193.719 109.174L189.019 114.39L184.429 119.719L179.976 125.133L175.651 130.604L171.447 136.188L167.373 141.801L163.411 147.527L159.575 153.281L155.848 159.12L152.239 164.988L148.736 170.941L145.34 176.922L142.051 182.96L138.86 189.026L135.773 195.149L132.771 201.3L129.865 207.508L127.059 213.687L124.335 219.924L121.687 226.217L119.133 232.481L116.647 238.803L114.246 245.124L111.913 251.474L109.663 257.795L107.463 264.173L105.34 270.522L103.285 276.872L101.275 283.25L98.1626 293.511L95.1917 303.801L92.3571 314.119L89.6501 324.409L87.0705 334.727L84.6073 345.045L82.263 355.335L80.018 365.681L77.875 376L75.8198 386.374L72.5882 403.666L69.5666 420.957L66.715 438.22L63.9879 455.455L61.3574 472.633L58.7865 489.641" stroke="#5A5A5A" stroke-width="0.113386" stroke-miterlimit="10"/>
<path d="M58.7959 489.64L52.761 527.368" stroke="#5A5A5A" stroke-width="0.113386" stroke-miterlimit="10"/>
<path d="M126.066 635.955L494.649 474.95" stroke="#5A5A5A" stroke-width="0.113386" stroke-miterlimit="10"/>
<path d="M52.7666 527.373L26.0277 679.337" stroke="#5A5A5A" stroke-width="0.113386" stroke-miterlimit="10"/>
<path d="M26.002 679.337L126.064 635.966" stroke="#5A5A5A" stroke-width="0.113386" stroke-miterlimit="10"/>
<path d="M494.658 474.95L440.911 379.646" stroke="#5A5A5A" stroke-width="0.113386" stroke-miterlimit="10"/>
<path d="M440.915 379.638L440.66 0.999556" stroke="#5A5A5A" stroke-width="0.113386" stroke-miterlimit="10"/>
</svg>
