<svg width="1305" height="4310" viewBox="0 0 1305 4310" fill="none" xmlns="http://www.w3.org/2000/svg">
<path fill-rule="evenodd" clip-rule="evenodd" d="M627.214 120.652C663.832 99.0239 700.393 77.4238 739.608 62.5136C775.044 49.0206 812.549 41.0269 850.105 33.0332C870.101 67.8994 890.048 102.737 915.058 135.676C958.644 193.078 1017.37 244.583 1085.61 261.052C1101.95 264.993 1118.8 266.92 1135.68 268.848H1278V325.427H1134.9C1107.57 328.517 1080.26 331.579 1054.23 339.544C1004.93 354.681 960.316 387.279 926.332 427.276C887.063 473.51 862.087 529.494 845.238 587.094C835.776 619.437 828.916 652.234 823.369 685.315C817.784 718.622 813.581 752.127 809.354 785.661C802.089 844.65 794.835 903.554 789.126 962.657C774.221 1117.03 769.953 1272.03 765.664 1427.28C765.933 1481.62 766.177 1535.94 767.529 1590.25C768.878 1644.5 771.279 1698.65 777.844 1752.69C785.243 1813.58 797.851 1874.21 825.608 1929.75C870.968 2020.51 956.6 2097.44 1052.84 2125.15C1079.91 2132.94 1107.78 2136.81 1135.68 2140.71V2602.46C1122.02 2612.29 1108.37 2622.13 1095.01 2632.31C1054.27 2663.34 1016.46 2697.62 977.769 2731.89C949.148 2757.26 920.11 2782.6 897.634 2812.7C873.533 2845.02 857.064 2882.77 840.552 2920.59L413.243 4276.06L31.6084 4186.26L169.673 2762.73C190.476 2690.39 211.249 2618.16 232.613 2545.98C235.437 2536.45 238.263 2526.93 241.109 2517.4C243.961 2507.85 246.818 2498.31 249.695 2488.76C252.569 2479.23 255.452 2469.71 258.355 2460.18C261.255 2450.66 264.166 2441.16 267.1 2431.65C270.036 2422.13 272.987 2412.63 275.961 2403.11C285.859 2371.46 295.951 2339.91 306.289 2308.4C316.624 2276.89 327.172 2245.49 337.94 2214.12C348.706 2182.75 359.662 2151.5 370.771 2120.25C374.349 2110.19 377.937 2100.14 381.543 2090.09C385.166 2079.99 388.797 2069.91 392.445 2059.81C396.085 2049.74 399.733 2039.69 403.393 2029.62C407.058 2019.54 410.729 2009.47 414.414 1999.39C418.102 1989.3 421.789 1979.23 425.486 1969.14C429.188 1959.04 432.887 1948.95 436.603 1938.85C440.339 1928.69 444.084 1918.55 447.803 1908.38C461.378 1871.25 474.556 1833.99 485.566 1796.03C496.573 1758.09 505.38 1719.56 512.986 1680.73C520.591 1641.92 526.966 1602.92 531.074 1563.63C535.181 1524.31 537.001 1484.86 538.637 1445.34C540.272 1405.83 541.707 1366.4 542.985 1326.88C546.075 1231.41 548.192 1136.02 549.853 1040.5C551.517 944.968 552.694 849.583 553.887 754.055C555.528 754.14 557.167 754.225 558.791 754.31C769.593 763.806 698.25 442.215 627.214 120.652Z" fill="white" stroke="black" stroke-width="0.255119" stroke-miterlimit="10"/>
<path d="M1135.69 268.85L1134.9 325.429" stroke="#0000FF" stroke-width="0.113386" stroke-miterlimit="10"/>
<path d="M169.678 2762.72L232.547 2546.22" stroke="#0000FF" stroke-width="0.113386" stroke-miterlimit="10"/>
<path d="M232.541 2546.23L233.751 2542.15" stroke="#0000FF" stroke-width="0.113386" stroke-miterlimit="10"/>
<path d="M233.754 2542.14L237.719 2528.8" stroke="#0000FF" stroke-width="0.113386" stroke-miterlimit="10"/>
<path d="M237.719 2528.8L281.576 2385.29" stroke="#0000FF" stroke-width="0.113386" stroke-miterlimit="10"/>
<path d="M281.57 2385.29L286.987 2368.17" stroke="#0000FF" stroke-width="0.113386" stroke-miterlimit="10"/>
<path d="M286.992 2368.16C295.638 2341.2 304.269 2314.28 313.159 2287.4C331.457 2232.07 350.758 2177.16 370.087 2122.18" stroke="#0000FF" stroke-width="0.113386" stroke-miterlimit="10"/>
<path d="M370.09 2122.18L371.592 2117.96" stroke="#0000FF" stroke-width="0.113386" stroke-miterlimit="10"/>
<path d="M371.586 2117.97L378.877 2097.55" stroke="#0000FF" stroke-width="0.113386" stroke-miterlimit="10"/>
<path d="M378.885 2097.55L447.611 1908.91" stroke="#0000FF" stroke-width="0.113386" stroke-miterlimit="10"/>
<path d="M517.555 1656.5C517.946 1654.48 518.337 1652.47 518.728 1650.46C519.117 1648.44 519.508 1646.46 519.899 1644.45L521.438 1634.1" stroke="#0000FF" stroke-width="0.113386" stroke-miterlimit="10"/>
<path d="M521.456 1634.1L532.531 1548.75" stroke="#0000FF" stroke-width="0.113386" stroke-miterlimit="10"/>
<path d="M532.514 1548.75C532.63 1547.62 532.743 1546.48 532.857 1545.35C536.006 1513.91 537.205 1482.36 538.407 1450.76" stroke="#0000FF" stroke-width="0.113386" stroke-miterlimit="10"/>
<path d="M840.555 2920.58L169.672 2762.72" stroke="#0000FF" stroke-width="0.113386" stroke-miterlimit="10"/>
<path d="M276.048 2402.83C316.759 2438.17 357.425 2473.51 396.883 2509.09C439.882 2547.87 481.345 2586.93 534.565 2617.68C613.87 2663.51 719.115 2690.87 793.306 2654.17C852.539 2624.86 891.904 2554.73 913.141 2483.39C940.515 2391.43 937.684 2297.54 909.442 2214.48C859.785 2068.42 731.468 1956.04 624.628 1836.98C584.084 1791.8 546.635 1745.72 509.184 1699.58" stroke="#8C3333" stroke-width="0.113386" stroke-miterlimit="10"/>
<path d="M768.694 1321.9C684.083 1409.18 611.048 1551.45 551.225 1751.12" stroke="#8C3333" stroke-width="0.113386" stroke-miterlimit="10"/>
<path d="M771.676 1236.17C753.588 1254.77 735.523 1273.34 718.277 1292.73C698.36 1315.09 679.592 1338.5 662.445 1363.08C645.296 1387.66 629.816 1413.34 615.447 1439.64C601.078 1465.95 587.86 1492.82 575.521 1520.15C563.182 1547.45 551.758 1575.14 541.239 1603.2C530.716 1631.27 521.138 1659.64 511.537 1688.02" stroke="#8C3333" stroke-width="0.113386" stroke-miterlimit="10"/>
<path d="M551.234 1751.11C501.264 1947.68 415.803 2196.93 324.527 2445.02" stroke="#8C3333" stroke-width="0.113386" stroke-miterlimit="10"/>
<path d="M595.102 106.704L619.684 92.1905L626.6 88.1087L633.556 84.055L640.521 80.0017L647.599 75.948L654.709 71.9227L661.835 67.9828L669.06 64.071L676.343 60.2155L683.687 56.4456L691.12 52.7604L698.62 49.1607L706.214 45.7021L713.893 42.3291L721.66 39.0975L729.532 36.0079L737.701 33.003L745.933 30.1683L754.151 27.5039L762.388 24.981L770.632 22.6L778.866 20.3605L787.092 18.2345L795.33 16.1937L803.511 14.266L811.708 12.3666L819.889 10.5528L828.036 8.76691L836.123 7.03782L864.402 1" stroke="#5A5A5A" stroke-width="0.113386" stroke-miterlimit="10"/>
<path d="M864.402 1.00781L878.967 26.3778L883.239 33.8046L887.496 41.1749L891.794 48.5166L896.085 55.7731L900.439 63.03L904.813 70.1733L909.258 77.2883L913.759 84.3466L918.34 91.3197L923 98.2081L927.771 105.068L932.644 111.843L937.644 118.532L941.936 124.117L946.327 129.616L950.819 135.087L955.403 140.501L960.069 145.802L964.837 151.074L969.667 156.205L974.585 161.251L979.6 166.211L984.668 171.03L989.821 175.764L995.049 180.356L1000.34 184.835L1005.7 189.172L1011.12 193.339L1016.6 197.364L1022.14 201.248L1027.74 204.961L1033.39 208.504L1039.09 211.877L1044.83 215.052L1050.62 218.057L1056.46 220.863L1062.32 223.499L1068.24 225.909L1074.19 228.12L1080.18 230.132L1086.2 231.918L1092.19 233.477L1100.93 235.377L1109.94 236.964L1119.28 238.325L1128.96 239.544L1164.38 243.654" stroke="#5A5A5A" stroke-width="0.113386" stroke-miterlimit="10"/>
<path d="M1162.89 350.77L1130.7 354.426L1123.37 355.277L1116.14 356.155L1109.01 357.091L1102.02 358.111L1095.12 359.217L1088.35 360.407L1081.69 361.74L1075.19 363.214L1068.8 364.858L1062.48 366.672L1058.1 368.089L1053.67 369.62L1049.29 371.236L1044.91 372.993L1040.57 374.836L1036.24 376.791L1031.94 378.861L1027.67 381.015L1023.44 383.255L1019.22 385.636L1015.06 388.073L1010.91 390.596L1006.83 393.233L1002.77 395.954L998.739 398.76L994.776 401.623L990.85 404.6L986.97 407.632L983.14 410.779L979.361 413.954L975.628 417.242L971.963 420.559L968.343 423.96L964.788 427.418L961.288 430.962L957.852 434.562L954.482 438.19L951.176 441.875L947.948 445.617L944.274 450.039L940.7 454.489L937.216 459.025L933.809 463.617L930.492 468.266L927.252 473L924.086 477.79L921.004 482.609L918.002 487.513L915.077 492.474L912.22 497.491L909.448 502.536L906.738 507.667L904.107 512.826L901.542 518.042L899.053 523.286L896.624 528.615L894.268 533.945L891.972 539.359L889.752 544.773L887.587 550.244L885.483 555.743L883.451 561.271L881.47 566.826L879.548 572.439L877.691 578.052L875.885 583.693L874.136 589.362L872.452 595.031L870.035 603.507L867.738 612.011L865.55 620.515L863.467 629.104L861.48 637.693L859.589 646.31L857.783 654.984L856.057 663.687L854.41 672.417L852.834 681.205L851.332 689.964L848.695 706.319L846.249 722.732L843.936 739.23L841.733 755.784L839.59 772.48L837.481 789.176" stroke="#5A5A5A" stroke-width="0.113386" stroke-miterlimit="10"/>
<path d="M837.481 789.178L835.069 808.765L832.668 828.41L830.292 848.025L827.959 867.584L825.678 887.172L823.467 906.731L821.329 926.29L819.283 945.849L817.341 965.38L815.847 981.225L814.43 997.071L813.078 1012.95L811.796 1028.79L810.577 1044.66L809.421 1060.54L808.324 1076.44L807.284 1092.34L806.297 1108.27L805.365 1124.18L804.48 1140.11L803.641 1156.04L802.847 1171.97L802.093 1187.93L801.379 1203.89L800.701 1219.87L800.058 1235.81L799.443 1251.82L798.859 1267.81L798.298 1283.8L797.762 1299.81L797.249 1315.8L796.75 1331.81L796.268 1347.83L795.8 1363.87L795.341 1379.92L794.888 1395.96L794.443 1412.01L794.012 1427.6" stroke="#5A5A5A" stroke-width="0.113386" stroke-miterlimit="10"/>
<path d="M794.012 1427.6L794.125 1450.42L794.258 1473.66L794.428 1496.9L794.655 1520.09L794.956 1543.28L795.353 1566.41L795.866 1589.57L796.129 1599.63L796.421 1609.72L796.747 1619.79L797.11 1629.85L797.515 1639.86L797.969 1649.89L798.471 1659.9L799.026 1669.88L799.644 1679.85L800.324 1689.83L801.073 1699.75L801.892 1709.7L802.788 1719.61L803.766 1729.5L804.832 1739.39L805.985 1749.3L806.745 1755.39L807.547 1761.52L808.386 1767.61L809.265 1773.69L810.192 1779.75L811.161 1785.8L812.182 1791.82L813.248 1797.83L814.37 1803.8L815.544 1809.76L816.777 1815.69L818.067 1821.6L819.419 1827.48L820.833 1833.33L822.313 1839.17L823.858 1844.95L825.471 1850.7L827.157 1856.43L828.918 1862.13L830.749 1867.8L832.662 1873.41L834.649 1878.99L836.719 1884.55L838.873 1890.08L841.112 1895.55L843.44 1900.99L845.855 1906.4L848.36 1911.76L850.929 1917.01L855.43 1925.71L860.158 1934.24L865.147 1942.69L870.389 1950.99L875.874 1959.24L881.597 1967.32L887.55 1975.29L893.723 1983.08L900.116 1990.76L906.712 1998.25L913.509 2005.56L920.497 2012.7L927.671 2019.68L935.013 2026.42L942.533 2032.94L950.204 2039.26L958.033 2045.39L966.001 2051.23L974.103 2056.87L982.329 2062.22L990.677 2067.33L999.127 2072.17L1007.69 2076.74L1016.33 2081.02L1025.07 2084.99L1033.87 2088.7L1042.76 2092.07L1051.68 2095.13L1060.73 2097.91L1068.1 2099.93L1075.62 2101.77L1083.26 2103.47L1091 2105.03L1098.86 2106.47L1106.82 2107.81L1114.89 2109.08L1123.03 2110.3L1131.3 2111.46L1164.03 2116.05" stroke="#5A5A5A" stroke-width="0.113386" stroke-miterlimit="10"/>
<path d="M1164.03 2116.05V2616.96" stroke="#5A5A5A" stroke-width="0.113386" stroke-miterlimit="10"/>
<path d="M1164.03 2616.96L1131.99 2640.12L1112.13 2654.89L1103.11 2661.85L1094.11 2668.98L1085.16 2676.22L1076.25 2683.57L1067.38 2691.02L1058.56 2698.54L1049.72 2706.17L1040.91 2713.85L1032.11 2721.59L1023.25 2729.43L1014.4 2737.28L1005.51 2745.19L996.577 2753.11L991.203 2757.87L985.879 2762.59L980.558 2767.34L975.351 2772.01L970.164 2776.73L965.084 2781.42L960.072 2786.13L955.163 2790.85L950.361 2795.58L945.664 2800.34L941.092 2805.13L936.653 2809.94L932.355 2814.8L928.2 2819.71L924.2 2824.66L920.353 2829.67L916.824 2834.54L913.391 2839.51L910.049 2844.6L906.792 2849.81L903.609 2855.12L900.499 2860.55L897.461 2866.06L894.476 2871.68L891.548 2877.38L888.665 2883.17L885.83 2889.03L883.021 2894.99L880.243 2901L877.485 2907.09L874.744 2913.22L872.011 2919.41L869.273 2925.65L867.133 2930.55" stroke="#5A5A5A" stroke-width="0.113386" stroke-miterlimit="10"/>
<path d="M141.714 2757.36L205.417 2537.98L213.941 2509.29L222.558 2480.58L231.238 2451.92L240.011 2423.29L248.906 2394.66L258.91 2362.91L269.052 2331.22L279.353 2299.56L289.802 2267.95L300.392 2236.43L311.127 2204.91L321.995 2173.47L332.976 2142.09L344.057 2110.77L354.86 2080.53L365.779 2050.2L376.752 2019.95L387.784 1989.68L398.871 1959.4L409.994 1929.07L421.182 1898.63L425.649 1886.38L430.083 1874.05L434.437 1861.78L438.709 1849.53L442.884 1837.26L446.952 1824.98L450.886 1812.71L454.69 1800.43L458.344 1788.13L461.21 1778.04L463.977 1767.95L466.658 1757.76L469.241 1747.58L471.741 1737.34L474.156 1727.09L476.497 1716.79L478.765 1706.44L480.962 1696.1L483.096 1685.69L485.166 1675.32L487.176 1664.89L489.123 1654.43L490.994 1644.02L492.791 1633.59L494.506 1623.19L496.139 1612.76L497.681 1602.35L499.132 1591.92L500.484 1581.52L501.734 1571.09L502.877 1560.69L504.132 1547.9L505.241 1535.12L506.222 1522.25L507.089 1509.35L507.86 1496.4L508.549 1483.41L509.178 1470.37L509.759 1457.31L510.315 1444.15L511.879 1404.75L513.322 1365.38L514.652 1325.95L515.468 1299.98L516.242 1273.99L516.971 1247.99L517.657 1222.03L518.306 1196.04L518.918 1170.04L519.493 1144.05L520.041 1118.05L520.556 1092.03L521.047 1066.01L521.512 1040.04L525.956 724.18" stroke="#5A5A5A" stroke-width="0.113386" stroke-miterlimit="10"/>
<path d="M1304.49 244.109L1303 351.229" stroke="#5A5A5A" stroke-width="0.113386" stroke-miterlimit="10"/>
<path d="M525.957 724.183L559.409 725.94L577.636 725.799L592.855 723.814L605.883 720.214L617.023 715.254L626.669 708.933L635.187 701.137L642.798 691.698L649.579 680.416L655.492 667.178L660.473 651.956L664.458 634.863L667.417 615.956L669.342 595.405L670.255 573.294L670.184 549.739L669.181 524.879L667.296 498.828L664.591 471.644L661.127 443.468L656.969 414.412L652.184 384.507L646.841 353.921L641.004 322.655L634.745 290.878L628.132 258.648L621.235 226.021L614.126 193.111L606.869 160.031L595.103 106.711" stroke="#5A5A5A" stroke-width="0.113386" stroke-miterlimit="10"/>
<path d="M432.371 4309.68L1.0042 4208.19" stroke="#5A5A5A" stroke-width="0.113386" stroke-miterlimit="10"/>
<path d="M867.135 2930.54L432.37 4309.69" stroke="#5A5A5A" stroke-width="0.113386" stroke-miterlimit="10"/>
<path d="M1 4208.18L141.712 2757.35" stroke="#5A5A5A" stroke-width="0.113386" stroke-miterlimit="10"/>
</svg>
