<svg width="581" height="666" viewBox="0 0 581 666" fill="none" xmlns="http://www.w3.org/2000/svg">
<path fill-rule="evenodd" clip-rule="evenodd" d="M109.432 221.087C108.031 230.271 106.631 239.427 105.27 248.611C100.729 279.254 96.6558 309.925 93.2513 340.709C89.8498 371.493 87.1258 402.306 85.0395 433.204C82.9532 464.101 81.5187 494.999 80.0759 525.954L73.3181 620.999L112.989 604.36L482.871 449.106L446.021 372.344L445.851 75.4141L109.432 221.087Z" fill="white" stroke="black" stroke-width="0.255119" stroke-miterlimit="10"/>
<path d="M445.992 354.457H91.78" stroke="#8C3333" stroke-width="0.113386" stroke-miterlimit="10"/>
<path d="M446.028 372.317L80.0736 525.931" stroke="#8C3333" stroke-width="0.113386" stroke-miterlimit="10"/>
<path d="M464.436 410.698L76.6839 573.437" stroke="#8C3333" stroke-width="0.113386" stroke-miterlimit="10"/>
<path d="M445.842 75.4199L109.434 221.088" stroke="#8C3333" stroke-width="0.113386" stroke-miterlimit="10"/>
<path d="M446.02 372.34V418.459L446.049 464.551" stroke="#8C3333" stroke-width="0.113386" stroke-miterlimit="10"/>
<path d="M446.021 372.341L445.85 44.5703C404.64 62.9105 363.501 81.2223 322.24 99.4491C280.979 117.648 239.718 135.676 198.199 153.279C156.682 170.911 115.03 188.032 73.318 205.153L109.431 221.084" stroke="#8C3333" stroke-width="0.113386" stroke-miterlimit="10"/>
<path d="M474.169 1C419.704 25.2363 365.324 49.444 310.777 73.5102C290.214 82.5811 269.666 91.5954 249.055 100.581C228.444 109.539 207.831 118.411 187.141 127.198C176.814 131.564 166.49 135.901 156.141 140.238C145.758 144.575 135.377 148.912 124.977 153.221C114.582 157.529 104.193 161.81 93.79 166.09C62.8527 178.846 31.9493 191.545 1.0006 204.244L97.9967 247.019" stroke="#8C3333" stroke-width="0.113386" stroke-miterlimit="10"/>
<path d="M445.984 356.963L80.8145 510.228" stroke="#8C3333" stroke-width="0.113386" stroke-miterlimit="10"/>
<path d="M83.7559 201.321L77.2305 244.436L74.5375 263.032L71.9666 281.627L69.5286 300.222L67.2241 318.903L65.0811 337.555L63.4116 353.173L61.8553 368.792L60.4181 384.383L59.0859 400.03L57.8698 415.649L56.7557 431.296L55.2902 454.711L54.009 478.097L52.8553 501.341L51.7782 524.245" stroke="#5A5A5A" stroke-width="0.113386" stroke-miterlimit="10"/>
<path d="M123.966 630.482L521.334 463.696" stroke="#5A5A5A" stroke-width="0.113386" stroke-miterlimit="10"/>
<path d="M51.7861 524.245L41.7827 664.985" stroke="#5A5A5A" stroke-width="0.113386" stroke-miterlimit="10"/>
<path d="M41.7744 664.972L123.958 630.475" stroke="#5A5A5A" stroke-width="0.113386" stroke-miterlimit="10"/>
<path d="M521.35 463.68L474.359 365.872" stroke="#5A5A5A" stroke-width="0.113386" stroke-miterlimit="10"/>
<path d="M474.335 365.878L474.165 32.2397" stroke="#5A5A5A" stroke-width="0.113386" stroke-miterlimit="10"/>
<path d="M474.151 32.2314L83.7417 201.317" stroke="#5A5A5A" stroke-width="0.113386" stroke-miterlimit="10"/>
</svg>
