<svg width="556" height="1200" viewBox="0 0 556 1200" fill="none" xmlns="http://www.w3.org/2000/svg">
<path fill-rule="evenodd" clip-rule="evenodd" d="M94.5434 453.011C95.2804 507.436 95.9608 561.804 97.775 616.173C99.5891 670.485 102.424 724.712 109.482 778.797C117.419 839.827 130.629 900.517 158.805 956.076C204.33 1045.85 288.717 1122.02 383.961 1150.31C410.408 1158.16 437.678 1162.3 464.947 1166.44L464.239 57.8916L97.2649 211.445L94.5434 453.011Z" fill="white" stroke="black" stroke-width="0.255119" stroke-miterlimit="10"/>
<path d="M464.224 57.8857L464.932 1166.43" stroke="#0000FF" stroke-width="0.113386" stroke-miterlimit="10"/>
<path d="M464.948 1166.44L464.24 57.8906" stroke="#0000FF" stroke-width="0.113386" stroke-miterlimit="10"/>
<path d="M464.224 57.8857L464.932 1166.43" stroke="#0000FF" stroke-width="0.113386" stroke-miterlimit="10"/>
<path d="M464.935 1166.44L464.226 57.8933" stroke="#0000FF" stroke-width="0.113386" stroke-miterlimit="10"/>
<path d="M464.636 690.302L101.263 691.152" stroke="#8C3333" stroke-width="0.113386" stroke-miterlimit="10"/>
<path d="M464.243 57.9014L97.2598 211.459" stroke="#8C3333" stroke-width="0.113386" stroke-miterlimit="10"/>
<path d="M464.224 57.8857L464.932 1166.43" stroke="#8C3333" stroke-width="0.113386" stroke-miterlimit="10"/>
<path d="M464.207 27.1758L464.235 57.8752" stroke="#8C3333" stroke-width="0.113386" stroke-miterlimit="10"/>
<path d="M464.211 27.1641C338.409 80.4555 212.806 133.69 86.2952 185.309C79.492 188.087 72.6606 190.865 65.8575 193.643L97.2656 211.445" stroke="#8C3333" stroke-width="0.113386" stroke-miterlimit="10"/>
<path d="M453.269 1C327.495 54.2347 201.892 107.356 75.4663 159.088C50.6631 169.265 25.8599 179.328 1 189.447L83.2616 236.106" stroke="#8C3333" stroke-width="0.113386" stroke-miterlimit="10"/>
<path d="M66.197 453.041L66.5088 476.71L66.849 500.04L67.2175 523.425L67.6427 546.84L68.1248 570.226L68.7483 593.697L69.457 617.082L69.7971 627.4L70.194 637.605L70.5909 647.923L71.0726 658.213L71.5546 668.56L72.1214 678.793L72.7169 689.139L73.3688 699.485L74.1058 709.804L74.8996 720.207L75.7498 730.497L76.7138 740.928L77.7343 751.246L78.8398 761.678L80.0585 772.053L81.3624 782.427L82.2413 788.947L83.1482 795.439L84.0839 801.93L85.0759 808.449L86.1247 814.913L87.2303 821.435L88.3926 827.946L89.6113 834.483L90.8871 840.974L92.2477 847.494L93.6366 853.957L95.1391 860.477L96.6695 866.968L98.2855 873.431L99.9862 879.922L101.772 886.385L103.643 892.848L105.599 899.283L107.64 905.718L109.766 912.124L112.005 918.53L114.329 924.908L116.739 931.258L119.262 937.607L121.898 943.901L124.648 950.193L127.482 956.458L130.43 962.694L133.548 968.959L138.736 978.823L144.235 988.631L149.989 998.326L156.056 1007.85L162.348 1017.23L168.896 1026.47L175.728 1035.54L182.786 1044.45L190.071 1053.18L197.583 1061.71L205.322 1070.04L213.287 1078.18L221.451 1086.11L229.841 1093.83L238.402 1101.31L247.161 1108.57L256.119 1115.6L265.246 1122.34L274.544 1128.83L284.011 1135.07L293.649 1141.02L303.457 1146.69L313.379 1152.05L323.498 1157.12L333.703 1161.86L344.078 1166.28L354.566 1170.36L365.168 1174.1L375.854 1177.48L385.52 1180.17L395.102 1182.61L404.683 1184.76L414.179 1186.72L423.618 1188.47L433.001 1190.12L442.327 1191.62L451.511 1193.07L493.322 1199.44" stroke="#5A5A5A" stroke-width="0.113386" stroke-miterlimit="10"/>
<path d="M69.1172 192.477L66.1974 453.044" stroke="#5A5A5A" stroke-width="0.113386" stroke-miterlimit="10"/>
<path d="M493.314 1199.44L492.549 15.3162" stroke="#5A5A5A" stroke-width="0.113386" stroke-miterlimit="10"/>
<path d="M492.55 15.3213L69.1305 192.478" stroke="#5A5A5A" stroke-width="0.113386" stroke-miterlimit="10"/>
</svg>
