<svg width="1171" height="2954" viewBox="0 0 1171 2954" fill="none" xmlns="http://www.w3.org/2000/svg">
<path fill-rule="evenodd" clip-rule="evenodd" d="M707.422 2920.56C723.934 2882.78 740.404 2845.02 764.504 2812.71C786.98 2782.57 816.015 2757.26 844.639 2731.89C883.327 2697.59 921.135 2663.35 961.878 2632.28C975.235 2622.1 988.886 2612.3 1002.55 2602.46V2140.7C974.653 2136.81 946.775 2132.93 919.707 2125.13C823.47 2097.41 737.838 2020.51 692.478 1929.74C664.718 1874.18 652.113 1813.58 644.714 1752.69C638.149 1698.63 635.748 1644.46 634.399 1590.24C633.044 1535.92 632.803 1481.61 632.534 1427.24C636.823 1272.02 641.092 1117 655.996 962.655C661.705 903.524 668.959 844.62 676.224 785.659C680.451 752.097 684.655 718.591 690.239 685.284C695.783 652.232 702.646 619.435 712.105 587.092C728.957 529.492 753.933 473.508 793.202 427.274C827.186 387.277 871.795 354.651 921.095 339.542C947.132 331.548 974.435 328.487 1001.77 325.397H1145V268.846H1002.55C985.674 266.918 968.817 264.991 952.478 261.051C884.237 244.553 825.514 193.047 781.928 135.646C756.918 102.735 736.971 67.8974 716.975 33.0312C679.419 41.025 641.914 49.0187 606.478 62.4833C567.263 77.4219 530.702 99.022 494.084 120.65C565.117 442.213 636.463 763.776 425.661 754.28C424.037 754.223 422.398 754.138 420.757 754.025C419.564 849.552 418.387 944.938 416.723 1040.47C415.062 1135.99 412.945 1231.4 409.855 1326.87C408.577 1366.35 407.142 1405.81 405.507 1445.33C403.871 1484.84 402.051 1524.3 397.941 1563.59C393.834 1602.91 387.458 1641.91 379.856 1680.72C372.251 1719.55 363.443 1758.07 352.436 1796.03C341.427 1833.99 328.248 1871.23 314.67 1908.37C310.951 1918.54 307.21 1928.66 303.471 1938.84C299.757 1948.93 296.058 1959.02 292.356 1969.11C288.66 1979.21 284.969 1989.3 281.284 1999.39C277.599 2009.45 273.928 2019.51 270.26 2029.61C266.6 2039.67 262.955 2049.73 259.315 2059.79C255.667 2069.89 252.036 2079.98 248.41 2090.07C244.808 2100.13 241.219 2110.17 237.642 2120.23C226.533 2151.5 215.577 2182.73 204.811 2214.11C194.042 2245.46 183.494 2276.87 173.159 2308.39C162.821 2339.91 152.727 2371.44 142.831 2403.1C139.857 2412.62 136.907 2422.12 133.967 2431.64C131.036 2441.14 128.125 2450.66 125.225 2460.16C122.322 2469.69 119.44 2479.21 116.565 2488.76C113.688 2498.29 110.828 2507.84 107.976 2517.39C105.133 2526.92 102.307 2536.44 99.4836 2545.97C78.1188 2618.14 57.3465 2690.36 36.543 2762.7L707.422 2920.56Z" fill="white" stroke="black" stroke-width="0.255119" stroke-miterlimit="10"/>
<path d="M1002.55 268.848L1001.76 325.399" stroke="#0000FF" stroke-width="0.113386" stroke-miterlimit="10"/>
<path d="M1001.75 325.396L1002.53 268.845" stroke="#0000FF" stroke-width="0.113386" stroke-miterlimit="10"/>
<path d="M36.543 2762.7L99.4133 2546.2" stroke="#0000FF" stroke-width="0.113386" stroke-miterlimit="10"/>
<path d="M99.418 2546.22L100.625 2542.14" stroke="#0000FF" stroke-width="0.113386" stroke-miterlimit="10"/>
<path d="M100.627 2542.14L104.593 2528.79" stroke="#0000FF" stroke-width="0.113386" stroke-miterlimit="10"/>
<path d="M104.589 2528.79L148.447 2385.27" stroke="#0000FF" stroke-width="0.113386" stroke-miterlimit="10"/>
<path d="M148.446 2385.28L153.862 2368.15" stroke="#0000FF" stroke-width="0.113386" stroke-miterlimit="10"/>
<path d="M153.863 2368.15C162.509 2341.19 171.14 2314.27 180.03 2287.39C198.328 2232.06 217.629 2177.15 236.958 2122.17" stroke="#0000FF" stroke-width="0.113386" stroke-miterlimit="10"/>
<path d="M236.962 2122.16L238.464 2117.94" stroke="#0000FF" stroke-width="0.113386" stroke-miterlimit="10"/>
<path d="M238.455 2117.95L245.746 2097.54" stroke="#0000FF" stroke-width="0.113386" stroke-miterlimit="10"/>
<path d="M245.754 2097.53L314.484 1908.89" stroke="#0000FF" stroke-width="0.113386" stroke-miterlimit="10"/>
<path d="M384.426 1656.46C384.817 1654.48 385.208 1652.47 385.596 1650.45C385.988 1648.44 386.379 1646.43 386.77 1644.44L388.309 1634.07" stroke="#0000FF" stroke-width="0.113386" stroke-miterlimit="10"/>
<path d="M388.314 1634.07L399.386 1548.75" stroke="#0000FF" stroke-width="0.113386" stroke-miterlimit="10"/>
<path d="M399.381 1548.75C399.497 1547.61 399.613 1546.48 399.727 1545.35C402.876 1513.91 404.072 1482.36 405.277 1450.75" stroke="#0000FF" stroke-width="0.113386" stroke-miterlimit="10"/>
<path d="M707.432 2920.57L36.5493 2762.71" stroke="#0000FF" stroke-width="0.113386" stroke-miterlimit="10"/>
<path d="M420.747 754.029C431.074 753.954 441.395 753.839 450.023 751.042C481.78 740.751 490.115 693.993 497.417 653.47C506.398 603.533 513.663 563.125 517.694 521.32C529.739 395.87 511.831 258.311 494.076 120.654" stroke="#0000FF" stroke-width="0.113386" stroke-miterlimit="10"/>
<path d="M1001.96 325.396V268.789" stroke="#8C3333" stroke-width="0.113386" stroke-miterlimit="10"/>
<path d="M142.92 2402.82C183.631 2438.16 224.294 2473.5 263.753 2509.08C306.751 2547.86 348.217 2586.92 401.437 2617.67C480.739 2663.48 585.987 2690.87 660.176 2654.16C719.411 2624.85 758.773 2554.72 780.01 2483.38C807.387 2391.42 804.556 2297.54 776.314 2214.47C726.654 2068.41 598.34 1956.03 491.5 1836.97C450.956 1791.79 413.507 1745.71 376.053 1699.58" stroke="#8C3333" stroke-width="0.113386" stroke-miterlimit="10"/>
<path d="M418.102 1751.09C368.132 1947.66 282.673 2196.91 191.397 2445" stroke="#8C3333" stroke-width="0.113386" stroke-miterlimit="10"/>
<path d="M723.932 2953.56L736.143 2925.63L738.882 2919.39L741.614 2913.2L744.355 2907.07L747.113 2900.98L749.889 2894.97L752.701 2889.01L755.535 2883.15L758.418 2877.36L761.346 2871.66L764.331 2866.04L767.37 2860.53L770.479 2855.1L773.66 2849.79L776.92 2844.58L780.262 2839.49L783.695 2834.52L787.224 2829.66L791.07 2824.64L795.067 2819.69L799.223 2814.79L803.523 2809.93L807.959 2805.11L812.534 2800.32L817.229 2795.56L822.033 2790.83L826.94 2786.11L831.955 2781.4L837.034 2776.71L842.222 2772L847.429 2767.32L852.749 2762.57L858.073 2757.85L863.445 2753.09L872.374 2745.17L881.269 2737.27L890.136 2729.4L898.977 2721.58L907.787 2713.83L916.591 2706.15L925.43 2698.52L934.254 2691L943.124 2683.55L952.03 2676.2L960.985 2668.95L969.982 2661.83L979.002 2654.87L998.856 2640.1L1030.9 2616.95" stroke="#5A5A5A" stroke-width="0.113386" stroke-miterlimit="10"/>
<path d="M1030.91 2616.95V2116.04" stroke="#5A5A5A" stroke-width="0.113386" stroke-miterlimit="10"/>
<path d="M1030.9 2116.04L998.176 2111.45L989.896 2110.29L981.76 2109.07L973.693 2107.79L965.731 2106.46L957.873 2105.01L950.129 2103.45L942.492 2101.78L934.972 2099.91L927.599 2097.9L918.559 2095.15L909.621 2092.06L900.743 2088.69L891.939 2084.97L883.205 2081L874.56 2076.72L865.999 2072.16L857.549 2067.31L849.198 2062.21L840.975 2056.85L832.871 2051.21L824.908 2045.37L817.079 2039.28L809.405 2032.96L801.891 2026.41L794.54 2019.66L787.372 2012.69L780.378 2005.54L773.584 1998.23L766.988 1990.75L760.595 1983.07L754.419 1975.27L748.466 1967.31L742.746 1959.23L737.261 1951.01L732.019 1942.67L727.03 1934.22L722.302 1925.69L717.801 1916.99L715.233 1911.75L712.727 1906.39L710.309 1900.97L707.984 1895.53L705.745 1890.06L703.591 1884.53L701.521 1878.98L699.531 1873.39L697.621 1867.78L695.787 1862.11L694.029 1856.41L692.343 1850.69L690.73 1844.93L689.182 1839.15L687.705 1833.31L686.291 1827.47L684.939 1821.58L683.649 1815.68L682.419 1809.75L681.242 1803.79L680.12 1797.81L679.051 1791.81L678.033 1785.78L677.064 1779.74L676.14 1773.68L675.255 1767.59L674.419 1761.5L673.617 1755.38L672.857 1749.28L671.701 1739.38L670.638 1729.48L669.66 1719.59L668.764 1709.67L667.942 1699.75L667.197 1689.8L666.516 1679.85L665.898 1669.87L665.343 1659.89L664.838 1649.89L664.387 1639.85L663.982 1629.82L663.619 1619.78L663.293 1609.72L663.001 1599.63L662.738 1589.57L662.225 1566.41L661.828 1543.25L661.527 1520.09L661.3 1496.9L661.13 1473.66L660.997 1450.41L660.884 1427.59" stroke="#5A5A5A" stroke-width="0.113386" stroke-miterlimit="10"/>
<path d="M660.884 1427.59L661.315 1412L661.76 1395.93L662.21 1379.89L662.67 1363.87L663.14 1347.83L663.622 1331.81L664.118 1315.8L664.634 1299.78L665.17 1283.76L665.728 1267.81L666.315 1251.79L666.927 1235.8L667.571 1219.84L668.251 1203.88L668.965 1187.93L669.717 1171.97L670.513 1156.04L671.349 1140.1L672.237 1124.15L673.169 1108.24L674.156 1092.34L675.196 1076.44L676.293 1060.54L677.449 1044.66L678.668 1028.79L679.95 1012.91L681.302 997.04L682.719 981.222L684.21 965.377L686.155 945.818L688.198 926.287L690.339 906.728L692.55 887.169L694.832 867.581L697.162 848.022L699.54 828.378L701.941 808.762L704.353 789.146" stroke="#5A5A5A" stroke-width="0.113386" stroke-miterlimit="10"/>
<path d="M704.354 789.148L706.463 772.48L708.603 755.784L710.811 739.202L713.118 722.704L715.567 706.32L718.204 689.935L719.706 681.177L721.279 672.417L722.929 663.687L724.652 654.984L726.458 646.31L728.352 637.693L730.339 629.076L732.422 620.515L734.611 611.983L736.904 603.507L739.322 595.003L741.008 589.362L742.757 583.693L744.563 578.024L746.42 572.411L748.342 566.826L750.32 561.242L752.355 555.743L754.456 550.215L756.624 544.745L758.847 539.331L761.137 533.945L763.499 528.587L765.925 523.286L768.411 518.042L770.979 512.827L773.61 507.667L776.32 502.537L779.092 497.491L781.949 492.474L784.875 487.513L787.877 482.609L790.958 477.762L794.121 473L797.367 468.266L800.678 463.617L804.088 459.025L807.574 454.489L811.143 450.039L814.82 445.617L818.048 441.875L821.354 438.19L824.724 434.534L828.16 430.962L831.66 427.419L835.212 423.96L838.832 420.559L842.503 417.214L846.233 413.954L850.009 410.751L853.842 407.633L857.722 404.6L861.648 401.623L865.611 398.732L869.645 395.926L873.698 393.233L877.783 390.597L881.939 388.045L886.089 385.607L890.315 383.255L894.539 381.015L898.816 378.833L903.111 376.792L907.434 374.836L911.788 372.993L916.153 371.236L920.555 369.592L924.974 368.061L929.351 366.672L935.672 364.829L942.059 363.214L948.561 361.74L955.22 360.407L961.989 359.188L968.892 358.083L975.882 357.091L983.017 356.155L990.239 355.277L997.573 354.398L1029.76 350.77" stroke="#5A5A5A" stroke-width="0.113386" stroke-miterlimit="10"/>
<path d="M1031.25 243.646L995.828 239.536L986.151 238.317L976.808 236.956L967.805 235.369L959.06 233.47L953.068 231.91L947.047 230.125L941.06 228.112L935.105 225.901L929.194 223.463L923.327 220.855L917.487 218.049L911.699 215.044L905.959 211.869L900.255 208.496L894.606 204.953L889.016 201.239L883.469 197.356L877.989 193.331L872.572 189.136L867.206 184.799L861.92 180.348L856.69 175.756L851.542 171.022L846.468 166.203L841.456 161.243L836.544 156.197L831.694 151.038L826.943 145.794L822.277 140.493L817.691 135.079L813.198 129.608L808.807 124.08L804.512 118.524L799.515 111.835L794.642 105.06L789.871 98.1999L785.211 91.3119L780.633 84.3101L776.12 77.2802L771.684 70.1652L767.302 62.9938L762.965 55.7653L758.667 48.5088L754.367 41.1384L750.11 33.7967L745.838 26.37L731.273 1" stroke="#5A5A5A" stroke-width="0.113386" stroke-miterlimit="10"/>
<path d="M731.273 1L702.992 7.00944L694.904 8.76691L686.76 10.5528L678.58 12.367L670.382 14.2379L662.201 16.1937L653.961 18.2345L645.737 20.3605L637.5 22.6L629.26 24.981L621.022 27.4755L612.804 30.1403L604.573 32.9749L596.403 36.0079L588.531 39.0979L580.764 42.3291L573.085 45.6741L565.491 49.1607L557.988 52.7607L550.558 56.4459L543.214 60.2159L535.932 64.071L528.703 67.9828L521.574 71.923L514.482 75.92L507.392 80.0017L500.408 84.0554L493.468 88.1087L486.555 92.1624L461.973 106.676" stroke="#5A5A5A" stroke-width="0.113386" stroke-miterlimit="10"/>
<path d="M461.974 106.672L473.738 159.991L480.991 193.072L488.106 226.011L495.003 258.609L501.616 290.867L507.872 322.644L513.709 353.882L519.055 384.496L523.84 414.373L527.998 443.456L531.462 471.633L534.167 498.789L536.052 524.867L537.055 549.727L537.123 573.284L536.213 595.394L534.289 615.945L531.329 634.852L527.344 651.945L522.363 667.139L516.447 680.377L509.67 691.687L502.059 701.126L493.54 708.921L483.891 715.243L472.754 720.203L459.726 723.775L444.507 725.759L426.28 725.929L392.828 724.172" stroke="#5A5A5A" stroke-width="0.113386" stroke-miterlimit="10"/>
<path d="M392.828 724.176L388.38 1040.04L387.918 1066.01L387.428 1092.03L386.912 1118.02L386.365 1144.04L385.787 1170.04L385.177 1196L384.528 1222L383.839 1247.99L383.114 1273.98L382.34 1299.98L381.523 1325.94L380.194 1365.37L378.751 1404.75L377.184 1444.18L376.631 1457.3L376.05 1470.37L375.42 1483.38L374.732 1496.36L373.961 1509.32L373.093 1522.24L372.112 1535.08L371.004 1547.9L369.748 1560.68L368.606 1571.08L367.356 1581.52L366.004 1591.92L364.555 1602.35L363.008 1612.75L361.378 1623.18L359.663 1633.59L357.865 1643.99L355.992 1654.42L354.047 1664.85L352.037 1675.29L349.968 1685.69L347.836 1696.06L345.634 1706.44L343.372 1716.76L341.028 1727.07L338.612 1737.33L336.112 1747.57L333.527 1757.75L330.848 1767.92L328.082 1778.04L325.216 1788.11L321.562 1800.41L317.758 1812.71L313.821 1824.96L309.756 1837.23L305.58 1849.51L301.309 1861.78L296.954 1874.05L292.521 1886.36L288.054 1898.63L276.865 1929.07L265.739 1959.38L254.656 1989.65L243.621 2019.93L232.656 2050.17L221.726 2080.53L210.929 2110.75L199.848 2142.07L188.866 2173.45L177.998 2204.91L167.264 2236.41L156.676 2267.93L146.222 2299.56L135.924 2331.23L125.776 2362.92L115.781 2394.64L106.883 2423.3L98.1094 2451.9L89.4298 2480.56L80.8124 2509.3L72.2887 2537.99L1 2783.47" stroke="#5A5A5A" stroke-width="0.113386" stroke-miterlimit="10"/>
<path d="M1.00586 2783.46L723.937 2953.56" stroke="#5A5A5A" stroke-width="0.113386" stroke-miterlimit="10"/>
<path d="M1169 350.771L1170.49 243.652" stroke="#5A5A5A" stroke-width="0.113386" stroke-miterlimit="10"/>
</svg>
