<svg width="1532" height="1527" viewBox="0 0 1532 1527" fill="none" xmlns="http://www.w3.org/2000/svg">
<path fill-rule="evenodd" clip-rule="evenodd" d="M807.5 1478.5C803.513 1474.85 704.487 1393.71 700.5 1390.07C587.036 1286.41 473.15 1185.63 341.487 1168C251.617 1155.98 153.683 1182.74 55.6185 1209.47C28.0515 939.297 0.243523 669.098 95.0399 408.849C145.386 270.631 230.117 135.163 355.791 72.3191C518.46 -9.03534 749.348 31.1316 902.584 140.662C972.948 190.949 1026.83 255.834 1078.65 322.392C1123.88 380.474 1167.42 439.775 1211.03 499.104C981.177 681.4 906.183 1056.79 807.5 1478.5Z" fill="white" stroke="black" stroke-width="0.255119" stroke-miterlimit="10"/>
<path d="M867.329 325.038C837.584 344.569 807.889 364.032 784.255 389.143C756.382 418.754 737.043 456.134 717.679 493.53C749.915 471.206 782.101 448.952 807.277 420.358C831.776 392.527 849.54 358.79 867.329 325.038Z" stroke="#8C3333" stroke-width="0.113386" stroke-miterlimit="10"/>
<path d="M1211.02 499.092L1235.69 529.818C1105 618.5 1060.99 756.566 992.001 888C924.501 1075 867.001 1337.5 820.501 1526L729.999 1453.5" stroke="#8C3333" stroke-width="0.113386" stroke-miterlimit="10"/>
<path d="M867.5 324.999C894.936 364.288 939.002 467.551 953.406 512.484C965.766 551.019 969.899 592.149 978.164 632.037C979.525 638.549 980.976 645.001 982.444 651.476" stroke="#8C3333" stroke-width="0.113386" stroke-miterlimit="10"/>
<path d="M718 493.5C748.322 525.248 872.434 621.135 884.696 662.294C895.499 698.577 895.788 737.44 896.1 776.332" stroke="#8C3333" stroke-width="0.113386" stroke-miterlimit="10"/>
<path d="M1177.38 453.379C1168.51 460.551 1159.65 467.694 1150.91 475.036C1142.66 481.952 1134.55 489.039 1126.52 496.21C1118.44 503.467 1110.46 510.809 1102.59 518.264C1094.67 525.804 1086.86 533.429 1079.16 541.168C1071.39 548.992 1063.75 556.9 1056.2 564.922C1048.6 573.029 1041.12 581.221 1033.75 589.527C1026.3 597.917 1018.99 606.393 1011.78 614.954C1004.5 623.628 997.351 632.387 990.307 641.259C983.194 650.217 976.213 659.259 969.341 668.387C962.394 677.628 955.576 686.954 948.872 696.365C942.092 705.889 935.445 715.499 928.911 725.194C922.298 735.001 915.82 744.866 909.454 754.844C903.011 764.935 896.701 775.083 890.504 785.345C884.228 795.72 878.088 806.151 872.059 816.696C865.956 827.354 859.984 838.069 854.13 848.869C848.194 859.811 842.395 870.809 836.708 881.893C830.945 893.118 825.316 904.4 819.8 915.739C814.207 927.247 808.75 938.813 803.407 950.435C797.987 962.227 792.697 974.076 787.524 985.981C782.277 998.057 777.164 1010.19 772.163 1022.38C767.086 1034.74 762.143 1047.12 757.31 1059.6C752.409 1072.27 747.638 1084.94 742.98 1097.69C738.252 1110.62 733.654 1123.57 729.167 1136.61C724.615 1149.82 720.19 1163.09 715.876 1176.38C711.496 1189.88 707.244 1203.43 703.105 1217.01C698.902 1230.81 694.831 1244.61 690.857 1258.48C686.82 1272.56 682.897 1286.68 679.13 1300.83C674.11 1319.7 669.387 1338.61 664.656 1357.55" stroke="#8C3333" stroke-width="0.113386" stroke-miterlimit="10"/>
<path d="M982.431 651.463L990.441 735.936" stroke="#8C3333" stroke-width="0.113386" stroke-miterlimit="10"/>
<path d="M30.8063 1245.61L24.5673 1184.38L21.7439 1156.38L18.9774 1128.4L16.2958 1100.36L13.7304 1072.27L11.3153 1044.21L9.07592 1016.12L7.0463 987.997L5.2576 959.905L3.73828 931.757L2.52217 903.637L1.63781 875.49L1.12189 847.341L1 819.193L1.30615 791.074L2.07147 762.925L3.33006 734.806L5.11019 706.686L7.44881 678.566L10.3714 650.475L13.9175 622.412L18.1127 594.377L22.9912 566.371L28.5868 538.364L34.9308 510.443L42.0514 482.55L49.9856 454.686L58.756 426.878L68.3711 399.24L73.893 384.443L79.636 369.76L85.6426 355.133L91.9072 340.562L98.4467 326.077L105.241 311.678L112.314 297.419L119.658 283.246L127.289 269.243L135.184 255.41L143.37 241.747L151.843 228.254L160.602 215.016L169.65 202.005L179.01 189.221L188.651 176.72L198.615 164.502L208.882 152.569L219.452 140.975L230.346 129.721L241.56 118.808L253.085 108.291L264.957 98.1719L277.14 88.4489L289.658 79.2079L302.516 70.3922L315.711 62.0581L329.247 54.2628L343.19 46.9212L361.497 38.3605L380.33 30.6787L399.549 23.9606L419.139 18.093L439.019 13.1604L459.19 9.07868L479.585 5.81877L500.199 3.40938L520.957 1.82181L541.865 1.02837L562.87 1L583.929 1.73704L605.01 3.23914L626.103 5.45025L647.158 8.3984L668.146 12.0268L689.006 16.3636L709.736 21.3526L730.313 27.0219L750.674 33.3431L770.809 40.3166L790.629 47.8849L810.196 56.1054L829.387 64.8928L848.2 74.2756L866.637 84.282L884.592 94.7985L902.098 105.939L918.956 117.532L926.683 123.145L934.161 128.786L941.497 134.484L948.757 140.351L955.866 146.247L962.851 152.229L969.773 158.323L976.519 164.446L983.243 170.71L989.8 177.003L996.288 183.353L1002.69 189.788L1009.02 196.279L1015.2 202.77L1021.36 209.404L1027.42 216.008L1033.42 222.698L1039.36 229.444L1045.19 236.162L1051 242.966L1056.73 249.769L1062.42 256.629L1068.05 263.46L1073.64 270.377L1079.17 277.237L1084.72 284.21L1090.17 291.098L1095.62 298.043L1101.06 305.016L1113.4 320.947L1125.7 336.991L1137.91 353.035L1150.03 369.108L1162.16 385.265L1174.19 401.423L1186.18 417.58L1198.13 433.737L1210.06 449.952L1221.97 466.138L1249.81 504.009" stroke="#5A5A5A" stroke-width="0.113386" stroke-miterlimit="10"/>
<path d="M728.723 1454.26L681.2 1410.81L669.082 1399.78L656.989 1388.78L644.908 1377.9L632.796 1367.1L620.76 1356.47L608.664 1345.95L596.589 1335.63L584.524 1325.51L572.432 1315.62L560.322 1305.93L548.201 1296.54L536.075 1287.42L523.925 1278.6L511.75 1270.12L499.544 1261.99L487.327 1254.22L475.073 1246.82L462.807 1239.85L450.482 1233.27L438.154 1227.18L425.767 1221.51L413.357 1216.32L400.893 1211.65L388.381 1207.45L375.829 1203.79L363.201 1200.68L350.501 1198.12L337.626 1196.08L329.213 1195.09L320.644 1194.33L311.973 1193.79L303.219 1193.48L294.372 1193.39L285.452 1193.5L276.455 1193.84L267.37 1194.38L258.216 1195.09L248.97 1196L239.669 1197.08L230.295 1198.32L220.87 1199.71L211.36 1201.27L201.773 1202.97L192.195 1204.81L182.483 1206.77L172.755 1208.84L163.018 1211.02L153.173 1213.32L143.291 1215.7L133.378 1218.14L123.477 1220.66L113.425 1223.27L103.447 1225.9L93.4241 1228.57L83.3129 1231.32L73.2045 1234.07L30.8066 1245.6" stroke="#5A5A5A" stroke-width="0.113386" stroke-miterlimit="10"/>
<path d="M1249.81 504.002L1205.74 540.03L1183.23 559.589L1161.14 579.942L1139.46 601.145L1118.19 623.142L1097.35 645.989L1076.91 669.659L1056.9 694.15L1037.31 719.492L1018.15 745.684L999.429 772.727L981.131 800.62L963.276 829.363L945.857 858.957L928.886 889.401L912.365 920.724L896.299 952.897L880.68 985.949L865.529 1019.85L850.831 1054.66L836.609 1090.32L822.856 1126.86L809.575 1164.31L796.774 1202.6L784.452 1241.8L772.617 1281.89L761.273 1322.85L750.419 1364.69L728.723 1454.26" stroke="#5A5A5A" stroke-width="0.113386" stroke-miterlimit="10"/>
</svg>
