<svg width="674" height="1005" viewBox="0 0 674 1005" fill="none" xmlns="http://www.w3.org/2000/svg">
<path fill-rule="evenodd" clip-rule="evenodd" d="M33.9648 746.908C59.5731 769.373 85.1501 791.826 110.183 814.362C153.312 853.185 194.687 892.213 247.865 922.952C327.11 968.76 432.409 996.139 506.606 959.436C565.847 930.132 605.192 859.991 626.441 788.66C653.835 696.707 651.079 602.837 622.741 519.745C572.917 373.642 443.94 261.086 337.93 142.249C314.006 115.431 291.263 88.3286 268.509 61.1953C260.859 90.395 253.222 119.555 244.208 148.327C235.191 177.101 224.825 205.408 214.492 233.766C168.724 359.381 123.951 485.021 80.3737 611.33C64.7916 656.506 49.3882 701.673 33.9648 746.908Z" fill="white" stroke="black" stroke-width="0.255119" stroke-miterlimit="10"/>
<path d="M1 755.683L40.8013 790.637L66.1601 813.039L91.2524 835.459L96.162 839.883L101.106 844.351L106.066 848.835L111.035 853.317L116.022 857.807L121.036 862.3L126.09 866.804L131.161 871.286L136.281 875.77L141.434 880.238L146.65 884.702L151.914 889.147L157.223 893.558L162.601 897.954L168.057 902.331L173.568 906.662L179.169 910.971L184.838 915.231L190.601 919.455L196.452 923.63L202.396 927.755L208.437 931.828L214.585 935.842L220.841 939.796L227.197 943.677L233.716 947.515L242.504 952.467L251.506 957.286L260.679 961.941L270 966.419L279.465 970.714L289.057 974.807L298.769 978.696L308.588 982.364L318.503 985.806L328.501 989L338.576 991.943L348.701 994.619L358.889 997.014L369.113 999.12L379.366 1000.92L389.639 1002.4L399.915 1003.54L410.187 1004.33L420.449 1004.76L430.688 1004.8L440.881 1004.45L451.023 1003.67L461.103 1002.46L471.101 1000.78L480.997 998.632L490.779 995.982L500.42 992.816L509.899 989.108L519.103 984.887L526.402 981.06L533.427 976.956L540.241 972.556L546.852 967.874L553.255 962.927L559.454 957.734L565.455 952.306L571.255 946.656L576.862 940.803L582.282 934.754L587.515 928.523L592.566 922.12L597.436 915.557L602.133 908.848L606.66 901.996L611.019 895.017L615.215 887.917L619.246 880.711L623.121 873.398L626.84 865.999L630.403 858.516L633.813 850.958L637.076 843.336L640.191 835.66L643.162 827.935L645.985 820.177L648.666 812.384L651.206 804.575L653.619 796.723L656.499 786.657L659.166 776.546L661.607 766.426L663.821 756.301L665.816 746.167L667.588 736.036L669.138 725.908L670.468 715.785L671.579 705.671L672.475 695.571L673.152 685.489L673.614 675.426L673.861 665.385L673.895 655.37L673.719 645.387L673.331 635.437L672.733 625.519L671.925 615.646L670.91 605.812L669.688 596.03L668.26 586.29L666.63 576.61L664.793 566.983L662.755 557.416L660.518 547.912L658.078 538.475L655.441 529.107L652.607 519.812L649.537 510.486L643.785 494.603L637.43 478.891L630.547 463.459L623.166 448.291L615.323 433.386L607.04 418.725L598.351 404.303L589.286 390.11L579.869 376.121L570.132 362.341L560.101 348.746L549.808 335.336L539.266 322.078L528.517 308.985L517.575 296.028L506.48 283.204L495.238 270.49L483.9 257.896L472.459 245.381L460.987 232.979L449.447 220.617L437.924 208.349L426.407 196.12L414.935 183.94L403.515 171.776L392.227 159.684L381.019 147.568L369.975 135.481L359.087 123.38L347.383 110.137L335.809 96.8168L324.357 83.4542L312.948 70.0011L301.586 56.5166L254.999 1" stroke="#5A5A5A" stroke-width="0.113386" stroke-miterlimit="10"/>
<path d="M254.999 1L237.265 68.5752L233.43 83.0262L229.538 97.3979L225.552 111.662L221.439 125.815L217.153 139.855L212.663 153.824L207.969 167.791L203.102 181.8L198.107 195.82L193.011 209.911L187.854 224.07L180.232 245.018L172.624 265.977L165.035 286.937L157.464 307.902L149.913 328.87L142.381 349.843L134.869 370.82L127.377 391.799L119.902 412.792L112.45 433.789L105.017 454.791L97.6048 475.804L90.2149 496.823L82.8448 517.853L75.4946 538.895L68.1698 559.939L60.8621 581.009L53.5657 602.116L1 755.683" stroke="#5A5A5A" stroke-width="0.113386" stroke-miterlimit="10"/>
</svg>
