<svg width="294" height="1563" viewBox="0 0 294 1563" fill="none" xmlns="http://www.w3.org/2000/svg">
<path fill-rule="evenodd" clip-rule="evenodd" d="M29.3467 29.3145H264.739V1401.21C264.739 1431.5 256.972 1459.63 241.41 1485.59C194.95 1551.96 90.0366 1548.24 50.6038 1486.36C36.4334 1459.88 29.3467 1431.61 29.3467 1401.55V29.3145Z" fill="white" stroke="black" stroke-width="0.255119" stroke-miterlimit="10"/>
<path d="M1 1H293.085" stroke="#5A5A5A" stroke-width="0.113386" stroke-miterlimit="10"/>
<path d="M293.04 1.00781V1401.43" stroke="#5A5A5A" stroke-width="0.113386" stroke-miterlimit="10"/>
<path d="M293.086 1401.44L293.029 1406.27L292.83 1411.26L292.519 1416.22L292.093 1421.17L291.555 1426.09L290.846 1430.98L290.053 1435.84L289.117 1440.68L288.068 1445.48L286.878 1450.25L285.546 1455L284.128 1459.68L282.569 1464.36L280.897 1468.99L279.083 1473.58L277.155 1478.11L275.114 1482.63L272.96 1487.08L270.664 1491.52L268.254 1495.87L265.051 1501.39" stroke="#5A5A5A" stroke-width="0.113386" stroke-miterlimit="10"/>
<path d="M265.051 1501.36L258.361 1510.18L251.558 1517.89L244.33 1524.96L236.704 1531.42L228.711 1537.24L220.405 1542.45L211.845 1547.03L203.057 1551L194.071 1554.36L184.972 1557.14L175.759 1559.32L166.462 1560.92L157.107 1561.96L147.753 1562.43L138.421 1562.33L129.115 1561.68L119.88 1560.47L110.744 1558.71L101.735 1556.39L92.8828 1553.5L84.2257 1550.05L75.7927 1546.03L67.6232 1541.43L59.7599 1536.25L52.2452 1530.49L45.1275 1524.13L38.4575 1517.2L32.2894 1509.69L26.2939 1501.07" stroke="#5A5A5A" stroke-width="0.113386" stroke-miterlimit="10"/>
<path d="M26.2935 1501.05L23.2265 1495.15L20.9616 1490.53L18.8129 1485.86L16.7861 1481.16L14.8757 1476.42L13.0926 1471.65L11.423 1466.83L9.88095 1461.98L8.46085 1457.11L7.16256 1452.18L5.98901 1447.25L4.93726 1442.26L4.0132 1437.26L3.21094 1432.24L2.53359 1427.17L1.98081 1422.09L1.54984 1416.99L1.24378 1411.87L1.05952 1406.72L1 1401.72" stroke="#5A5A5A" stroke-width="0.113386" stroke-miterlimit="10"/>
<path d="M1 1401.81V1.04077" stroke="#5A5A5A" stroke-width="0.113386" stroke-miterlimit="10"/>
</svg>
