<svg width="2835" height="1692" viewBox="0 0 2835 1692" fill="none" xmlns="http://www.w3.org/2000/svg">
<g clip-path="url(#clip0_163_2248)">
<rect width="2835" height="1692" fill="#EBEBEB"/>
<path d="M1468.24 713.448C1526.28 633.465 1521.04 435.972 1448.28 120.276L1448.57 120.099C1485.01 98.3595 1521.37 76.6664 1560.41 61.5987C1595.79 47.964 1633.26 39.8002 1670.77 31.6364L1671.81 32.4154C1678.69 37.5434 1685.58 42.6796 1692.71 47.4821C1748.58 85.2396 1817.6 102.928 1885.32 109.618C1910.88 112.156 1936.19 113.103 1961.54 114.051L1962.76 114.096L1964 114.045C1989.35 112.985 2014.65 111.928 2040.18 109.306C2107.9 102.304 2176.84 84.3326 2232.54 46.3199C2239.99 41.2459 2247.19 35.8034 2254.39 30.3608L2254.7 30.4264C2292.16 38.4265 2329.55 46.4134 2364.89 59.8696C2404.09 74.8082 2440.66 96.4082 2477.28 118.065C2405.66 434.975 2401.44 632.702 2460.36 711.987C2442.23 704.727 2415.56 698.296 2387.14 699.693C2354.84 701.28 2320.27 712.983 2293.47 745.092C2260.11 785.056 2217.47 831.874 2172.62 869.071C2127.74 906.286 2080.73 933.795 2038.63 935.288C2004.8 936.487 1986.99 936.611 1977.43 936.437C1972.66 936.349 1969.96 936.187 1968.36 936.048C1967.56 935.979 1967.03 935.915 1966.65 935.868L1966.57 935.857L1966.57 935.857C1966.48 935.845 1966.39 935.835 1966.31 935.825V935.787C1966.28 935.787 1966.25 935.788 1966.22 935.789C1966.17 935.791 1966.11 935.794 1966.05 935.799C1965.96 935.791 1965.88 935.787 1965.8 935.787V935.825C1965.72 935.835 1965.63 935.846 1965.54 935.857L1965.45 935.868C1965.08 935.915 1964.55 935.979 1963.75 936.048C1962.15 936.188 1959.45 936.35 1954.67 936.437C1945.12 936.612 1927.3 936.487 1893.48 935.288C1851.38 933.795 1804.37 906.286 1759.49 869.071C1714.63 831.874 1671.99 785.056 1638.63 745.092C1611.83 712.983 1577.26 701.28 1544.97 699.693C1514.65 698.203 1486.33 705.619 1468.24 713.448Z" fill="white" stroke="white" stroke-width="0.255119" stroke-miterlimit="10"/>
<path d="M1416.13 106.441L1440.62 91.814L1447.51 87.7323L1461.46 79.5118L1468.43 75.4868L1475.55 71.4331L1482.69 67.4361L1489.89 63.4675L1497.12 59.6125L1504.49 55.7858L1511.89 52.0725L1519.37 48.4441L1526.94 44.9292L1534.59 41.5558L1542.39 38.2678L1550.21 35.1494L1558.37 32.0881L1566.59 29.2251L1574.81 26.5323L1583.04 23.9811L1591.23 21.5717L1599.48 19.2755L1607.73 17.1211L1615.89 15.0519L1624.08 13.0677L1632.33 11.14L1640.41 9.29743L1648.57 7.45519L1656.65 5.69772L1677.12 1.21875" stroke="#5A5A5A" stroke-width="0.113386" stroke-miterlimit="10"/>
<path d="M1677.12 1.2207L1708.81 24.1529L1713.83 27.4412L1719.18 30.7859L1724.6 34.0175L1730.15 37.1355L1735.77 40.112L1741.46 42.975L1747.22 45.7529L1753.11 48.4173L1759.01 50.9402L1765.02 53.4064L1771.11 55.731L1777.24 57.9705L1783.44 60.0964L1789.68 62.1089L1796 64.0363L1802.38 65.8789L1808.79 67.608L1815.25 69.2239L1821.74 70.7828L1828.26 72.2285L1834.84 73.5891L1841.44 74.8649L1848.05 76.0272L1854.71 77.1324L1861.37 78.1531L1868.03 79.0885L1874.75 79.939L1881.41 80.7041L1888.07 81.4127L1900.57 82.5183L1913.05 83.4256L1925.6 84.1626L1938.27 84.7578L1951 85.2962L1962.71 85.7214" stroke="#5A5A5A" stroke-width="0.113386" stroke-miterlimit="10"/>
<path d="M2247.93 0.00195312L2268.37 4.36708L2276.5 6.12455L2284.61 7.88202L2292.83 9.72461L2300.99 11.5956L2309.19 13.5513L2317.41 15.5925L2325.66 17.7185L2333.9 19.986L2342.13 22.3387L2350.35 24.8615L2358.57 27.5263L2366.79 30.3609L2374.98 33.3655L2382.83 36.4555L2390.63 39.7151L2398.28 43.0601L2405.88 46.5467L2413.39 50.1467L2420.81 53.8319L2428.13 57.6019L2435.44 61.457L2442.67 65.3688L2449.79 69.3374L2456.9 73.3343L2463.99 77.4161L2470.9 81.413L2477.9 85.5231L2484.79 89.5768L2509.37 104.09" stroke="#5A5A5A" stroke-width="0.113386" stroke-miterlimit="10"/>
<path d="M1962.71 85.7198L1974.41 85.2378L1987.11 84.671L1999.78 83.9907L2012.37 83.2253L2024.81 82.2616L2037.34 81.0993L2043.98 80.3623L2050.67 79.5685L2057.36 78.6899L2063.99 77.7259L2070.68 76.6771L2077.31 75.5431L2083.95 74.3244L2090.52 73.0206L2097.1 71.6317L2103.62 70.1576L2110.08 68.5984L2116.54 66.926L2122.98 65.1686L2129.3 63.326L2135.62 61.3699L2141.86 59.329L2148.06 57.1747L2154.16 54.9072L2160.25 52.5542L2166.23 50.088L2172.16 47.5088L2178.03 44.8156L2183.75 42.0377L2189.48 39.118L2195.06 36.1134L2200.56 32.9954L2206 29.7355L2211.33 26.3904L2216.35 23.0457L2247.93 0" stroke="#5A5A5A" stroke-width="0.113386" stroke-miterlimit="10"/>
<path d="M1350 725.213L1391.02 725.809L1401.17 724.788L1410.26 722.69L1418.49 719.572L1426.03 715.434L1433.11 710.104L1439.86 703.471L1446.29 695.308L1452.36 685.5L1458.03 673.963L1463.16 660.583L1467.67 645.446L1471.52 628.467L1474.67 609.73L1477.02 589.235L1478.61 567.011L1479.35 543.059L1479.26 517.405L1478.32 490.079L1476.54 461.109L1473.87 430.467L1470.33 398.18L1465.91 364.249L1460.61 328.703L1454.43 291.512L1447.34 252.705L1439.35 212.283L1430.45 170.274L1416.13 106.438" stroke="#5A5A5A" stroke-width="0.113386" stroke-miterlimit="10"/>
<path d="M2509.37 104.084L2495.31 167.977L2486.61 210.043L2478.78 250.522L2471.87 289.3L2465.83 326.547L2460.7 362.122L2456.42 396.053L2453.02 428.368L2450.49 459.011L2448.82 488.009L2448 515.335L2448.03 540.989L2448.88 564.913L2450.55 587.137L2452.99 607.631L2456.22 626.368L2460.13 643.291L2464.72 658.428L2469.91 671.779L2475.61 683.316L2481.73 693.096L2488.2 701.203L2494.97 707.836L2502.09 713.108L2509.65 717.247L2517.87 720.309L2526.97 722.378L2537.12 723.342L2578.14 722.576" stroke="#5A5A5A" stroke-width="0.113386" stroke-miterlimit="10"/>
<path d="M2618.29 1248.68L376 1248.68" stroke="#0000FF" stroke-width="0.113386" stroke-miterlimit="10"/>
<path d="M2618.29 1248.68L376 1248.68" stroke="#0000FF" stroke-width="0.113386" stroke-miterlimit="10"/>
<path d="M403.01 1248.73L403.322 1258.37L403.69 1267.23L404.172 1276.25L404.852 1285.35L405.788 1294.55L407.063 1303.82L408.906 1313.75L415.596 1337.19L425.574 1359.52L438.273 1380.04L453.325 1398.77L470.361 1415.85L489.042 1431.45L509.168 1445.77L530.484 1458.99L552.821 1471.3L576.009 1482.85L599.82 1493.78L624.112 1504.25L648.717 1514.36L673.407 1524.24L698.04 1534L722.362 1543.74L746.229 1553.57L769.417 1563.59L791.725 1573.86L812.957 1584.49L832.856 1595.52L851.281 1607.03L868.006 1619.03L882.859 1631.55L895.729 1644.61L906.5 1658.25L915.174 1672.55L921.779 1687.7L926.428 1704.65L927.448 1710.62L928.327 1717.6L929.008 1724.99L929.49 1732.69L929.83 1740.71L930.085 1748.97L930.963 1788.46" stroke="#5A5A5A" stroke-width="0.113386" stroke-miterlimit="10"/>
<path d="M930.963 709.001L930.085 748.488L929.83 756.765L929.49 764.758L929.008 772.469L928.327 779.867L927.448 786.84L926.428 792.821L921.779 809.744L915.174 824.91L906.5 839.225L895.729 852.851L882.859 865.91L868.006 878.433L851.281 890.435L832.856 901.938L812.957 912.974L791.725 923.604L769.417 933.876L746.229 943.891L722.362 953.725L698.04 963.462L673.407 973.227L648.717 983.103L624.112 993.211L599.82 1003.68L576.009 1014.62L552.821 1026.17L530.484 1038.48L509.168 1051.7L489.042 1066.02L470.361 1081.62L453.325 1098.69L438.301 1117.43L425.574 1137.94L415.596 1160.27L408.906 1183.71L407.063 1193.64L405.788 1202.91L404.852 1212.11L404.172 1221.21L403.69 1230.23L403.322 1239.09L403.01 1248.73" stroke="#5A5A5A" stroke-width="0.113386" stroke-miterlimit="10"/>
<path d="M2578 1354.46L2578 1139.46" stroke="#5A5A5A" stroke-width="0.113386" stroke-miterlimit="10"/>
<path d="M431.389 1248.73C432.012 1268.84 432.664 1288.93 436.534 1307.27C457.831 1408.35 576.819 1455.48 695.665 1502.56C788.082 1539.17 880.413 1575.74 926.656 1637.62C1018.33 1551.03 1174.6 1491.98 1330.69 1463.24C1487.07 1434.45 1643.43 1436.06 1734.68 1470.99C1784.21 1489.95 1851.75 1495.58 1927.27 1492.01C2002.78 1488.43 2086.22 1475.65 2167.52 1457.85C2327.48 1422.8 2479.04 1368.3 2545.5 1326.12L2545.5 1168.29C2479.04 1126.12 2327.48 1071.61 2167.52 1036.57C2086.22 1018.76 2002.78 1005.99 1927.27 1002.41C1851.75 998.834 1784.21 1004.46 1734.68 1023.43C1643.43 1058.36 1487.07 1059.97 1330.69 1031.18C1175.35 1002.58 1019.84 943.954 927.986 858.046C882.202 921.018 788.981 957.942 695.672 994.901C576.823 1041.98 457.831 1089.11 436.534 1190.19C432.664 1208.53 432.012 1228.62 431.389 1248.73Z" fill="white" stroke="white" stroke-width="0.255119" stroke-miterlimit="10"/>
</g>
<defs>
<clipPath id="clip0_163_2248">
<rect width="2835" height="1692" fill="white"/>
</clipPath>
</defs>
</svg>
