<svg width="2835" height="1613" viewBox="0 0 2835 1613" fill="none" xmlns="http://www.w3.org/2000/svg">
<g clip-path="url(#clip0_163_2248)">
<rect width="2835" height="1613" fill="#EBEBEB"/>
<path d="M56.2409 713.448C114.282 633.465 109.036 435.972 36.2754 120.276L36.5726 120.099C73.0118 98.3595 109.374 76.6664 148.414 61.5987C183.79 47.964 221.265 39.8002 258.767 31.6364L259.812 32.4154C266.693 37.5434 273.584 42.6796 280.707 47.4821C336.578 85.2396 405.602 102.928 473.322 109.618C498.877 112.156 524.185 113.103 549.543 114.051L550.764 114.096L551.996 114.045C577.351 112.985 602.655 111.928 628.179 109.306C695.898 102.304 764.837 84.3326 820.538 46.3199C827.993 41.2459 835.193 35.8034 842.393 30.3608L842.7 30.4264C880.157 38.4265 917.551 46.4134 952.888 59.8696C992.091 74.8082 1028.66 96.4082 1065.28 118.065C993.661 434.975 989.441 632.702 1048.36 711.987C1030.23 704.727 1003.56 698.296 975.141 699.693C942.844 701.28 908.273 712.983 881.472 745.092C848.114 785.056 805.474 831.874 760.616 869.071C715.738 906.286 668.729 933.795 626.626 935.288C592.804 936.487 574.985 936.611 565.435 936.437C560.66 936.349 557.956 936.187 556.355 936.048C555.556 935.979 555.03 935.915 554.654 935.868L554.569 935.857L554.568 935.857C554.475 935.845 554.389 935.835 554.308 935.825V935.787C554.279 935.787 554.251 935.788 554.221 935.789C554.168 935.791 554.112 935.794 554.054 935.799C553.963 935.791 553.879 935.787 553.798 935.787V935.825C553.717 935.835 553.63 935.846 553.537 935.857L553.452 935.868C553.077 935.915 552.55 935.979 551.751 936.048C550.15 936.188 547.446 936.35 542.671 936.437C533.121 936.612 515.302 936.487 481.481 935.288C439.377 933.795 392.368 906.286 347.49 869.071C302.633 831.874 259.992 785.056 226.635 745.092C199.833 712.983 165.262 701.28 132.965 699.693C102.655 698.203 74.3276 705.619 56.2409 713.448Z" fill="white" stroke="white" stroke-width="0.255119" stroke-miterlimit="10"/>
<path d="M4.13086 106.441L28.6223 91.814L35.5106 87.7323L49.4569 79.5118L56.4304 75.4868L63.5454 71.4331L70.6887 67.4361L77.8885 63.4675L85.117 59.6125L92.487 55.7858L99.8854 52.0725L107.369 48.4441L114.938 44.9292L122.591 41.5558L130.386 38.2678L138.21 35.1494L146.374 32.0881L154.594 29.2251L162.815 26.5323L171.035 23.9811L179.227 21.5717L187.476 19.2755L195.725 17.1211L203.889 15.0519L212.081 13.0677L220.33 11.14L228.408 9.29743L236.572 7.45519L244.651 5.69772L265.117 1.21875" stroke="#5A5A5A" stroke-width="0.113386" stroke-miterlimit="10"/>
<path d="M265.117 1.2207L296.808 24.1529L301.826 27.4412L307.183 30.7859L312.598 34.0175L318.153 37.1355L323.766 40.112L329.464 42.975L335.218 45.7529L341.114 48.4173L347.01 50.9402L353.02 53.4064L359.114 55.731L365.237 57.9705L371.445 60.0964L377.681 62.1089L384.002 64.0363L390.38 65.8789L396.787 67.608L403.25 69.2239L409.741 70.7828L416.261 72.2285L422.837 73.5891L429.442 74.8649L436.046 76.0272L442.708 77.1324L449.369 78.1531L456.031 79.0885L462.749 79.939L469.41 80.7041L476.072 81.4127L488.573 82.5183L501.045 83.4256L513.603 84.1626L526.273 84.7578L539.001 85.2962L550.708 85.7214" stroke="#5A5A5A" stroke-width="0.113386" stroke-miterlimit="10"/>
<path d="M835.93 0.00195312L856.367 4.36708L864.503 6.12455L872.61 7.88202L880.83 9.72461L888.994 11.5956L897.186 13.5513L905.407 15.5925L913.656 17.7185L921.904 19.986L930.125 22.3387L938.346 24.8615L946.566 27.5263L954.786 30.3609L962.979 33.3655L970.831 36.4555L978.626 39.7151L986.28 43.0601L993.876 46.5467L1001.39 50.1467L1008.81 53.8319L1016.13 57.6019L1023.44 61.457L1030.67 65.3688L1037.79 69.3374L1044.9 73.3343L1051.99 77.4161L1058.9 81.413L1065.9 85.5231L1072.79 89.5768L1097.37 104.09" stroke="#5A5A5A" stroke-width="0.113386" stroke-miterlimit="10"/>
<path d="M550.707 85.7198L562.414 85.2378L575.113 84.671L587.784 83.9907L600.37 83.2253L612.814 82.2616L625.343 81.0993L631.976 80.3623L638.666 79.5685L645.356 78.6899L651.989 77.7259L658.679 76.6771L665.312 75.5431L671.945 74.3244L678.521 73.0206L685.098 71.6317L691.617 70.1576L698.08 68.5984L704.544 66.926L710.978 65.1686L717.299 63.326L723.621 61.3699L729.857 59.329L736.065 57.1747L742.159 54.9072L748.254 52.5542L754.235 50.088L760.159 47.5088L766.027 44.8156L771.753 42.0377L777.479 39.118L783.063 36.1134L788.563 32.9954L794.005 29.7355L799.334 26.3904L804.351 23.0457L835.93 0" stroke="#5A5A5A" stroke-width="0.113386" stroke-miterlimit="10"/>
<path d="M-62 725.213L-20.9827 725.809L-10.8344 724.788L-1.73531 722.69L6.48524 719.572L14.0252 715.434L21.1118 710.104L27.8583 703.471L34.293 695.308L40.3592 685.5L46.0285 673.963L51.1594 660.583L55.6664 645.446L59.5214 628.467L62.6679 609.73L65.0208 589.235L66.6081 567.011L67.3451 543.059L67.26 517.405L66.3247 490.079L64.5388 461.109L61.8741 430.467L58.3308 398.18L53.9089 364.249L48.6081 328.703L42.4284 291.512L35.3418 252.705L27.3482 212.283L18.4474 170.274L4.13226 106.438" stroke="#5A5A5A" stroke-width="0.113386" stroke-miterlimit="10"/>
<path d="M1097.37 104.084L1083.31 167.977L1074.61 210.043L1066.78 250.522L1059.87 289.3L1053.83 326.547L1048.7 362.122L1044.42 396.053L1041.02 428.368L1038.49 459.011L1036.82 488.009L1036 515.335L1036.03 540.989L1036.88 564.913L1038.55 587.137L1040.99 607.631L1044.22 626.368L1048.13 643.291L1052.72 658.428L1057.91 671.779L1063.61 683.316L1069.73 693.096L1076.2 701.203L1082.97 707.836L1090.09 713.108L1097.65 717.247L1105.87 720.309L1114.97 722.378L1125.12 723.342L1166.14 722.576" stroke="#5A5A5A" stroke-width="0.113386" stroke-miterlimit="10"/>
<path d="M2829.29 1152.68L587 1152.68" stroke="#0000FF" stroke-width="0.113386" stroke-miterlimit="10"/>
<path d="M2829.29 1152.68L587 1152.68" stroke="#0000FF" stroke-width="0.113386" stroke-miterlimit="10"/>
<path d="M614.01 1152.73L614.322 1162.37L614.69 1171.23L615.172 1180.25L615.852 1189.35L616.788 1198.55L618.063 1207.82L619.906 1217.75L626.596 1241.19L636.574 1263.52L649.273 1284.04L664.325 1302.77L681.361 1319.85L700.042 1335.45L720.168 1349.77L741.484 1362.99L763.821 1375.3L787.009 1386.85L810.82 1397.78L835.112 1408.25L859.717 1418.36L884.407 1428.24L909.04 1438L933.362 1447.74L957.229 1457.57L980.417 1467.59L1002.73 1477.86L1023.96 1488.49L1043.86 1499.52L1062.28 1511.03L1079.01 1523.03L1093.86 1535.55L1106.73 1548.61L1117.5 1562.25L1126.17 1576.55L1132.78 1591.7L1137.43 1608.65L1138.45 1614.62L1139.33 1621.6L1140.01 1628.99L1140.49 1636.69L1140.83 1644.71L1141.08 1652.97L1141.96 1692.46" stroke="#5A5A5A" stroke-width="0.113386" stroke-miterlimit="10"/>
<path d="M1141.96 613.001L1141.08 652.488L1140.83 660.765L1140.49 668.758L1140.01 676.469L1139.33 683.867L1138.45 690.84L1137.43 696.821L1132.78 713.744L1126.17 728.91L1117.5 743.225L1106.73 756.851L1093.86 769.91L1079.01 782.433L1062.28 794.435L1043.86 805.938L1023.96 816.974L1002.73 827.604L980.417 837.876L957.229 847.891L933.362 857.725L909.04 867.462L884.407 877.227L859.717 887.103L835.112 897.211L810.82 907.68L787.009 918.616L763.821 930.167L741.484 942.475L720.168 955.696L700.042 970.017L681.361 985.616L664.325 1002.69L649.301 1021.43L636.574 1041.94L626.596 1064.27L619.906 1087.71L618.063 1097.64L616.788 1106.91L615.852 1116.11L615.172 1125.21L614.69 1134.23L614.322 1143.09L614.01 1152.73" stroke="#5A5A5A" stroke-width="0.113386" stroke-miterlimit="10"/>
<path d="M2789 1258.46L2789 1043.46" stroke="#5A5A5A" stroke-width="0.113386" stroke-miterlimit="10"/>
<path d="M642.389 1152.73C643.012 1172.84 643.664 1192.93 647.534 1211.27C668.831 1312.35 787.819 1359.48 906.665 1406.56C999.082 1443.17 1091.41 1479.74 1137.66 1541.62C1229.33 1455.03 1385.6 1395.98 1541.69 1367.24C1698.07 1338.45 1854.43 1340.06 1945.68 1374.99C1995.21 1393.95 2062.75 1399.58 2138.27 1396.01C2213.78 1392.43 2297.22 1379.65 2378.52 1361.85C2538.48 1326.8 2690.04 1272.3 2756.5 1230.12L2756.5 1072.29C2690.04 1030.12 2538.48 975.614 2378.52 940.572C2297.22 922.763 2213.78 909.987 2138.27 906.411C2062.75 902.834 1995.21 908.462 1945.68 927.425C1854.43 962.362 1698.07 963.969 1541.69 935.178C1386.35 906.578 1230.84 847.954 1138.99 762.046C1093.2 825.018 999.981 861.942 906.672 898.901C787.823 945.976 668.831 993.108 647.534 1094.19C643.664 1112.53 643.012 1132.62 642.389 1152.73Z" fill="white" stroke="white" stroke-width="0.255119" stroke-miterlimit="10"/>
</g>
<defs>
<clipPath id="clip0_163_2248">
<rect width="2835" height="1613" fill="white"/>
</clipPath>
</defs>
</svg>
